M48
;GenerationSoftware,Autodesk,EAGLE,9.6.1*%
;CreationDate,2020-05-21T11:38:49Z*%
FMAT,2
ICI,OFF
METRIC,TZ,000.000
T2C0.350
T1C1.016
%
G90
M71
T1
X45212Y32131
X45212Y34671
X45212Y37211
X24130Y33401
X24130Y35941
T2
X28702Y37211
X28702Y39751
X40513Y38481
X40513Y34671
X35814Y38481
X30988Y24765
X30988Y28575
X34925Y48133
X25400Y27559
X44958Y44069
X44069Y27813
X25527Y43307
X40386Y48641
X28829Y48641
X34925Y43561
X25781Y44577
X32131Y33655
X37084Y32131
X40259Y44704
X39878Y36068
M30