G04 EAGLE Gerber RS-274X export*
G75*
%MOMM*%
%FSLAX34Y34*%
%LPD*%
%INSilkscreen Top*%
%IPPOS*%
%AMOC8*
5,1,8,0,0,1.08239X$1,22.5*%
G01*
%ADD10C,0.101600*%
%ADD11C,0.152400*%
%ADD12C,0.127000*%
%ADD13C,0.000000*%
%ADD14C,0.076200*%


D10*
X214894Y374618D02*
X218140Y374618D01*
X218253Y374620D01*
X218366Y374626D01*
X218479Y374636D01*
X218592Y374650D01*
X218704Y374667D01*
X218815Y374689D01*
X218925Y374714D01*
X219035Y374744D01*
X219143Y374777D01*
X219250Y374814D01*
X219356Y374854D01*
X219460Y374899D01*
X219563Y374947D01*
X219664Y374998D01*
X219763Y375053D01*
X219860Y375111D01*
X219955Y375173D01*
X220048Y375238D01*
X220138Y375306D01*
X220226Y375377D01*
X220312Y375452D01*
X220395Y375529D01*
X220475Y375609D01*
X220552Y375692D01*
X220627Y375778D01*
X220698Y375866D01*
X220766Y375956D01*
X220831Y376049D01*
X220893Y376144D01*
X220951Y376241D01*
X221006Y376340D01*
X221057Y376441D01*
X221105Y376544D01*
X221150Y376648D01*
X221190Y376754D01*
X221227Y376861D01*
X221260Y376969D01*
X221290Y377079D01*
X221315Y377189D01*
X221337Y377300D01*
X221354Y377412D01*
X221368Y377525D01*
X221378Y377638D01*
X221384Y377751D01*
X221386Y377864D01*
X221384Y377977D01*
X221378Y378090D01*
X221368Y378203D01*
X221354Y378316D01*
X221337Y378428D01*
X221315Y378539D01*
X221290Y378649D01*
X221260Y378759D01*
X221227Y378867D01*
X221190Y378974D01*
X221150Y379080D01*
X221105Y379184D01*
X221057Y379287D01*
X221006Y379388D01*
X220951Y379487D01*
X220893Y379584D01*
X220831Y379679D01*
X220766Y379772D01*
X220698Y379862D01*
X220627Y379950D01*
X220552Y380036D01*
X220475Y380119D01*
X220395Y380199D01*
X220312Y380276D01*
X220226Y380351D01*
X220138Y380422D01*
X220048Y380490D01*
X219955Y380555D01*
X219860Y380617D01*
X219763Y380675D01*
X219664Y380730D01*
X219563Y380781D01*
X219460Y380829D01*
X219356Y380874D01*
X219250Y380914D01*
X219143Y380951D01*
X219035Y380984D01*
X218925Y381014D01*
X218815Y381039D01*
X218704Y381061D01*
X218592Y381078D01*
X218479Y381092D01*
X218366Y381102D01*
X218253Y381108D01*
X218140Y381110D01*
X218789Y386302D02*
X214894Y386302D01*
X218789Y386302D02*
X218890Y386300D01*
X218990Y386294D01*
X219090Y386284D01*
X219190Y386271D01*
X219289Y386253D01*
X219388Y386232D01*
X219485Y386207D01*
X219582Y386178D01*
X219677Y386145D01*
X219771Y386109D01*
X219863Y386069D01*
X219954Y386026D01*
X220043Y385979D01*
X220130Y385929D01*
X220216Y385875D01*
X220299Y385818D01*
X220379Y385758D01*
X220458Y385695D01*
X220534Y385628D01*
X220607Y385559D01*
X220677Y385487D01*
X220745Y385413D01*
X220810Y385336D01*
X220871Y385256D01*
X220930Y385174D01*
X220985Y385090D01*
X221037Y385004D01*
X221086Y384916D01*
X221131Y384826D01*
X221173Y384734D01*
X221211Y384641D01*
X221245Y384546D01*
X221276Y384451D01*
X221303Y384354D01*
X221326Y384256D01*
X221346Y384157D01*
X221361Y384057D01*
X221373Y383957D01*
X221381Y383857D01*
X221385Y383756D01*
X221385Y383656D01*
X221381Y383555D01*
X221373Y383455D01*
X221361Y383355D01*
X221346Y383255D01*
X221326Y383156D01*
X221303Y383058D01*
X221276Y382961D01*
X221245Y382866D01*
X221211Y382771D01*
X221173Y382678D01*
X221131Y382586D01*
X221086Y382496D01*
X221037Y382408D01*
X220985Y382322D01*
X220930Y382238D01*
X220871Y382156D01*
X220810Y382076D01*
X220745Y381999D01*
X220677Y381925D01*
X220607Y381853D01*
X220534Y381784D01*
X220458Y381717D01*
X220379Y381654D01*
X220299Y381594D01*
X220216Y381537D01*
X220130Y381483D01*
X220043Y381433D01*
X219954Y381386D01*
X219863Y381343D01*
X219771Y381303D01*
X219677Y381267D01*
X219582Y381234D01*
X219485Y381205D01*
X219388Y381180D01*
X219289Y381159D01*
X219190Y381141D01*
X219090Y381128D01*
X218990Y381118D01*
X218890Y381112D01*
X218789Y381110D01*
X218789Y381109D02*
X216193Y381109D01*
X225675Y386302D02*
X229570Y374618D01*
X233465Y386302D01*
X237754Y374618D02*
X241000Y374618D01*
X241113Y374620D01*
X241226Y374626D01*
X241339Y374636D01*
X241452Y374650D01*
X241564Y374667D01*
X241675Y374689D01*
X241785Y374714D01*
X241895Y374744D01*
X242003Y374777D01*
X242110Y374814D01*
X242216Y374854D01*
X242320Y374899D01*
X242423Y374947D01*
X242524Y374998D01*
X242623Y375053D01*
X242720Y375111D01*
X242815Y375173D01*
X242908Y375238D01*
X242998Y375306D01*
X243086Y375377D01*
X243172Y375452D01*
X243255Y375529D01*
X243335Y375609D01*
X243412Y375692D01*
X243487Y375778D01*
X243558Y375866D01*
X243626Y375956D01*
X243691Y376049D01*
X243753Y376144D01*
X243811Y376241D01*
X243866Y376340D01*
X243917Y376441D01*
X243965Y376544D01*
X244010Y376648D01*
X244050Y376754D01*
X244087Y376861D01*
X244120Y376969D01*
X244150Y377079D01*
X244175Y377189D01*
X244197Y377300D01*
X244214Y377412D01*
X244228Y377525D01*
X244238Y377638D01*
X244244Y377751D01*
X244246Y377864D01*
X244244Y377977D01*
X244238Y378090D01*
X244228Y378203D01*
X244214Y378316D01*
X244197Y378428D01*
X244175Y378539D01*
X244150Y378649D01*
X244120Y378759D01*
X244087Y378867D01*
X244050Y378974D01*
X244010Y379080D01*
X243965Y379184D01*
X243917Y379287D01*
X243866Y379388D01*
X243811Y379487D01*
X243753Y379584D01*
X243691Y379679D01*
X243626Y379772D01*
X243558Y379862D01*
X243487Y379950D01*
X243412Y380036D01*
X243335Y380119D01*
X243255Y380199D01*
X243172Y380276D01*
X243086Y380351D01*
X242998Y380422D01*
X242908Y380490D01*
X242815Y380555D01*
X242720Y380617D01*
X242623Y380675D01*
X242524Y380730D01*
X242423Y380781D01*
X242320Y380829D01*
X242216Y380874D01*
X242110Y380914D01*
X242003Y380951D01*
X241895Y380984D01*
X241785Y381014D01*
X241675Y381039D01*
X241564Y381061D01*
X241452Y381078D01*
X241339Y381092D01*
X241226Y381102D01*
X241113Y381108D01*
X241000Y381110D01*
X241649Y386302D02*
X237754Y386302D01*
X241649Y386302D02*
X241750Y386300D01*
X241850Y386294D01*
X241950Y386284D01*
X242050Y386271D01*
X242149Y386253D01*
X242248Y386232D01*
X242345Y386207D01*
X242442Y386178D01*
X242537Y386145D01*
X242631Y386109D01*
X242723Y386069D01*
X242814Y386026D01*
X242903Y385979D01*
X242990Y385929D01*
X243076Y385875D01*
X243159Y385818D01*
X243239Y385758D01*
X243318Y385695D01*
X243394Y385628D01*
X243467Y385559D01*
X243537Y385487D01*
X243605Y385413D01*
X243670Y385336D01*
X243731Y385256D01*
X243790Y385174D01*
X243845Y385090D01*
X243897Y385004D01*
X243946Y384916D01*
X243991Y384826D01*
X244033Y384734D01*
X244071Y384641D01*
X244105Y384546D01*
X244136Y384451D01*
X244163Y384354D01*
X244186Y384256D01*
X244206Y384157D01*
X244221Y384057D01*
X244233Y383957D01*
X244241Y383857D01*
X244245Y383756D01*
X244245Y383656D01*
X244241Y383555D01*
X244233Y383455D01*
X244221Y383355D01*
X244206Y383255D01*
X244186Y383156D01*
X244163Y383058D01*
X244136Y382961D01*
X244105Y382866D01*
X244071Y382771D01*
X244033Y382678D01*
X243991Y382586D01*
X243946Y382496D01*
X243897Y382408D01*
X243845Y382322D01*
X243790Y382238D01*
X243731Y382156D01*
X243670Y382076D01*
X243605Y381999D01*
X243537Y381925D01*
X243467Y381853D01*
X243394Y381784D01*
X243318Y381717D01*
X243239Y381654D01*
X243159Y381594D01*
X243076Y381537D01*
X242990Y381483D01*
X242903Y381433D01*
X242814Y381386D01*
X242723Y381343D01*
X242631Y381303D01*
X242537Y381267D01*
X242442Y381234D01*
X242345Y381205D01*
X242248Y381180D01*
X242149Y381159D01*
X242050Y381141D01*
X241950Y381128D01*
X241850Y381118D01*
X241750Y381112D01*
X241649Y381110D01*
X241649Y381109D02*
X239053Y381109D01*
X497242Y334770D02*
X497242Y331524D01*
X497242Y334770D02*
X497240Y334883D01*
X497234Y334996D01*
X497224Y335109D01*
X497210Y335222D01*
X497193Y335334D01*
X497171Y335445D01*
X497146Y335555D01*
X497116Y335665D01*
X497083Y335773D01*
X497046Y335880D01*
X497006Y335986D01*
X496961Y336090D01*
X496913Y336193D01*
X496862Y336294D01*
X496807Y336393D01*
X496749Y336490D01*
X496687Y336585D01*
X496622Y336678D01*
X496554Y336768D01*
X496483Y336856D01*
X496408Y336942D01*
X496331Y337025D01*
X496251Y337105D01*
X496168Y337182D01*
X496082Y337257D01*
X495994Y337328D01*
X495904Y337396D01*
X495811Y337461D01*
X495716Y337523D01*
X495619Y337581D01*
X495520Y337636D01*
X495419Y337687D01*
X495316Y337735D01*
X495212Y337780D01*
X495106Y337820D01*
X494999Y337857D01*
X494891Y337890D01*
X494781Y337920D01*
X494671Y337945D01*
X494560Y337967D01*
X494448Y337984D01*
X494335Y337998D01*
X494222Y338008D01*
X494109Y338014D01*
X493996Y338016D01*
X493883Y338014D01*
X493770Y338008D01*
X493657Y337998D01*
X493544Y337984D01*
X493432Y337967D01*
X493321Y337945D01*
X493211Y337920D01*
X493101Y337890D01*
X492993Y337857D01*
X492886Y337820D01*
X492780Y337780D01*
X492676Y337735D01*
X492573Y337687D01*
X492472Y337636D01*
X492373Y337581D01*
X492276Y337523D01*
X492181Y337461D01*
X492088Y337396D01*
X491998Y337328D01*
X491910Y337257D01*
X491824Y337182D01*
X491741Y337105D01*
X491661Y337025D01*
X491584Y336942D01*
X491509Y336856D01*
X491438Y336768D01*
X491370Y336678D01*
X491305Y336585D01*
X491243Y336490D01*
X491185Y336393D01*
X491130Y336294D01*
X491079Y336193D01*
X491031Y336090D01*
X490986Y335986D01*
X490946Y335880D01*
X490909Y335773D01*
X490876Y335665D01*
X490846Y335555D01*
X490821Y335445D01*
X490799Y335334D01*
X490782Y335222D01*
X490768Y335109D01*
X490758Y334996D01*
X490752Y334883D01*
X490750Y334770D01*
X485558Y335419D02*
X485558Y331524D01*
X485558Y335419D02*
X485560Y335520D01*
X485566Y335620D01*
X485576Y335720D01*
X485589Y335820D01*
X485607Y335919D01*
X485628Y336018D01*
X485653Y336115D01*
X485682Y336212D01*
X485715Y336307D01*
X485751Y336401D01*
X485791Y336493D01*
X485834Y336584D01*
X485881Y336673D01*
X485931Y336760D01*
X485985Y336846D01*
X486042Y336929D01*
X486102Y337009D01*
X486165Y337088D01*
X486232Y337164D01*
X486301Y337237D01*
X486373Y337307D01*
X486447Y337375D01*
X486524Y337440D01*
X486604Y337501D01*
X486686Y337560D01*
X486770Y337615D01*
X486856Y337667D01*
X486944Y337716D01*
X487034Y337761D01*
X487126Y337803D01*
X487219Y337841D01*
X487314Y337875D01*
X487409Y337906D01*
X487506Y337933D01*
X487604Y337956D01*
X487703Y337976D01*
X487803Y337991D01*
X487903Y338003D01*
X488003Y338011D01*
X488104Y338015D01*
X488204Y338015D01*
X488305Y338011D01*
X488405Y338003D01*
X488505Y337991D01*
X488605Y337976D01*
X488704Y337956D01*
X488802Y337933D01*
X488899Y337906D01*
X488994Y337875D01*
X489089Y337841D01*
X489182Y337803D01*
X489274Y337761D01*
X489364Y337716D01*
X489452Y337667D01*
X489538Y337615D01*
X489622Y337560D01*
X489704Y337501D01*
X489784Y337440D01*
X489861Y337375D01*
X489935Y337307D01*
X490007Y337237D01*
X490076Y337164D01*
X490143Y337088D01*
X490206Y337009D01*
X490266Y336929D01*
X490323Y336846D01*
X490377Y336760D01*
X490427Y336673D01*
X490474Y336584D01*
X490517Y336493D01*
X490557Y336401D01*
X490593Y336307D01*
X490626Y336212D01*
X490655Y336115D01*
X490680Y336018D01*
X490701Y335919D01*
X490719Y335820D01*
X490732Y335720D01*
X490742Y335620D01*
X490748Y335520D01*
X490750Y335419D01*
X490751Y335419D02*
X490751Y332823D01*
X485558Y342305D02*
X497242Y346200D01*
X485558Y350095D01*
X497242Y354384D02*
X497242Y357630D01*
X497240Y357743D01*
X497234Y357856D01*
X497224Y357969D01*
X497210Y358082D01*
X497193Y358194D01*
X497171Y358305D01*
X497146Y358415D01*
X497116Y358525D01*
X497083Y358633D01*
X497046Y358740D01*
X497006Y358846D01*
X496961Y358950D01*
X496913Y359053D01*
X496862Y359154D01*
X496807Y359253D01*
X496749Y359350D01*
X496687Y359445D01*
X496622Y359538D01*
X496554Y359628D01*
X496483Y359716D01*
X496408Y359802D01*
X496331Y359885D01*
X496251Y359965D01*
X496168Y360042D01*
X496082Y360117D01*
X495994Y360188D01*
X495904Y360256D01*
X495811Y360321D01*
X495716Y360383D01*
X495619Y360441D01*
X495520Y360496D01*
X495419Y360547D01*
X495316Y360595D01*
X495212Y360640D01*
X495106Y360680D01*
X494999Y360717D01*
X494891Y360750D01*
X494781Y360780D01*
X494671Y360805D01*
X494560Y360827D01*
X494448Y360844D01*
X494335Y360858D01*
X494222Y360868D01*
X494109Y360874D01*
X493996Y360876D01*
X493883Y360874D01*
X493770Y360868D01*
X493657Y360858D01*
X493544Y360844D01*
X493432Y360827D01*
X493321Y360805D01*
X493211Y360780D01*
X493101Y360750D01*
X492993Y360717D01*
X492886Y360680D01*
X492780Y360640D01*
X492676Y360595D01*
X492573Y360547D01*
X492472Y360496D01*
X492373Y360441D01*
X492276Y360383D01*
X492181Y360321D01*
X492088Y360256D01*
X491998Y360188D01*
X491910Y360117D01*
X491824Y360042D01*
X491741Y359965D01*
X491661Y359885D01*
X491584Y359802D01*
X491509Y359716D01*
X491438Y359628D01*
X491370Y359538D01*
X491305Y359445D01*
X491243Y359350D01*
X491185Y359253D01*
X491130Y359154D01*
X491079Y359053D01*
X491031Y358950D01*
X490986Y358846D01*
X490946Y358740D01*
X490909Y358633D01*
X490876Y358525D01*
X490846Y358415D01*
X490821Y358305D01*
X490799Y358194D01*
X490782Y358082D01*
X490768Y357969D01*
X490758Y357856D01*
X490752Y357743D01*
X490750Y357630D01*
X485558Y358279D02*
X485558Y354384D01*
X485558Y358279D02*
X485560Y358380D01*
X485566Y358480D01*
X485576Y358580D01*
X485589Y358680D01*
X485607Y358779D01*
X485628Y358878D01*
X485653Y358975D01*
X485682Y359072D01*
X485715Y359167D01*
X485751Y359261D01*
X485791Y359353D01*
X485834Y359444D01*
X485881Y359533D01*
X485931Y359620D01*
X485985Y359706D01*
X486042Y359789D01*
X486102Y359869D01*
X486165Y359948D01*
X486232Y360024D01*
X486301Y360097D01*
X486373Y360167D01*
X486447Y360235D01*
X486524Y360300D01*
X486604Y360361D01*
X486686Y360420D01*
X486770Y360475D01*
X486856Y360527D01*
X486944Y360576D01*
X487034Y360621D01*
X487126Y360663D01*
X487219Y360701D01*
X487314Y360735D01*
X487409Y360766D01*
X487506Y360793D01*
X487604Y360816D01*
X487703Y360836D01*
X487803Y360851D01*
X487903Y360863D01*
X488003Y360871D01*
X488104Y360875D01*
X488204Y360875D01*
X488305Y360871D01*
X488405Y360863D01*
X488505Y360851D01*
X488605Y360836D01*
X488704Y360816D01*
X488802Y360793D01*
X488899Y360766D01*
X488994Y360735D01*
X489089Y360701D01*
X489182Y360663D01*
X489274Y360621D01*
X489364Y360576D01*
X489452Y360527D01*
X489538Y360475D01*
X489622Y360420D01*
X489704Y360361D01*
X489784Y360300D01*
X489861Y360235D01*
X489935Y360167D01*
X490007Y360097D01*
X490076Y360024D01*
X490143Y359948D01*
X490206Y359869D01*
X490266Y359789D01*
X490323Y359706D01*
X490377Y359620D01*
X490427Y359533D01*
X490474Y359444D01*
X490517Y359353D01*
X490557Y359261D01*
X490593Y359167D01*
X490626Y359072D01*
X490655Y358975D01*
X490680Y358878D01*
X490701Y358779D01*
X490719Y358680D01*
X490732Y358580D01*
X490742Y358480D01*
X490748Y358380D01*
X490750Y358279D01*
X490751Y358279D02*
X490751Y355683D01*
X443544Y224190D02*
X441922Y221380D01*
X443545Y224190D02*
X443600Y224289D01*
X443651Y224390D01*
X443699Y224493D01*
X443744Y224597D01*
X443784Y224703D01*
X443821Y224810D01*
X443854Y224918D01*
X443884Y225028D01*
X443909Y225138D01*
X443931Y225249D01*
X443948Y225361D01*
X443962Y225474D01*
X443972Y225587D01*
X443978Y225700D01*
X443980Y225813D01*
X443978Y225926D01*
X443972Y226039D01*
X443962Y226152D01*
X443948Y226265D01*
X443931Y226377D01*
X443909Y226488D01*
X443884Y226598D01*
X443854Y226708D01*
X443821Y226816D01*
X443784Y226923D01*
X443744Y227029D01*
X443699Y227133D01*
X443651Y227236D01*
X443600Y227337D01*
X443545Y227436D01*
X443487Y227533D01*
X443425Y227628D01*
X443360Y227721D01*
X443292Y227811D01*
X443221Y227899D01*
X443146Y227985D01*
X443069Y228068D01*
X442989Y228148D01*
X442906Y228225D01*
X442820Y228300D01*
X442732Y228371D01*
X442642Y228439D01*
X442549Y228504D01*
X442454Y228566D01*
X442357Y228624D01*
X442258Y228679D01*
X442157Y228730D01*
X442054Y228778D01*
X441950Y228823D01*
X441844Y228863D01*
X441737Y228900D01*
X441629Y228933D01*
X441519Y228963D01*
X441409Y228988D01*
X441298Y229010D01*
X441186Y229027D01*
X441073Y229041D01*
X440960Y229051D01*
X440847Y229057D01*
X440734Y229059D01*
X440621Y229057D01*
X440508Y229051D01*
X440395Y229041D01*
X440282Y229027D01*
X440170Y229010D01*
X440059Y228988D01*
X439949Y228963D01*
X439839Y228933D01*
X439731Y228900D01*
X439624Y228863D01*
X439518Y228823D01*
X439414Y228778D01*
X439311Y228730D01*
X439210Y228679D01*
X439111Y228624D01*
X439014Y228566D01*
X438919Y228504D01*
X438826Y228439D01*
X438736Y228371D01*
X438648Y228300D01*
X438562Y228225D01*
X438479Y228148D01*
X438399Y228068D01*
X438322Y227985D01*
X438247Y227899D01*
X438176Y227811D01*
X438108Y227721D01*
X438043Y227628D01*
X437981Y227533D01*
X437923Y227436D01*
X433750Y230594D02*
X431803Y227222D01*
X433751Y230594D02*
X433803Y230680D01*
X433858Y230764D01*
X433917Y230846D01*
X433978Y230926D01*
X434043Y231003D01*
X434111Y231077D01*
X434181Y231149D01*
X434254Y231218D01*
X434330Y231285D01*
X434409Y231348D01*
X434489Y231408D01*
X434572Y231465D01*
X434658Y231519D01*
X434745Y231569D01*
X434834Y231616D01*
X434925Y231659D01*
X435017Y231699D01*
X435111Y231735D01*
X435206Y231768D01*
X435303Y231797D01*
X435400Y231822D01*
X435499Y231843D01*
X435598Y231861D01*
X435698Y231874D01*
X435798Y231884D01*
X435898Y231890D01*
X435999Y231892D01*
X436100Y231890D01*
X436200Y231884D01*
X436300Y231874D01*
X436400Y231861D01*
X436499Y231843D01*
X436598Y231822D01*
X436695Y231797D01*
X436792Y231768D01*
X436887Y231735D01*
X436981Y231699D01*
X437073Y231659D01*
X437164Y231616D01*
X437253Y231569D01*
X437340Y231519D01*
X437426Y231465D01*
X437509Y231408D01*
X437589Y231348D01*
X437668Y231285D01*
X437744Y231218D01*
X437817Y231149D01*
X437887Y231077D01*
X437955Y231003D01*
X438020Y230926D01*
X438081Y230846D01*
X438140Y230764D01*
X438195Y230680D01*
X438247Y230594D01*
X438296Y230506D01*
X438341Y230416D01*
X438383Y230324D01*
X438421Y230231D01*
X438455Y230136D01*
X438486Y230041D01*
X438513Y229944D01*
X438536Y229846D01*
X438556Y229747D01*
X438571Y229647D01*
X438583Y229547D01*
X438591Y229447D01*
X438595Y229346D01*
X438595Y229246D01*
X438591Y229145D01*
X438583Y229045D01*
X438571Y228945D01*
X438556Y228845D01*
X438536Y228746D01*
X438513Y228648D01*
X438486Y228551D01*
X438455Y228456D01*
X438421Y228361D01*
X438383Y228268D01*
X438341Y228176D01*
X438296Y228086D01*
X438247Y227998D01*
X436949Y225749D01*
X437193Y236558D02*
X449259Y234089D01*
X441088Y243304D01*
X453351Y241177D02*
X454974Y243988D01*
X454974Y243987D02*
X455029Y244086D01*
X455080Y244187D01*
X455128Y244290D01*
X455173Y244394D01*
X455213Y244500D01*
X455250Y244607D01*
X455283Y244715D01*
X455313Y244825D01*
X455338Y244935D01*
X455360Y245046D01*
X455377Y245158D01*
X455391Y245271D01*
X455401Y245384D01*
X455407Y245497D01*
X455409Y245610D01*
X455407Y245723D01*
X455401Y245836D01*
X455391Y245949D01*
X455377Y246062D01*
X455360Y246174D01*
X455338Y246285D01*
X455313Y246395D01*
X455283Y246505D01*
X455250Y246613D01*
X455213Y246720D01*
X455173Y246826D01*
X455128Y246930D01*
X455080Y247033D01*
X455029Y247134D01*
X454974Y247233D01*
X454916Y247330D01*
X454854Y247425D01*
X454789Y247518D01*
X454721Y247608D01*
X454650Y247696D01*
X454575Y247782D01*
X454498Y247865D01*
X454418Y247945D01*
X454335Y248022D01*
X454249Y248097D01*
X454161Y248168D01*
X454071Y248236D01*
X453978Y248301D01*
X453883Y248363D01*
X453786Y248421D01*
X453687Y248476D01*
X453586Y248527D01*
X453483Y248575D01*
X453379Y248620D01*
X453273Y248660D01*
X453166Y248697D01*
X453058Y248730D01*
X452948Y248760D01*
X452838Y248785D01*
X452727Y248807D01*
X452615Y248824D01*
X452502Y248838D01*
X452389Y248848D01*
X452276Y248854D01*
X452163Y248856D01*
X452050Y248854D01*
X451937Y248848D01*
X451824Y248838D01*
X451711Y248824D01*
X451599Y248807D01*
X451488Y248785D01*
X451378Y248760D01*
X451268Y248730D01*
X451160Y248697D01*
X451053Y248660D01*
X450947Y248620D01*
X450843Y248575D01*
X450740Y248527D01*
X450639Y248476D01*
X450540Y248421D01*
X450443Y248363D01*
X450348Y248301D01*
X450255Y248236D01*
X450165Y248168D01*
X450077Y248097D01*
X449991Y248022D01*
X449908Y247945D01*
X449828Y247865D01*
X449751Y247782D01*
X449676Y247696D01*
X449605Y247608D01*
X449537Y247518D01*
X449472Y247425D01*
X449410Y247330D01*
X449352Y247233D01*
X445180Y250392D02*
X443233Y247019D01*
X445181Y250391D02*
X445233Y250477D01*
X445288Y250561D01*
X445347Y250643D01*
X445408Y250723D01*
X445473Y250800D01*
X445541Y250874D01*
X445611Y250946D01*
X445684Y251015D01*
X445760Y251082D01*
X445839Y251145D01*
X445919Y251205D01*
X446002Y251262D01*
X446088Y251316D01*
X446175Y251366D01*
X446264Y251413D01*
X446355Y251456D01*
X446447Y251496D01*
X446541Y251532D01*
X446636Y251565D01*
X446733Y251594D01*
X446830Y251619D01*
X446929Y251640D01*
X447028Y251658D01*
X447128Y251671D01*
X447228Y251681D01*
X447328Y251687D01*
X447429Y251689D01*
X447530Y251687D01*
X447630Y251681D01*
X447730Y251671D01*
X447830Y251658D01*
X447929Y251640D01*
X448028Y251619D01*
X448125Y251594D01*
X448222Y251565D01*
X448317Y251532D01*
X448411Y251496D01*
X448503Y251456D01*
X448594Y251413D01*
X448683Y251366D01*
X448770Y251316D01*
X448856Y251262D01*
X448939Y251205D01*
X449019Y251145D01*
X449098Y251082D01*
X449174Y251015D01*
X449247Y250946D01*
X449317Y250874D01*
X449385Y250800D01*
X449450Y250723D01*
X449511Y250643D01*
X449570Y250561D01*
X449625Y250477D01*
X449677Y250391D01*
X449726Y250303D01*
X449771Y250213D01*
X449813Y250121D01*
X449851Y250028D01*
X449885Y249933D01*
X449916Y249838D01*
X449943Y249741D01*
X449966Y249643D01*
X449986Y249544D01*
X450001Y249444D01*
X450013Y249344D01*
X450021Y249244D01*
X450025Y249143D01*
X450025Y249043D01*
X450021Y248942D01*
X450013Y248842D01*
X450001Y248742D01*
X449986Y248642D01*
X449966Y248543D01*
X449943Y248445D01*
X449916Y248348D01*
X449885Y248253D01*
X449851Y248158D01*
X449813Y248065D01*
X449771Y247973D01*
X449726Y247883D01*
X449677Y247795D01*
X448379Y245547D01*
X238696Y244623D02*
X237073Y247433D01*
X238695Y244622D02*
X238753Y244525D01*
X238815Y244430D01*
X238880Y244337D01*
X238948Y244247D01*
X239019Y244159D01*
X239094Y244073D01*
X239171Y243990D01*
X239251Y243910D01*
X239334Y243833D01*
X239420Y243758D01*
X239508Y243687D01*
X239598Y243619D01*
X239691Y243554D01*
X239786Y243492D01*
X239883Y243434D01*
X239982Y243379D01*
X240083Y243328D01*
X240186Y243280D01*
X240290Y243235D01*
X240396Y243195D01*
X240503Y243158D01*
X240611Y243125D01*
X240721Y243095D01*
X240831Y243070D01*
X240942Y243048D01*
X241054Y243031D01*
X241167Y243017D01*
X241280Y243007D01*
X241393Y243001D01*
X241506Y242999D01*
X241619Y243001D01*
X241732Y243007D01*
X241845Y243017D01*
X241958Y243031D01*
X242070Y243048D01*
X242181Y243070D01*
X242291Y243095D01*
X242401Y243125D01*
X242509Y243158D01*
X242616Y243195D01*
X242722Y243235D01*
X242826Y243280D01*
X242929Y243328D01*
X243030Y243379D01*
X243129Y243434D01*
X243226Y243492D01*
X243321Y243554D01*
X243414Y243619D01*
X243504Y243687D01*
X243592Y243758D01*
X243678Y243833D01*
X243761Y243910D01*
X243841Y243990D01*
X243918Y244073D01*
X243993Y244159D01*
X244064Y244247D01*
X244132Y244337D01*
X244197Y244430D01*
X244259Y244525D01*
X244317Y244622D01*
X244372Y244721D01*
X244423Y244822D01*
X244471Y244925D01*
X244516Y245029D01*
X244556Y245135D01*
X244593Y245242D01*
X244626Y245350D01*
X244656Y245460D01*
X244681Y245570D01*
X244703Y245681D01*
X244720Y245793D01*
X244734Y245906D01*
X244744Y246019D01*
X244750Y246132D01*
X244752Y246245D01*
X244750Y246358D01*
X244744Y246471D01*
X244734Y246584D01*
X244720Y246697D01*
X244703Y246809D01*
X244681Y246920D01*
X244656Y247030D01*
X244626Y247140D01*
X244593Y247248D01*
X244556Y247355D01*
X244516Y247461D01*
X244471Y247565D01*
X244423Y247668D01*
X244372Y247769D01*
X244317Y247868D01*
X249139Y249902D02*
X247192Y253275D01*
X249139Y249903D02*
X249188Y249814D01*
X249233Y249724D01*
X249275Y249633D01*
X249313Y249539D01*
X249347Y249445D01*
X249378Y249349D01*
X249405Y249252D01*
X249428Y249154D01*
X249448Y249055D01*
X249463Y248955D01*
X249475Y248855D01*
X249483Y248755D01*
X249487Y248654D01*
X249487Y248554D01*
X249483Y248453D01*
X249475Y248353D01*
X249463Y248253D01*
X249448Y248153D01*
X249428Y248054D01*
X249405Y247956D01*
X249378Y247859D01*
X249347Y247763D01*
X249313Y247669D01*
X249275Y247575D01*
X249233Y247484D01*
X249188Y247394D01*
X249139Y247306D01*
X249087Y247219D01*
X249032Y247135D01*
X248973Y247053D01*
X248911Y246974D01*
X248847Y246896D01*
X248779Y246822D01*
X248708Y246750D01*
X248635Y246681D01*
X248559Y246615D01*
X248481Y246551D01*
X248400Y246491D01*
X248317Y246434D01*
X248232Y246381D01*
X248145Y246330D01*
X248056Y246283D01*
X247965Y246240D01*
X247872Y246200D01*
X247778Y246164D01*
X247683Y246131D01*
X247586Y246102D01*
X247489Y246077D01*
X247390Y246056D01*
X247291Y246038D01*
X247191Y246025D01*
X247091Y246015D01*
X246991Y246009D01*
X246890Y246007D01*
X246789Y246009D01*
X246689Y246015D01*
X246589Y246025D01*
X246489Y246038D01*
X246390Y246056D01*
X246291Y246077D01*
X246194Y246102D01*
X246097Y246131D01*
X246002Y246164D01*
X245908Y246200D01*
X245815Y246240D01*
X245724Y246283D01*
X245635Y246330D01*
X245548Y246381D01*
X245463Y246434D01*
X245380Y246491D01*
X245299Y246551D01*
X245221Y246615D01*
X245145Y246681D01*
X245072Y246750D01*
X245001Y246822D01*
X244933Y246896D01*
X244869Y246974D01*
X244807Y247053D01*
X244748Y247135D01*
X244693Y247219D01*
X244641Y247306D01*
X244642Y247306D02*
X243343Y249555D01*
X252582Y243939D02*
X244411Y234724D01*
X256477Y237193D01*
X248503Y227636D02*
X250126Y224825D01*
X250125Y224825D02*
X250183Y224728D01*
X250245Y224633D01*
X250310Y224540D01*
X250378Y224450D01*
X250449Y224362D01*
X250524Y224276D01*
X250601Y224193D01*
X250681Y224113D01*
X250764Y224036D01*
X250850Y223961D01*
X250938Y223890D01*
X251028Y223822D01*
X251121Y223757D01*
X251216Y223695D01*
X251313Y223637D01*
X251412Y223582D01*
X251513Y223531D01*
X251616Y223483D01*
X251720Y223438D01*
X251826Y223398D01*
X251933Y223361D01*
X252041Y223328D01*
X252151Y223298D01*
X252261Y223273D01*
X252372Y223251D01*
X252484Y223234D01*
X252597Y223220D01*
X252710Y223210D01*
X252823Y223204D01*
X252936Y223202D01*
X253049Y223204D01*
X253162Y223210D01*
X253275Y223220D01*
X253388Y223234D01*
X253500Y223251D01*
X253611Y223273D01*
X253721Y223298D01*
X253831Y223328D01*
X253939Y223361D01*
X254046Y223398D01*
X254152Y223438D01*
X254256Y223483D01*
X254359Y223531D01*
X254460Y223582D01*
X254559Y223637D01*
X254656Y223695D01*
X254751Y223757D01*
X254844Y223822D01*
X254934Y223890D01*
X255022Y223961D01*
X255108Y224036D01*
X255191Y224113D01*
X255271Y224193D01*
X255348Y224276D01*
X255423Y224362D01*
X255494Y224450D01*
X255562Y224540D01*
X255627Y224633D01*
X255689Y224728D01*
X255747Y224825D01*
X255802Y224924D01*
X255853Y225025D01*
X255901Y225128D01*
X255946Y225232D01*
X255986Y225338D01*
X256023Y225445D01*
X256056Y225553D01*
X256086Y225663D01*
X256111Y225773D01*
X256133Y225884D01*
X256150Y225996D01*
X256164Y226109D01*
X256174Y226222D01*
X256180Y226335D01*
X256182Y226448D01*
X256180Y226561D01*
X256174Y226674D01*
X256164Y226787D01*
X256150Y226900D01*
X256133Y227012D01*
X256111Y227123D01*
X256086Y227233D01*
X256056Y227343D01*
X256023Y227451D01*
X255986Y227558D01*
X255946Y227664D01*
X255901Y227768D01*
X255853Y227871D01*
X255802Y227972D01*
X255747Y228071D01*
X260569Y230105D02*
X258621Y233478D01*
X260569Y230106D02*
X260618Y230017D01*
X260663Y229927D01*
X260705Y229836D01*
X260743Y229742D01*
X260777Y229648D01*
X260808Y229552D01*
X260835Y229455D01*
X260858Y229357D01*
X260878Y229258D01*
X260893Y229158D01*
X260905Y229058D01*
X260913Y228958D01*
X260917Y228857D01*
X260917Y228757D01*
X260913Y228656D01*
X260905Y228556D01*
X260893Y228456D01*
X260878Y228356D01*
X260858Y228257D01*
X260835Y228159D01*
X260808Y228062D01*
X260777Y227966D01*
X260743Y227872D01*
X260705Y227778D01*
X260663Y227687D01*
X260618Y227597D01*
X260569Y227509D01*
X260517Y227422D01*
X260462Y227338D01*
X260403Y227256D01*
X260341Y227177D01*
X260277Y227099D01*
X260209Y227025D01*
X260138Y226953D01*
X260065Y226884D01*
X259989Y226818D01*
X259911Y226754D01*
X259830Y226694D01*
X259747Y226637D01*
X259662Y226584D01*
X259575Y226533D01*
X259486Y226486D01*
X259395Y226443D01*
X259302Y226403D01*
X259208Y226367D01*
X259113Y226334D01*
X259016Y226305D01*
X258919Y226280D01*
X258820Y226259D01*
X258721Y226241D01*
X258621Y226228D01*
X258521Y226218D01*
X258421Y226212D01*
X258320Y226210D01*
X258219Y226212D01*
X258119Y226218D01*
X258019Y226228D01*
X257919Y226241D01*
X257820Y226259D01*
X257721Y226280D01*
X257624Y226305D01*
X257527Y226334D01*
X257432Y226367D01*
X257338Y226403D01*
X257245Y226443D01*
X257154Y226486D01*
X257065Y226533D01*
X256978Y226584D01*
X256893Y226637D01*
X256810Y226694D01*
X256729Y226754D01*
X256651Y226818D01*
X256575Y226884D01*
X256502Y226953D01*
X256431Y227025D01*
X256363Y227099D01*
X256299Y227177D01*
X256237Y227256D01*
X256178Y227338D01*
X256123Y227422D01*
X256071Y227509D01*
X256072Y227509D02*
X254773Y229757D01*
X206842Y331524D02*
X206842Y334770D01*
X206840Y334883D01*
X206834Y334996D01*
X206824Y335109D01*
X206810Y335222D01*
X206793Y335334D01*
X206771Y335445D01*
X206746Y335555D01*
X206716Y335665D01*
X206683Y335773D01*
X206646Y335880D01*
X206606Y335986D01*
X206561Y336090D01*
X206513Y336193D01*
X206462Y336294D01*
X206407Y336393D01*
X206349Y336490D01*
X206287Y336585D01*
X206222Y336678D01*
X206154Y336768D01*
X206083Y336856D01*
X206008Y336942D01*
X205931Y337025D01*
X205851Y337105D01*
X205768Y337182D01*
X205682Y337257D01*
X205594Y337328D01*
X205504Y337396D01*
X205411Y337461D01*
X205316Y337523D01*
X205219Y337581D01*
X205120Y337636D01*
X205019Y337687D01*
X204916Y337735D01*
X204812Y337780D01*
X204706Y337820D01*
X204599Y337857D01*
X204491Y337890D01*
X204381Y337920D01*
X204271Y337945D01*
X204160Y337967D01*
X204048Y337984D01*
X203935Y337998D01*
X203822Y338008D01*
X203709Y338014D01*
X203596Y338016D01*
X203483Y338014D01*
X203370Y338008D01*
X203257Y337998D01*
X203144Y337984D01*
X203032Y337967D01*
X202921Y337945D01*
X202811Y337920D01*
X202701Y337890D01*
X202593Y337857D01*
X202486Y337820D01*
X202380Y337780D01*
X202276Y337735D01*
X202173Y337687D01*
X202072Y337636D01*
X201973Y337581D01*
X201876Y337523D01*
X201781Y337461D01*
X201688Y337396D01*
X201598Y337328D01*
X201510Y337257D01*
X201424Y337182D01*
X201341Y337105D01*
X201261Y337025D01*
X201184Y336942D01*
X201109Y336856D01*
X201038Y336768D01*
X200970Y336678D01*
X200905Y336585D01*
X200843Y336490D01*
X200785Y336393D01*
X200730Y336294D01*
X200679Y336193D01*
X200631Y336090D01*
X200586Y335986D01*
X200546Y335880D01*
X200509Y335773D01*
X200476Y335665D01*
X200446Y335555D01*
X200421Y335445D01*
X200399Y335334D01*
X200382Y335222D01*
X200368Y335109D01*
X200358Y334996D01*
X200352Y334883D01*
X200350Y334770D01*
X195158Y335419D02*
X195158Y331524D01*
X195158Y335419D02*
X195160Y335520D01*
X195166Y335620D01*
X195176Y335720D01*
X195189Y335820D01*
X195207Y335919D01*
X195228Y336018D01*
X195253Y336115D01*
X195282Y336212D01*
X195315Y336307D01*
X195351Y336401D01*
X195391Y336493D01*
X195434Y336584D01*
X195481Y336673D01*
X195531Y336760D01*
X195585Y336846D01*
X195642Y336929D01*
X195702Y337009D01*
X195765Y337088D01*
X195832Y337164D01*
X195901Y337237D01*
X195973Y337307D01*
X196047Y337375D01*
X196124Y337440D01*
X196204Y337501D01*
X196286Y337560D01*
X196370Y337615D01*
X196456Y337667D01*
X196544Y337716D01*
X196634Y337761D01*
X196726Y337803D01*
X196819Y337841D01*
X196914Y337875D01*
X197009Y337906D01*
X197106Y337933D01*
X197204Y337956D01*
X197303Y337976D01*
X197403Y337991D01*
X197503Y338003D01*
X197603Y338011D01*
X197704Y338015D01*
X197804Y338015D01*
X197905Y338011D01*
X198005Y338003D01*
X198105Y337991D01*
X198205Y337976D01*
X198304Y337956D01*
X198402Y337933D01*
X198499Y337906D01*
X198594Y337875D01*
X198689Y337841D01*
X198782Y337803D01*
X198874Y337761D01*
X198964Y337716D01*
X199052Y337667D01*
X199138Y337615D01*
X199222Y337560D01*
X199304Y337501D01*
X199384Y337440D01*
X199461Y337375D01*
X199535Y337307D01*
X199607Y337237D01*
X199676Y337164D01*
X199743Y337088D01*
X199806Y337009D01*
X199866Y336929D01*
X199923Y336846D01*
X199977Y336760D01*
X200027Y336673D01*
X200074Y336584D01*
X200117Y336493D01*
X200157Y336401D01*
X200193Y336307D01*
X200226Y336212D01*
X200255Y336115D01*
X200280Y336018D01*
X200301Y335919D01*
X200319Y335820D01*
X200332Y335720D01*
X200342Y335620D01*
X200348Y335520D01*
X200350Y335419D01*
X200351Y335419D02*
X200351Y332823D01*
X195158Y342305D02*
X206842Y346200D01*
X195158Y350095D01*
X206842Y354384D02*
X206842Y357630D01*
X206840Y357743D01*
X206834Y357856D01*
X206824Y357969D01*
X206810Y358082D01*
X206793Y358194D01*
X206771Y358305D01*
X206746Y358415D01*
X206716Y358525D01*
X206683Y358633D01*
X206646Y358740D01*
X206606Y358846D01*
X206561Y358950D01*
X206513Y359053D01*
X206462Y359154D01*
X206407Y359253D01*
X206349Y359350D01*
X206287Y359445D01*
X206222Y359538D01*
X206154Y359628D01*
X206083Y359716D01*
X206008Y359802D01*
X205931Y359885D01*
X205851Y359965D01*
X205768Y360042D01*
X205682Y360117D01*
X205594Y360188D01*
X205504Y360256D01*
X205411Y360321D01*
X205316Y360383D01*
X205219Y360441D01*
X205120Y360496D01*
X205019Y360547D01*
X204916Y360595D01*
X204812Y360640D01*
X204706Y360680D01*
X204599Y360717D01*
X204491Y360750D01*
X204381Y360780D01*
X204271Y360805D01*
X204160Y360827D01*
X204048Y360844D01*
X203935Y360858D01*
X203822Y360868D01*
X203709Y360874D01*
X203596Y360876D01*
X203483Y360874D01*
X203370Y360868D01*
X203257Y360858D01*
X203144Y360844D01*
X203032Y360827D01*
X202921Y360805D01*
X202811Y360780D01*
X202701Y360750D01*
X202593Y360717D01*
X202486Y360680D01*
X202380Y360640D01*
X202276Y360595D01*
X202173Y360547D01*
X202072Y360496D01*
X201973Y360441D01*
X201876Y360383D01*
X201781Y360321D01*
X201688Y360256D01*
X201598Y360188D01*
X201510Y360117D01*
X201424Y360042D01*
X201341Y359965D01*
X201261Y359885D01*
X201184Y359802D01*
X201109Y359716D01*
X201038Y359628D01*
X200970Y359538D01*
X200905Y359445D01*
X200843Y359350D01*
X200785Y359253D01*
X200730Y359154D01*
X200679Y359053D01*
X200631Y358950D01*
X200586Y358846D01*
X200546Y358740D01*
X200509Y358633D01*
X200476Y358525D01*
X200446Y358415D01*
X200421Y358305D01*
X200399Y358194D01*
X200382Y358082D01*
X200368Y357969D01*
X200358Y357856D01*
X200352Y357743D01*
X200350Y357630D01*
X195158Y358279D02*
X195158Y354384D01*
X195158Y358279D02*
X195160Y358380D01*
X195166Y358480D01*
X195176Y358580D01*
X195189Y358680D01*
X195207Y358779D01*
X195228Y358878D01*
X195253Y358975D01*
X195282Y359072D01*
X195315Y359167D01*
X195351Y359261D01*
X195391Y359353D01*
X195434Y359444D01*
X195481Y359533D01*
X195531Y359620D01*
X195585Y359706D01*
X195642Y359789D01*
X195702Y359869D01*
X195765Y359948D01*
X195832Y360024D01*
X195901Y360097D01*
X195973Y360167D01*
X196047Y360235D01*
X196124Y360300D01*
X196204Y360361D01*
X196286Y360420D01*
X196370Y360475D01*
X196456Y360527D01*
X196544Y360576D01*
X196634Y360621D01*
X196726Y360663D01*
X196819Y360701D01*
X196914Y360735D01*
X197009Y360766D01*
X197106Y360793D01*
X197204Y360816D01*
X197303Y360836D01*
X197403Y360851D01*
X197503Y360863D01*
X197603Y360871D01*
X197704Y360875D01*
X197804Y360875D01*
X197905Y360871D01*
X198005Y360863D01*
X198105Y360851D01*
X198205Y360836D01*
X198304Y360816D01*
X198402Y360793D01*
X198499Y360766D01*
X198594Y360735D01*
X198689Y360701D01*
X198782Y360663D01*
X198874Y360621D01*
X198964Y360576D01*
X199052Y360527D01*
X199138Y360475D01*
X199222Y360420D01*
X199304Y360361D01*
X199384Y360300D01*
X199461Y360235D01*
X199535Y360167D01*
X199607Y360097D01*
X199676Y360024D01*
X199743Y359948D01*
X199806Y359869D01*
X199866Y359789D01*
X199923Y359706D01*
X199977Y359620D01*
X200027Y359533D01*
X200074Y359444D01*
X200117Y359353D01*
X200157Y359261D01*
X200193Y359167D01*
X200226Y359072D01*
X200255Y358975D01*
X200280Y358878D01*
X200301Y358779D01*
X200319Y358680D01*
X200332Y358580D01*
X200342Y358480D01*
X200348Y358380D01*
X200350Y358279D01*
X200351Y358279D02*
X200351Y355683D01*
D11*
X434839Y394745D02*
X434839Y412525D01*
X439778Y412525D01*
X439918Y412523D01*
X440057Y412517D01*
X440197Y412507D01*
X440336Y412493D01*
X440475Y412476D01*
X440613Y412454D01*
X440750Y412428D01*
X440887Y412399D01*
X441023Y412366D01*
X441157Y412329D01*
X441291Y412288D01*
X441423Y412243D01*
X441555Y412194D01*
X441684Y412142D01*
X441812Y412087D01*
X441939Y412027D01*
X442064Y411964D01*
X442187Y411898D01*
X442308Y411828D01*
X442427Y411755D01*
X442544Y411678D01*
X442658Y411598D01*
X442771Y411515D01*
X442881Y411429D01*
X442988Y411339D01*
X443093Y411247D01*
X443195Y411152D01*
X443295Y411054D01*
X443392Y410953D01*
X443486Y410849D01*
X443576Y410743D01*
X443664Y410634D01*
X443749Y410523D01*
X443830Y410409D01*
X443909Y410294D01*
X443984Y410176D01*
X444055Y410056D01*
X444123Y409933D01*
X444188Y409810D01*
X444249Y409684D01*
X444307Y409556D01*
X444361Y409428D01*
X444411Y409297D01*
X444458Y409165D01*
X444501Y409032D01*
X444540Y408898D01*
X444575Y408763D01*
X444606Y408627D01*
X444634Y408489D01*
X444657Y408352D01*
X444677Y408213D01*
X444693Y408074D01*
X444705Y407935D01*
X444713Y407796D01*
X444717Y407656D01*
X444717Y407516D01*
X444713Y407376D01*
X444705Y407237D01*
X444693Y407098D01*
X444677Y406959D01*
X444657Y406820D01*
X444634Y406683D01*
X444606Y406545D01*
X444575Y406409D01*
X444540Y406274D01*
X444501Y406140D01*
X444458Y406007D01*
X444411Y405875D01*
X444361Y405744D01*
X444307Y405616D01*
X444249Y405488D01*
X444188Y405362D01*
X444123Y405239D01*
X444055Y405117D01*
X443984Y404996D01*
X443909Y404878D01*
X443830Y404763D01*
X443749Y404649D01*
X443664Y404538D01*
X443576Y404429D01*
X443486Y404323D01*
X443392Y404219D01*
X443295Y404118D01*
X443195Y404020D01*
X443093Y403925D01*
X442988Y403833D01*
X442881Y403743D01*
X442771Y403657D01*
X442658Y403574D01*
X442544Y403494D01*
X442427Y403417D01*
X442308Y403344D01*
X442187Y403274D01*
X442064Y403208D01*
X441939Y403145D01*
X441812Y403085D01*
X441684Y403030D01*
X441555Y402978D01*
X441423Y402929D01*
X441291Y402884D01*
X441157Y402843D01*
X441023Y402806D01*
X440887Y402773D01*
X440750Y402744D01*
X440613Y402718D01*
X440475Y402696D01*
X440336Y402679D01*
X440197Y402665D01*
X440057Y402655D01*
X439918Y402649D01*
X439778Y402647D01*
X434839Y402647D01*
X450834Y408574D02*
X455773Y412525D01*
X455773Y394745D01*
X460711Y394745D02*
X450834Y394745D01*
X427854Y280510D02*
X427854Y262730D01*
X427854Y280510D02*
X432793Y280510D01*
X432933Y280508D01*
X433072Y280502D01*
X433212Y280492D01*
X433351Y280478D01*
X433490Y280461D01*
X433628Y280439D01*
X433765Y280413D01*
X433902Y280384D01*
X434038Y280351D01*
X434172Y280314D01*
X434306Y280273D01*
X434438Y280228D01*
X434570Y280179D01*
X434699Y280127D01*
X434827Y280072D01*
X434954Y280012D01*
X435079Y279949D01*
X435202Y279883D01*
X435323Y279813D01*
X435442Y279740D01*
X435559Y279663D01*
X435673Y279583D01*
X435786Y279500D01*
X435896Y279414D01*
X436003Y279324D01*
X436108Y279232D01*
X436210Y279137D01*
X436310Y279039D01*
X436407Y278938D01*
X436501Y278834D01*
X436591Y278728D01*
X436679Y278619D01*
X436764Y278508D01*
X436845Y278394D01*
X436924Y278279D01*
X436999Y278161D01*
X437070Y278041D01*
X437138Y277918D01*
X437203Y277795D01*
X437264Y277669D01*
X437322Y277541D01*
X437376Y277413D01*
X437426Y277282D01*
X437473Y277150D01*
X437516Y277017D01*
X437555Y276883D01*
X437590Y276748D01*
X437621Y276612D01*
X437649Y276474D01*
X437672Y276337D01*
X437692Y276198D01*
X437708Y276059D01*
X437720Y275920D01*
X437728Y275781D01*
X437732Y275641D01*
X437732Y275501D01*
X437728Y275361D01*
X437720Y275222D01*
X437708Y275083D01*
X437692Y274944D01*
X437672Y274805D01*
X437649Y274668D01*
X437621Y274530D01*
X437590Y274394D01*
X437555Y274259D01*
X437516Y274125D01*
X437473Y273992D01*
X437426Y273860D01*
X437376Y273729D01*
X437322Y273601D01*
X437264Y273473D01*
X437203Y273347D01*
X437138Y273224D01*
X437070Y273102D01*
X436999Y272981D01*
X436924Y272863D01*
X436845Y272748D01*
X436764Y272634D01*
X436679Y272523D01*
X436591Y272414D01*
X436501Y272308D01*
X436407Y272204D01*
X436310Y272103D01*
X436210Y272005D01*
X436108Y271910D01*
X436003Y271818D01*
X435896Y271728D01*
X435786Y271642D01*
X435673Y271559D01*
X435559Y271479D01*
X435442Y271402D01*
X435323Y271329D01*
X435202Y271259D01*
X435079Y271193D01*
X434954Y271130D01*
X434827Y271070D01*
X434699Y271015D01*
X434570Y270963D01*
X434438Y270914D01*
X434306Y270869D01*
X434172Y270828D01*
X434038Y270791D01*
X433902Y270758D01*
X433765Y270729D01*
X433628Y270703D01*
X433490Y270681D01*
X433351Y270664D01*
X433212Y270650D01*
X433072Y270640D01*
X432933Y270634D01*
X432793Y270632D01*
X427854Y270632D01*
X449281Y280510D02*
X449413Y280508D01*
X449544Y280502D01*
X449676Y280492D01*
X449807Y280479D01*
X449937Y280461D01*
X450067Y280440D01*
X450197Y280415D01*
X450325Y280386D01*
X450453Y280353D01*
X450579Y280316D01*
X450705Y280276D01*
X450829Y280232D01*
X450952Y280184D01*
X451073Y280133D01*
X451193Y280078D01*
X451311Y280020D01*
X451427Y279958D01*
X451541Y279892D01*
X451654Y279824D01*
X451764Y279752D01*
X451872Y279677D01*
X451978Y279598D01*
X452082Y279517D01*
X452183Y279432D01*
X452281Y279345D01*
X452377Y279254D01*
X452470Y279161D01*
X452561Y279065D01*
X452648Y278967D01*
X452733Y278866D01*
X452814Y278762D01*
X452893Y278656D01*
X452968Y278548D01*
X453040Y278438D01*
X453108Y278325D01*
X453174Y278211D01*
X453236Y278095D01*
X453294Y277977D01*
X453349Y277857D01*
X453400Y277736D01*
X453448Y277613D01*
X453492Y277489D01*
X453532Y277363D01*
X453569Y277237D01*
X453602Y277109D01*
X453631Y276981D01*
X453656Y276851D01*
X453677Y276721D01*
X453695Y276591D01*
X453708Y276460D01*
X453718Y276328D01*
X453724Y276197D01*
X453726Y276065D01*
X449281Y280510D02*
X449131Y280508D01*
X448982Y280502D01*
X448833Y280492D01*
X448684Y280479D01*
X448535Y280461D01*
X448387Y280440D01*
X448239Y280414D01*
X448093Y280385D01*
X447947Y280352D01*
X447802Y280315D01*
X447658Y280274D01*
X447515Y280230D01*
X447373Y280182D01*
X447233Y280130D01*
X447094Y280075D01*
X446956Y280016D01*
X446821Y279953D01*
X446686Y279887D01*
X446554Y279817D01*
X446424Y279744D01*
X446295Y279667D01*
X446168Y279587D01*
X446044Y279504D01*
X445922Y279418D01*
X445802Y279328D01*
X445685Y279235D01*
X445570Y279140D01*
X445457Y279041D01*
X445347Y278939D01*
X445240Y278835D01*
X445136Y278728D01*
X445034Y278618D01*
X444936Y278505D01*
X444840Y278390D01*
X444748Y278272D01*
X444658Y278152D01*
X444572Y278030D01*
X444489Y277906D01*
X444409Y277779D01*
X444333Y277651D01*
X444260Y277520D01*
X444190Y277387D01*
X444124Y277253D01*
X444062Y277117D01*
X444003Y276980D01*
X443947Y276841D01*
X443896Y276700D01*
X443848Y276559D01*
X452244Y272608D02*
X452340Y272701D01*
X452432Y272797D01*
X452522Y272896D01*
X452609Y272997D01*
X452694Y273100D01*
X452775Y273205D01*
X452853Y273313D01*
X452928Y273423D01*
X453001Y273535D01*
X453070Y273649D01*
X453136Y273765D01*
X453198Y273883D01*
X453257Y274002D01*
X453313Y274123D01*
X453366Y274246D01*
X453415Y274370D01*
X453460Y274495D01*
X453503Y274622D01*
X453541Y274749D01*
X453576Y274878D01*
X453607Y275007D01*
X453635Y275138D01*
X453659Y275269D01*
X453680Y275401D01*
X453696Y275533D01*
X453709Y275666D01*
X453719Y275799D01*
X453724Y275932D01*
X453726Y276065D01*
X452245Y272608D02*
X443849Y262730D01*
X453726Y262730D01*
X239944Y262730D02*
X239944Y280510D01*
X244883Y280510D01*
X245023Y280508D01*
X245162Y280502D01*
X245302Y280492D01*
X245441Y280478D01*
X245580Y280461D01*
X245718Y280439D01*
X245855Y280413D01*
X245992Y280384D01*
X246128Y280351D01*
X246262Y280314D01*
X246396Y280273D01*
X246528Y280228D01*
X246660Y280179D01*
X246789Y280127D01*
X246917Y280072D01*
X247044Y280012D01*
X247169Y279949D01*
X247292Y279883D01*
X247413Y279813D01*
X247532Y279740D01*
X247649Y279663D01*
X247763Y279583D01*
X247876Y279500D01*
X247986Y279414D01*
X248093Y279324D01*
X248198Y279232D01*
X248300Y279137D01*
X248400Y279039D01*
X248497Y278938D01*
X248591Y278834D01*
X248681Y278728D01*
X248769Y278619D01*
X248854Y278508D01*
X248935Y278394D01*
X249014Y278279D01*
X249089Y278161D01*
X249160Y278041D01*
X249228Y277918D01*
X249293Y277795D01*
X249354Y277669D01*
X249412Y277541D01*
X249466Y277413D01*
X249516Y277282D01*
X249563Y277150D01*
X249606Y277017D01*
X249645Y276883D01*
X249680Y276748D01*
X249711Y276612D01*
X249739Y276474D01*
X249762Y276337D01*
X249782Y276198D01*
X249798Y276059D01*
X249810Y275920D01*
X249818Y275781D01*
X249822Y275641D01*
X249822Y275501D01*
X249818Y275361D01*
X249810Y275222D01*
X249798Y275083D01*
X249782Y274944D01*
X249762Y274805D01*
X249739Y274668D01*
X249711Y274530D01*
X249680Y274394D01*
X249645Y274259D01*
X249606Y274125D01*
X249563Y273992D01*
X249516Y273860D01*
X249466Y273729D01*
X249412Y273601D01*
X249354Y273473D01*
X249293Y273347D01*
X249228Y273224D01*
X249160Y273102D01*
X249089Y272981D01*
X249014Y272863D01*
X248935Y272748D01*
X248854Y272634D01*
X248769Y272523D01*
X248681Y272414D01*
X248591Y272308D01*
X248497Y272204D01*
X248400Y272103D01*
X248300Y272005D01*
X248198Y271910D01*
X248093Y271818D01*
X247986Y271728D01*
X247876Y271642D01*
X247763Y271559D01*
X247649Y271479D01*
X247532Y271402D01*
X247413Y271329D01*
X247292Y271259D01*
X247169Y271193D01*
X247044Y271130D01*
X246917Y271070D01*
X246789Y271015D01*
X246660Y270963D01*
X246528Y270914D01*
X246396Y270869D01*
X246262Y270828D01*
X246128Y270791D01*
X245992Y270758D01*
X245855Y270729D01*
X245718Y270703D01*
X245580Y270681D01*
X245441Y270664D01*
X245302Y270650D01*
X245162Y270640D01*
X245023Y270634D01*
X244883Y270632D01*
X239944Y270632D01*
X255939Y262730D02*
X260878Y262730D01*
X261018Y262732D01*
X261157Y262738D01*
X261297Y262748D01*
X261436Y262762D01*
X261575Y262779D01*
X261713Y262801D01*
X261850Y262827D01*
X261987Y262856D01*
X262123Y262889D01*
X262257Y262926D01*
X262391Y262967D01*
X262523Y263012D01*
X262655Y263061D01*
X262784Y263113D01*
X262912Y263168D01*
X263039Y263228D01*
X263164Y263291D01*
X263287Y263357D01*
X263408Y263427D01*
X263527Y263500D01*
X263644Y263577D01*
X263758Y263657D01*
X263871Y263740D01*
X263981Y263826D01*
X264088Y263916D01*
X264193Y264008D01*
X264295Y264103D01*
X264395Y264201D01*
X264492Y264302D01*
X264586Y264406D01*
X264676Y264512D01*
X264764Y264621D01*
X264849Y264732D01*
X264930Y264846D01*
X265009Y264961D01*
X265084Y265079D01*
X265155Y265200D01*
X265223Y265322D01*
X265288Y265445D01*
X265349Y265571D01*
X265407Y265699D01*
X265461Y265827D01*
X265511Y265958D01*
X265558Y266090D01*
X265601Y266223D01*
X265640Y266357D01*
X265675Y266492D01*
X265706Y266628D01*
X265734Y266766D01*
X265757Y266903D01*
X265777Y267042D01*
X265793Y267181D01*
X265805Y267320D01*
X265813Y267459D01*
X265817Y267599D01*
X265817Y267739D01*
X265813Y267879D01*
X265805Y268018D01*
X265793Y268157D01*
X265777Y268296D01*
X265757Y268435D01*
X265734Y268572D01*
X265706Y268710D01*
X265675Y268846D01*
X265640Y268981D01*
X265601Y269115D01*
X265558Y269248D01*
X265511Y269380D01*
X265461Y269511D01*
X265407Y269639D01*
X265349Y269767D01*
X265288Y269893D01*
X265223Y270016D01*
X265155Y270139D01*
X265084Y270259D01*
X265009Y270377D01*
X264930Y270492D01*
X264849Y270606D01*
X264764Y270717D01*
X264676Y270826D01*
X264586Y270932D01*
X264492Y271036D01*
X264395Y271137D01*
X264295Y271235D01*
X264193Y271330D01*
X264088Y271422D01*
X263981Y271512D01*
X263871Y271598D01*
X263758Y271681D01*
X263644Y271761D01*
X263527Y271838D01*
X263408Y271911D01*
X263287Y271981D01*
X263164Y272047D01*
X263039Y272110D01*
X262912Y272170D01*
X262784Y272225D01*
X262655Y272277D01*
X262523Y272326D01*
X262391Y272371D01*
X262257Y272412D01*
X262123Y272449D01*
X261987Y272482D01*
X261850Y272511D01*
X261713Y272537D01*
X261575Y272559D01*
X261436Y272576D01*
X261297Y272590D01*
X261157Y272600D01*
X261018Y272606D01*
X260878Y272608D01*
X261865Y280510D02*
X255939Y280510D01*
X261865Y280510D02*
X261989Y280508D01*
X262113Y280502D01*
X262237Y280492D01*
X262360Y280479D01*
X262483Y280461D01*
X262605Y280440D01*
X262727Y280415D01*
X262848Y280386D01*
X262967Y280353D01*
X263086Y280317D01*
X263203Y280276D01*
X263319Y280233D01*
X263434Y280185D01*
X263547Y280134D01*
X263659Y280079D01*
X263768Y280021D01*
X263876Y279960D01*
X263982Y279895D01*
X264086Y279827D01*
X264187Y279755D01*
X264287Y279681D01*
X264383Y279603D01*
X264478Y279523D01*
X264570Y279439D01*
X264659Y279353D01*
X264745Y279264D01*
X264829Y279172D01*
X264909Y279077D01*
X264987Y278981D01*
X265061Y278881D01*
X265133Y278780D01*
X265201Y278676D01*
X265266Y278570D01*
X265327Y278462D01*
X265385Y278353D01*
X265440Y278241D01*
X265491Y278128D01*
X265539Y278013D01*
X265582Y277897D01*
X265623Y277780D01*
X265659Y277661D01*
X265692Y277542D01*
X265721Y277421D01*
X265746Y277299D01*
X265767Y277177D01*
X265785Y277054D01*
X265798Y276931D01*
X265808Y276807D01*
X265814Y276683D01*
X265816Y276559D01*
X265814Y276435D01*
X265808Y276311D01*
X265798Y276187D01*
X265785Y276064D01*
X265767Y275941D01*
X265746Y275819D01*
X265721Y275697D01*
X265692Y275576D01*
X265659Y275457D01*
X265623Y275338D01*
X265582Y275221D01*
X265539Y275105D01*
X265491Y274990D01*
X265440Y274877D01*
X265385Y274765D01*
X265327Y274656D01*
X265266Y274548D01*
X265201Y274442D01*
X265133Y274338D01*
X265061Y274237D01*
X264987Y274137D01*
X264909Y274041D01*
X264829Y273946D01*
X264745Y273854D01*
X264659Y273765D01*
X264570Y273679D01*
X264478Y273595D01*
X264383Y273515D01*
X264287Y273437D01*
X264187Y273363D01*
X264086Y273291D01*
X263982Y273223D01*
X263876Y273158D01*
X263768Y273097D01*
X263659Y273039D01*
X263547Y272984D01*
X263434Y272933D01*
X263319Y272885D01*
X263203Y272842D01*
X263086Y272801D01*
X262967Y272765D01*
X262848Y272732D01*
X262727Y272703D01*
X262605Y272678D01*
X262483Y272657D01*
X262360Y272639D01*
X262237Y272626D01*
X262113Y272616D01*
X261989Y272610D01*
X261865Y272608D01*
X257914Y272608D01*
X234864Y396015D02*
X234864Y413795D01*
X239803Y413795D01*
X239943Y413793D01*
X240082Y413787D01*
X240222Y413777D01*
X240361Y413763D01*
X240500Y413746D01*
X240638Y413724D01*
X240775Y413698D01*
X240912Y413669D01*
X241048Y413636D01*
X241182Y413599D01*
X241316Y413558D01*
X241448Y413513D01*
X241580Y413464D01*
X241709Y413412D01*
X241837Y413357D01*
X241964Y413297D01*
X242089Y413234D01*
X242212Y413168D01*
X242333Y413098D01*
X242452Y413025D01*
X242569Y412948D01*
X242683Y412868D01*
X242796Y412785D01*
X242906Y412699D01*
X243013Y412609D01*
X243118Y412517D01*
X243220Y412422D01*
X243320Y412324D01*
X243417Y412223D01*
X243511Y412119D01*
X243601Y412013D01*
X243689Y411904D01*
X243774Y411793D01*
X243855Y411679D01*
X243934Y411564D01*
X244009Y411446D01*
X244080Y411326D01*
X244148Y411203D01*
X244213Y411080D01*
X244274Y410954D01*
X244332Y410826D01*
X244386Y410698D01*
X244436Y410567D01*
X244483Y410435D01*
X244526Y410302D01*
X244565Y410168D01*
X244600Y410033D01*
X244631Y409897D01*
X244659Y409759D01*
X244682Y409622D01*
X244702Y409483D01*
X244718Y409344D01*
X244730Y409205D01*
X244738Y409066D01*
X244742Y408926D01*
X244742Y408786D01*
X244738Y408646D01*
X244730Y408507D01*
X244718Y408368D01*
X244702Y408229D01*
X244682Y408090D01*
X244659Y407953D01*
X244631Y407815D01*
X244600Y407679D01*
X244565Y407544D01*
X244526Y407410D01*
X244483Y407277D01*
X244436Y407145D01*
X244386Y407014D01*
X244332Y406886D01*
X244274Y406758D01*
X244213Y406632D01*
X244148Y406509D01*
X244080Y406387D01*
X244009Y406266D01*
X243934Y406148D01*
X243855Y406033D01*
X243774Y405919D01*
X243689Y405808D01*
X243601Y405699D01*
X243511Y405593D01*
X243417Y405489D01*
X243320Y405388D01*
X243220Y405290D01*
X243118Y405195D01*
X243013Y405103D01*
X242906Y405013D01*
X242796Y404927D01*
X242683Y404844D01*
X242569Y404764D01*
X242452Y404687D01*
X242333Y404614D01*
X242212Y404544D01*
X242089Y404478D01*
X241964Y404415D01*
X241837Y404355D01*
X241709Y404300D01*
X241580Y404248D01*
X241448Y404199D01*
X241316Y404154D01*
X241182Y404113D01*
X241048Y404076D01*
X240912Y404043D01*
X240775Y404014D01*
X240638Y403988D01*
X240500Y403966D01*
X240361Y403949D01*
X240222Y403935D01*
X240082Y403925D01*
X239943Y403919D01*
X239803Y403917D01*
X234864Y403917D01*
X250859Y399966D02*
X254810Y413795D01*
X250859Y399966D02*
X260736Y399966D01*
X257773Y403917D02*
X257773Y396015D01*
D12*
X471805Y328549D02*
X471805Y313055D01*
X471805Y328549D02*
X476109Y328549D01*
X476239Y328547D01*
X476369Y328541D01*
X476499Y328531D01*
X476628Y328518D01*
X476757Y328500D01*
X476885Y328479D01*
X477012Y328453D01*
X477139Y328424D01*
X477265Y328391D01*
X477389Y328354D01*
X477513Y328314D01*
X477635Y328269D01*
X477756Y328221D01*
X477875Y328170D01*
X477993Y328115D01*
X478109Y328056D01*
X478223Y327994D01*
X478336Y327928D01*
X478446Y327859D01*
X478554Y327787D01*
X478660Y327712D01*
X478763Y327633D01*
X478864Y327551D01*
X478963Y327467D01*
X479059Y327379D01*
X479152Y327288D01*
X479243Y327195D01*
X479331Y327099D01*
X479415Y327000D01*
X479497Y326899D01*
X479576Y326796D01*
X479651Y326690D01*
X479723Y326582D01*
X479792Y326472D01*
X479858Y326359D01*
X479920Y326245D01*
X479979Y326129D01*
X480034Y326011D01*
X480085Y325892D01*
X480133Y325771D01*
X480178Y325649D01*
X480218Y325525D01*
X480255Y325401D01*
X480288Y325275D01*
X480317Y325148D01*
X480343Y325021D01*
X480364Y324893D01*
X480382Y324764D01*
X480395Y324635D01*
X480405Y324505D01*
X480411Y324375D01*
X480413Y324245D01*
X480413Y317359D01*
X480411Y317229D01*
X480405Y317099D01*
X480395Y316969D01*
X480382Y316840D01*
X480364Y316711D01*
X480343Y316583D01*
X480317Y316456D01*
X480288Y316329D01*
X480255Y316203D01*
X480218Y316079D01*
X480178Y315955D01*
X480133Y315833D01*
X480085Y315712D01*
X480034Y315593D01*
X479979Y315475D01*
X479920Y315359D01*
X479858Y315245D01*
X479792Y315132D01*
X479723Y315022D01*
X479651Y314914D01*
X479576Y314808D01*
X479497Y314705D01*
X479415Y314604D01*
X479331Y314505D01*
X479243Y314409D01*
X479152Y314316D01*
X479059Y314225D01*
X478963Y314137D01*
X478864Y314053D01*
X478763Y313971D01*
X478660Y313892D01*
X478554Y313817D01*
X478446Y313745D01*
X478336Y313676D01*
X478223Y313610D01*
X478109Y313548D01*
X477993Y313489D01*
X477875Y313434D01*
X477756Y313383D01*
X477635Y313335D01*
X477513Y313290D01*
X477389Y313250D01*
X477265Y313213D01*
X477139Y313180D01*
X477012Y313151D01*
X476885Y313125D01*
X476757Y313104D01*
X476628Y313086D01*
X476499Y313073D01*
X476369Y313063D01*
X476239Y313057D01*
X476109Y313055D01*
X471805Y313055D01*
D10*
X220624Y312529D02*
X218676Y312529D01*
X220624Y312529D02*
X220624Y306038D01*
X216729Y306038D01*
X216630Y306040D01*
X216530Y306046D01*
X216431Y306055D01*
X216333Y306068D01*
X216235Y306085D01*
X216137Y306106D01*
X216041Y306131D01*
X215946Y306159D01*
X215852Y306191D01*
X215759Y306226D01*
X215667Y306265D01*
X215577Y306308D01*
X215489Y306353D01*
X215402Y306403D01*
X215318Y306455D01*
X215235Y306511D01*
X215155Y306569D01*
X215077Y306631D01*
X215002Y306696D01*
X214929Y306764D01*
X214859Y306834D01*
X214791Y306907D01*
X214726Y306982D01*
X214664Y307060D01*
X214606Y307140D01*
X214550Y307223D01*
X214498Y307307D01*
X214448Y307394D01*
X214403Y307482D01*
X214360Y307572D01*
X214321Y307664D01*
X214286Y307757D01*
X214254Y307851D01*
X214226Y307946D01*
X214201Y308042D01*
X214180Y308140D01*
X214163Y308238D01*
X214150Y308336D01*
X214141Y308435D01*
X214135Y308535D01*
X214133Y308634D01*
X214133Y315126D01*
X214135Y315225D01*
X214141Y315325D01*
X214150Y315424D01*
X214163Y315522D01*
X214180Y315620D01*
X214201Y315718D01*
X214226Y315814D01*
X214254Y315909D01*
X214286Y316003D01*
X214321Y316096D01*
X214360Y316188D01*
X214403Y316278D01*
X214448Y316366D01*
X214498Y316453D01*
X214550Y316537D01*
X214606Y316620D01*
X214664Y316700D01*
X214726Y316778D01*
X214791Y316853D01*
X214859Y316926D01*
X214929Y316996D01*
X215002Y317064D01*
X215077Y317129D01*
X215155Y317191D01*
X215235Y317249D01*
X215318Y317305D01*
X215402Y317357D01*
X215489Y317407D01*
X215577Y317452D01*
X215667Y317495D01*
X215759Y317534D01*
X215851Y317569D01*
X215946Y317601D01*
X216041Y317629D01*
X216137Y317654D01*
X216235Y317675D01*
X216333Y317692D01*
X216431Y317705D01*
X216530Y317714D01*
X216630Y317720D01*
X216729Y317722D01*
X220624Y317722D01*
X226324Y317722D02*
X226324Y306038D01*
X232816Y306038D02*
X226324Y317722D01*
X232816Y317722D02*
X232816Y306038D01*
X238516Y306038D02*
X238516Y317722D01*
X241762Y317722D01*
X241875Y317720D01*
X241988Y317714D01*
X242101Y317704D01*
X242214Y317690D01*
X242326Y317673D01*
X242437Y317651D01*
X242547Y317626D01*
X242657Y317596D01*
X242765Y317563D01*
X242872Y317526D01*
X242978Y317486D01*
X243082Y317441D01*
X243185Y317393D01*
X243286Y317342D01*
X243385Y317287D01*
X243482Y317229D01*
X243577Y317167D01*
X243670Y317102D01*
X243760Y317034D01*
X243848Y316963D01*
X243934Y316888D01*
X244017Y316811D01*
X244097Y316731D01*
X244174Y316648D01*
X244249Y316562D01*
X244320Y316474D01*
X244388Y316384D01*
X244453Y316291D01*
X244515Y316196D01*
X244573Y316099D01*
X244628Y316000D01*
X244679Y315899D01*
X244727Y315796D01*
X244772Y315692D01*
X244812Y315586D01*
X244849Y315479D01*
X244882Y315371D01*
X244912Y315261D01*
X244937Y315151D01*
X244959Y315040D01*
X244976Y314928D01*
X244990Y314815D01*
X245000Y314702D01*
X245006Y314589D01*
X245008Y314476D01*
X245008Y309284D01*
X245006Y309171D01*
X245000Y309058D01*
X244990Y308945D01*
X244976Y308832D01*
X244959Y308720D01*
X244937Y308609D01*
X244912Y308499D01*
X244882Y308389D01*
X244849Y308281D01*
X244812Y308174D01*
X244772Y308068D01*
X244727Y307964D01*
X244679Y307861D01*
X244628Y307760D01*
X244573Y307661D01*
X244515Y307564D01*
X244453Y307469D01*
X244388Y307376D01*
X244320Y307286D01*
X244249Y307198D01*
X244174Y307112D01*
X244097Y307029D01*
X244017Y306949D01*
X243934Y306872D01*
X243848Y306797D01*
X243760Y306726D01*
X243670Y306658D01*
X243577Y306593D01*
X243482Y306531D01*
X243385Y306473D01*
X243286Y306418D01*
X243185Y306367D01*
X243082Y306319D01*
X242978Y306274D01*
X242872Y306234D01*
X242765Y306197D01*
X242657Y306164D01*
X242547Y306134D01*
X242437Y306109D01*
X242326Y306087D01*
X242214Y306070D01*
X242101Y306056D01*
X241988Y306046D01*
X241875Y306040D01*
X241762Y306038D01*
X238516Y306038D01*
X434604Y299886D02*
X437850Y302482D01*
X437850Y290798D01*
X434604Y290798D02*
X441096Y290798D01*
X245445Y289528D02*
X242199Y289528D01*
X245445Y289528D02*
X245558Y289530D01*
X245671Y289536D01*
X245784Y289546D01*
X245897Y289560D01*
X246009Y289577D01*
X246120Y289599D01*
X246230Y289624D01*
X246340Y289654D01*
X246448Y289687D01*
X246555Y289724D01*
X246661Y289764D01*
X246765Y289809D01*
X246868Y289857D01*
X246969Y289908D01*
X247068Y289963D01*
X247165Y290021D01*
X247260Y290083D01*
X247353Y290148D01*
X247443Y290216D01*
X247531Y290287D01*
X247617Y290362D01*
X247700Y290439D01*
X247780Y290519D01*
X247857Y290602D01*
X247932Y290688D01*
X248003Y290776D01*
X248071Y290866D01*
X248136Y290959D01*
X248198Y291054D01*
X248256Y291151D01*
X248311Y291250D01*
X248362Y291351D01*
X248410Y291454D01*
X248455Y291558D01*
X248495Y291664D01*
X248532Y291771D01*
X248565Y291879D01*
X248595Y291989D01*
X248620Y292099D01*
X248642Y292210D01*
X248659Y292322D01*
X248673Y292435D01*
X248683Y292548D01*
X248689Y292661D01*
X248691Y292774D01*
X248689Y292887D01*
X248683Y293000D01*
X248673Y293113D01*
X248659Y293226D01*
X248642Y293338D01*
X248620Y293449D01*
X248595Y293559D01*
X248565Y293669D01*
X248532Y293777D01*
X248495Y293884D01*
X248455Y293990D01*
X248410Y294094D01*
X248362Y294197D01*
X248311Y294298D01*
X248256Y294397D01*
X248198Y294494D01*
X248136Y294589D01*
X248071Y294682D01*
X248003Y294772D01*
X247932Y294860D01*
X247857Y294946D01*
X247780Y295029D01*
X247700Y295109D01*
X247617Y295186D01*
X247531Y295261D01*
X247443Y295332D01*
X247353Y295400D01*
X247260Y295465D01*
X247165Y295527D01*
X247068Y295585D01*
X246969Y295640D01*
X246868Y295691D01*
X246765Y295739D01*
X246661Y295784D01*
X246555Y295824D01*
X246448Y295861D01*
X246340Y295894D01*
X246230Y295924D01*
X246120Y295949D01*
X246009Y295971D01*
X245897Y295988D01*
X245784Y296002D01*
X245671Y296012D01*
X245558Y296018D01*
X245445Y296020D01*
X246094Y301212D02*
X242199Y301212D01*
X246094Y301212D02*
X246195Y301210D01*
X246295Y301204D01*
X246395Y301194D01*
X246495Y301181D01*
X246594Y301163D01*
X246693Y301142D01*
X246790Y301117D01*
X246887Y301088D01*
X246982Y301055D01*
X247076Y301019D01*
X247168Y300979D01*
X247259Y300936D01*
X247348Y300889D01*
X247435Y300839D01*
X247521Y300785D01*
X247604Y300728D01*
X247684Y300668D01*
X247763Y300605D01*
X247839Y300538D01*
X247912Y300469D01*
X247982Y300397D01*
X248050Y300323D01*
X248115Y300246D01*
X248176Y300166D01*
X248235Y300084D01*
X248290Y300000D01*
X248342Y299914D01*
X248391Y299826D01*
X248436Y299736D01*
X248478Y299644D01*
X248516Y299551D01*
X248550Y299456D01*
X248581Y299361D01*
X248608Y299264D01*
X248631Y299166D01*
X248651Y299067D01*
X248666Y298967D01*
X248678Y298867D01*
X248686Y298767D01*
X248690Y298666D01*
X248690Y298566D01*
X248686Y298465D01*
X248678Y298365D01*
X248666Y298265D01*
X248651Y298165D01*
X248631Y298066D01*
X248608Y297968D01*
X248581Y297871D01*
X248550Y297776D01*
X248516Y297681D01*
X248478Y297588D01*
X248436Y297496D01*
X248391Y297406D01*
X248342Y297318D01*
X248290Y297232D01*
X248235Y297148D01*
X248176Y297066D01*
X248115Y296986D01*
X248050Y296909D01*
X247982Y296835D01*
X247912Y296763D01*
X247839Y296694D01*
X247763Y296627D01*
X247684Y296564D01*
X247604Y296504D01*
X247521Y296447D01*
X247435Y296393D01*
X247348Y296343D01*
X247259Y296296D01*
X247168Y296253D01*
X247076Y296213D01*
X246982Y296177D01*
X246887Y296144D01*
X246790Y296115D01*
X246693Y296090D01*
X246594Y296069D01*
X246495Y296051D01*
X246395Y296038D01*
X246295Y296028D01*
X246195Y296022D01*
X246094Y296020D01*
X246094Y296019D02*
X243498Y296019D01*
X257200Y301212D02*
X257307Y301210D01*
X257413Y301204D01*
X257519Y301194D01*
X257625Y301181D01*
X257731Y301163D01*
X257835Y301142D01*
X257939Y301117D01*
X258042Y301088D01*
X258143Y301056D01*
X258243Y301019D01*
X258342Y300979D01*
X258440Y300936D01*
X258536Y300889D01*
X258630Y300838D01*
X258722Y300784D01*
X258812Y300727D01*
X258900Y300667D01*
X258985Y300603D01*
X259068Y300536D01*
X259149Y300466D01*
X259227Y300394D01*
X259303Y300318D01*
X259375Y300240D01*
X259445Y300159D01*
X259512Y300076D01*
X259576Y299991D01*
X259636Y299903D01*
X259693Y299813D01*
X259747Y299721D01*
X259798Y299627D01*
X259845Y299531D01*
X259888Y299433D01*
X259928Y299334D01*
X259965Y299234D01*
X259997Y299133D01*
X260026Y299030D01*
X260051Y298926D01*
X260072Y298822D01*
X260090Y298716D01*
X260103Y298610D01*
X260113Y298504D01*
X260119Y298398D01*
X260121Y298291D01*
X257200Y301212D02*
X257079Y301210D01*
X256958Y301204D01*
X256838Y301194D01*
X256717Y301181D01*
X256598Y301163D01*
X256478Y301142D01*
X256360Y301117D01*
X256243Y301088D01*
X256126Y301055D01*
X256011Y301019D01*
X255897Y300978D01*
X255784Y300935D01*
X255672Y300887D01*
X255563Y300836D01*
X255455Y300781D01*
X255348Y300723D01*
X255244Y300662D01*
X255142Y300597D01*
X255042Y300529D01*
X254944Y300458D01*
X254848Y300384D01*
X254755Y300307D01*
X254665Y300226D01*
X254577Y300143D01*
X254492Y300057D01*
X254409Y299968D01*
X254330Y299877D01*
X254253Y299783D01*
X254180Y299687D01*
X254110Y299589D01*
X254043Y299488D01*
X253979Y299385D01*
X253919Y299280D01*
X253862Y299173D01*
X253808Y299065D01*
X253758Y298955D01*
X253712Y298843D01*
X253669Y298730D01*
X253630Y298615D01*
X259147Y296019D02*
X259226Y296096D01*
X259302Y296177D01*
X259375Y296260D01*
X259445Y296345D01*
X259512Y296433D01*
X259576Y296523D01*
X259636Y296615D01*
X259693Y296710D01*
X259747Y296806D01*
X259798Y296904D01*
X259845Y297004D01*
X259889Y297106D01*
X259929Y297209D01*
X259965Y297313D01*
X259997Y297419D01*
X260026Y297525D01*
X260051Y297633D01*
X260073Y297741D01*
X260090Y297851D01*
X260104Y297960D01*
X260113Y298070D01*
X260119Y298181D01*
X260121Y298291D01*
X259147Y296019D02*
X253629Y289528D01*
X260121Y289528D01*
D12*
X475248Y338455D02*
X478691Y338455D01*
X475248Y338455D02*
X475133Y338457D01*
X475018Y338463D01*
X474903Y338472D01*
X474789Y338486D01*
X474675Y338503D01*
X474562Y338524D01*
X474450Y338549D01*
X474338Y338577D01*
X474228Y338610D01*
X474119Y338646D01*
X474011Y338685D01*
X473904Y338728D01*
X473799Y338775D01*
X473695Y338825D01*
X473593Y338879D01*
X473493Y338936D01*
X473395Y338996D01*
X473299Y339059D01*
X473206Y339126D01*
X473114Y339196D01*
X473025Y339269D01*
X472938Y339344D01*
X472854Y339423D01*
X472773Y339504D01*
X472694Y339588D01*
X472619Y339675D01*
X472546Y339764D01*
X472476Y339856D01*
X472409Y339949D01*
X472346Y340045D01*
X472286Y340143D01*
X472229Y340243D01*
X472175Y340345D01*
X472125Y340449D01*
X472078Y340554D01*
X472035Y340661D01*
X471996Y340769D01*
X471960Y340878D01*
X471927Y340988D01*
X471899Y341100D01*
X471874Y341212D01*
X471853Y341325D01*
X471836Y341439D01*
X471822Y341553D01*
X471813Y341668D01*
X471807Y341783D01*
X471805Y341898D01*
X471805Y350506D01*
X471807Y350621D01*
X471813Y350736D01*
X471822Y350851D01*
X471836Y350965D01*
X471853Y351079D01*
X471874Y351192D01*
X471899Y351304D01*
X471927Y351416D01*
X471960Y351526D01*
X471996Y351635D01*
X472035Y351743D01*
X472078Y351850D01*
X472125Y351955D01*
X472175Y352059D01*
X472229Y352161D01*
X472286Y352261D01*
X472346Y352359D01*
X472409Y352455D01*
X472476Y352548D01*
X472546Y352640D01*
X472619Y352729D01*
X472694Y352816D01*
X472773Y352900D01*
X472854Y352981D01*
X472938Y353059D01*
X473025Y353135D01*
X473114Y353208D01*
X473206Y353278D01*
X473299Y353345D01*
X473395Y353408D01*
X473493Y353468D01*
X473593Y353525D01*
X473695Y353579D01*
X473799Y353629D01*
X473904Y353676D01*
X474011Y353719D01*
X474119Y353758D01*
X474228Y353794D01*
X474338Y353827D01*
X474450Y353855D01*
X474562Y353880D01*
X474675Y353901D01*
X474789Y353918D01*
X474903Y353932D01*
X475018Y353941D01*
X475133Y353947D01*
X475248Y353949D01*
X478691Y353949D01*
X471805Y363855D02*
X471805Y379349D01*
X476109Y379349D01*
X476239Y379347D01*
X476369Y379341D01*
X476499Y379331D01*
X476628Y379318D01*
X476757Y379300D01*
X476885Y379279D01*
X477012Y379253D01*
X477139Y379224D01*
X477265Y379191D01*
X477389Y379154D01*
X477513Y379114D01*
X477635Y379069D01*
X477756Y379021D01*
X477875Y378970D01*
X477993Y378915D01*
X478109Y378856D01*
X478223Y378794D01*
X478336Y378728D01*
X478446Y378659D01*
X478554Y378587D01*
X478660Y378512D01*
X478763Y378433D01*
X478864Y378351D01*
X478963Y378267D01*
X479059Y378179D01*
X479152Y378088D01*
X479243Y377995D01*
X479331Y377899D01*
X479415Y377800D01*
X479497Y377699D01*
X479576Y377596D01*
X479651Y377490D01*
X479723Y377382D01*
X479792Y377272D01*
X479858Y377159D01*
X479920Y377045D01*
X479979Y376929D01*
X480034Y376811D01*
X480085Y376692D01*
X480133Y376571D01*
X480178Y376449D01*
X480218Y376325D01*
X480255Y376201D01*
X480288Y376075D01*
X480317Y375948D01*
X480343Y375821D01*
X480364Y375693D01*
X480382Y375564D01*
X480395Y375435D01*
X480405Y375305D01*
X480411Y375175D01*
X480413Y375045D01*
X480411Y374915D01*
X480405Y374785D01*
X480395Y374655D01*
X480382Y374526D01*
X480364Y374397D01*
X480343Y374269D01*
X480317Y374142D01*
X480288Y374015D01*
X480255Y373889D01*
X480218Y373765D01*
X480178Y373641D01*
X480133Y373519D01*
X480085Y373398D01*
X480034Y373279D01*
X479979Y373161D01*
X479920Y373045D01*
X479858Y372931D01*
X479792Y372818D01*
X479723Y372708D01*
X479651Y372600D01*
X479576Y372494D01*
X479497Y372391D01*
X479415Y372290D01*
X479331Y372191D01*
X479243Y372095D01*
X479152Y372002D01*
X479059Y371911D01*
X478963Y371823D01*
X478864Y371739D01*
X478763Y371657D01*
X478660Y371578D01*
X478554Y371503D01*
X478446Y371431D01*
X478336Y371362D01*
X478223Y371296D01*
X478109Y371234D01*
X477993Y371175D01*
X477875Y371120D01*
X477756Y371069D01*
X477635Y371021D01*
X477513Y370976D01*
X477389Y370936D01*
X477265Y370899D01*
X477139Y370866D01*
X477012Y370837D01*
X476885Y370811D01*
X476757Y370790D01*
X476628Y370772D01*
X476499Y370759D01*
X476369Y370749D01*
X476239Y370743D01*
X476109Y370741D01*
X471805Y370741D01*
X476970Y370741D02*
X480413Y363855D01*
D11*
X270050Y493522D02*
X270050Y496570D01*
X422450Y496570D01*
X422450Y493522D01*
X422450Y288798D02*
X422450Y196850D01*
X405178Y196850D01*
X287322Y196850D02*
X270050Y196850D01*
X298244Y185928D02*
X394256Y185928D01*
X270050Y196850D02*
X270050Y288798D01*
X287322Y196850D02*
X287586Y196847D01*
X287850Y196837D01*
X288113Y196821D01*
X288376Y196799D01*
X288639Y196770D01*
X288900Y196735D01*
X289161Y196694D01*
X289420Y196647D01*
X289679Y196593D01*
X289936Y196533D01*
X290191Y196466D01*
X290445Y196394D01*
X290697Y196315D01*
X290947Y196231D01*
X291195Y196140D01*
X291441Y196044D01*
X291684Y195941D01*
X291925Y195833D01*
X292163Y195719D01*
X292398Y195599D01*
X292630Y195473D01*
X292859Y195342D01*
X293085Y195206D01*
X293307Y195064D01*
X293526Y194917D01*
X293742Y194764D01*
X293953Y194606D01*
X294161Y194444D01*
X294365Y194276D01*
X294565Y194103D01*
X294760Y193926D01*
X294951Y193744D01*
X295138Y193557D01*
X295320Y193366D01*
X295497Y193171D01*
X295670Y192971D01*
X295838Y192767D01*
X296000Y192559D01*
X296158Y192348D01*
X296311Y192132D01*
X296458Y191913D01*
X296600Y191691D01*
X296736Y191465D01*
X296867Y191236D01*
X296993Y191004D01*
X297113Y190769D01*
X297227Y190531D01*
X297335Y190290D01*
X297438Y190047D01*
X297534Y189801D01*
X297625Y189553D01*
X297709Y189303D01*
X297788Y189051D01*
X297860Y188797D01*
X297927Y188542D01*
X297987Y188285D01*
X298041Y188026D01*
X298088Y187767D01*
X298129Y187506D01*
X298164Y187245D01*
X298193Y186982D01*
X298215Y186719D01*
X298231Y186456D01*
X298241Y186192D01*
X298244Y185928D01*
X394256Y185928D02*
X394259Y186192D01*
X394269Y186456D01*
X394285Y186719D01*
X394307Y186982D01*
X394336Y187245D01*
X394371Y187506D01*
X394412Y187767D01*
X394459Y188026D01*
X394513Y188285D01*
X394573Y188542D01*
X394640Y188797D01*
X394712Y189051D01*
X394791Y189303D01*
X394875Y189553D01*
X394966Y189801D01*
X395062Y190047D01*
X395165Y190290D01*
X395273Y190531D01*
X395387Y190769D01*
X395507Y191004D01*
X395633Y191236D01*
X395764Y191465D01*
X395900Y191691D01*
X396042Y191913D01*
X396189Y192132D01*
X396342Y192348D01*
X396500Y192559D01*
X396662Y192767D01*
X396830Y192971D01*
X397003Y193171D01*
X397180Y193366D01*
X397362Y193557D01*
X397549Y193744D01*
X397740Y193926D01*
X397935Y194103D01*
X398135Y194276D01*
X398339Y194444D01*
X398547Y194606D01*
X398758Y194764D01*
X398974Y194917D01*
X399193Y195064D01*
X399415Y195206D01*
X399641Y195342D01*
X399870Y195473D01*
X400102Y195599D01*
X400337Y195719D01*
X400575Y195833D01*
X400816Y195941D01*
X401059Y196044D01*
X401305Y196140D01*
X401553Y196231D01*
X401803Y196315D01*
X402055Y196394D01*
X402309Y196466D01*
X402564Y196533D01*
X402821Y196593D01*
X403080Y196647D01*
X403339Y196694D01*
X403600Y196735D01*
X403861Y196770D01*
X404124Y196799D01*
X404387Y196821D01*
X404650Y196837D01*
X404914Y196847D01*
X405178Y196850D01*
D13*
X371650Y241300D02*
X371650Y249174D01*
X369026Y245674D02*
X371650Y241300D01*
X369026Y245674D02*
X366401Y241300D01*
X366401Y249174D01*
X363129Y244800D02*
X360942Y244800D01*
X360849Y244802D01*
X360757Y244808D01*
X360664Y244818D01*
X360572Y244831D01*
X360481Y244849D01*
X360391Y244871D01*
X360302Y244896D01*
X360213Y244925D01*
X360127Y244958D01*
X360041Y244994D01*
X359957Y245034D01*
X359875Y245078D01*
X359795Y245125D01*
X359717Y245175D01*
X359642Y245229D01*
X359568Y245285D01*
X359497Y245345D01*
X359429Y245408D01*
X359363Y245474D01*
X359300Y245542D01*
X359240Y245613D01*
X359184Y245687D01*
X359130Y245762D01*
X359080Y245840D01*
X359033Y245920D01*
X358989Y246002D01*
X358949Y246086D01*
X358913Y246172D01*
X358880Y246258D01*
X358851Y246347D01*
X358826Y246436D01*
X358804Y246526D01*
X358786Y246617D01*
X358773Y246709D01*
X358763Y246802D01*
X358757Y246894D01*
X358755Y246987D01*
X358757Y247080D01*
X358763Y247172D01*
X358773Y247265D01*
X358786Y247357D01*
X358804Y247448D01*
X358826Y247538D01*
X358851Y247627D01*
X358880Y247716D01*
X358913Y247802D01*
X358949Y247888D01*
X358989Y247972D01*
X359033Y248054D01*
X359080Y248134D01*
X359130Y248212D01*
X359184Y248287D01*
X359240Y248361D01*
X359300Y248432D01*
X359363Y248500D01*
X359429Y248566D01*
X359497Y248629D01*
X359568Y248689D01*
X359642Y248745D01*
X359717Y248799D01*
X359795Y248849D01*
X359875Y248896D01*
X359957Y248940D01*
X360041Y248980D01*
X360127Y249016D01*
X360213Y249049D01*
X360302Y249078D01*
X360391Y249103D01*
X360481Y249125D01*
X360572Y249143D01*
X360664Y249156D01*
X360757Y249166D01*
X360849Y249172D01*
X360942Y249174D01*
X363129Y249174D01*
X363129Y241300D01*
X360942Y241300D01*
X360860Y241302D01*
X360778Y241308D01*
X360697Y241317D01*
X360616Y241331D01*
X360535Y241348D01*
X360456Y241369D01*
X360378Y241393D01*
X360301Y241422D01*
X360225Y241454D01*
X360151Y241489D01*
X360079Y241528D01*
X360008Y241570D01*
X359940Y241615D01*
X359874Y241664D01*
X359810Y241715D01*
X359749Y241770D01*
X359690Y241827D01*
X359634Y241887D01*
X359581Y241950D01*
X359531Y242015D01*
X359484Y242082D01*
X359440Y242151D01*
X359400Y242223D01*
X359363Y242296D01*
X359329Y242371D01*
X359299Y242447D01*
X359273Y242525D01*
X359250Y242604D01*
X359231Y242683D01*
X359216Y242764D01*
X359204Y242845D01*
X359196Y242927D01*
X359192Y243009D01*
X359192Y243091D01*
X359196Y243173D01*
X359204Y243255D01*
X359216Y243336D01*
X359231Y243417D01*
X359250Y243496D01*
X359273Y243575D01*
X359299Y243653D01*
X359329Y243729D01*
X359363Y243804D01*
X359400Y243877D01*
X359440Y243949D01*
X359484Y244018D01*
X359531Y244085D01*
X359581Y244150D01*
X359634Y244213D01*
X359690Y244273D01*
X359749Y244330D01*
X359810Y244385D01*
X359874Y244436D01*
X359940Y244485D01*
X360008Y244530D01*
X360079Y244572D01*
X360151Y244611D01*
X360225Y244646D01*
X360301Y244678D01*
X360378Y244707D01*
X360456Y244731D01*
X360535Y244752D01*
X360616Y244769D01*
X360697Y244783D01*
X360778Y244792D01*
X360860Y244798D01*
X360942Y244800D01*
X356331Y243050D02*
X354144Y241300D01*
X354144Y249174D01*
X356331Y249174D02*
X351957Y249174D01*
X349244Y247424D02*
X347495Y241300D01*
X349244Y247424D02*
X344870Y247424D01*
X346182Y245674D02*
X346182Y249174D01*
X342158Y244800D02*
X339533Y244800D01*
X339533Y244799D02*
X339452Y244801D01*
X339372Y244806D01*
X339291Y244816D01*
X339211Y244829D01*
X339132Y244845D01*
X339054Y244866D01*
X338977Y244890D01*
X338901Y244917D01*
X338826Y244948D01*
X338753Y244982D01*
X338681Y245020D01*
X338612Y245061D01*
X338544Y245105D01*
X338478Y245152D01*
X338415Y245203D01*
X338354Y245256D01*
X338296Y245312D01*
X338240Y245370D01*
X338187Y245431D01*
X338136Y245494D01*
X338089Y245560D01*
X338045Y245628D01*
X338004Y245697D01*
X337966Y245769D01*
X337932Y245842D01*
X337901Y245917D01*
X337874Y245993D01*
X337850Y246070D01*
X337829Y246148D01*
X337813Y246227D01*
X337800Y246307D01*
X337790Y246388D01*
X337785Y246468D01*
X337783Y246549D01*
X337783Y246987D01*
X337784Y246987D02*
X337786Y247080D01*
X337792Y247172D01*
X337802Y247265D01*
X337815Y247357D01*
X337833Y247448D01*
X337855Y247538D01*
X337880Y247627D01*
X337909Y247716D01*
X337942Y247802D01*
X337978Y247888D01*
X338018Y247972D01*
X338062Y248054D01*
X338109Y248134D01*
X338159Y248212D01*
X338213Y248287D01*
X338269Y248361D01*
X338329Y248432D01*
X338392Y248500D01*
X338458Y248566D01*
X338526Y248629D01*
X338597Y248689D01*
X338671Y248745D01*
X338746Y248799D01*
X338824Y248849D01*
X338904Y248896D01*
X338986Y248940D01*
X339070Y248980D01*
X339156Y249016D01*
X339242Y249049D01*
X339331Y249078D01*
X339420Y249103D01*
X339510Y249125D01*
X339601Y249143D01*
X339693Y249156D01*
X339786Y249166D01*
X339878Y249172D01*
X339971Y249174D01*
X340064Y249172D01*
X340156Y249166D01*
X340249Y249156D01*
X340341Y249143D01*
X340432Y249125D01*
X340522Y249103D01*
X340611Y249078D01*
X340700Y249049D01*
X340786Y249016D01*
X340872Y248980D01*
X340956Y248940D01*
X341038Y248896D01*
X341118Y248849D01*
X341196Y248799D01*
X341271Y248745D01*
X341345Y248689D01*
X341416Y248629D01*
X341484Y248566D01*
X341550Y248500D01*
X341613Y248432D01*
X341673Y248361D01*
X341729Y248287D01*
X341783Y248212D01*
X341833Y248134D01*
X341880Y248054D01*
X341924Y247972D01*
X341964Y247888D01*
X342000Y247802D01*
X342033Y247716D01*
X342062Y247627D01*
X342087Y247538D01*
X342109Y247448D01*
X342127Y247357D01*
X342140Y247265D01*
X342150Y247172D01*
X342156Y247080D01*
X342158Y246987D01*
X342158Y244800D01*
X342156Y244683D01*
X342150Y244566D01*
X342140Y244450D01*
X342127Y244334D01*
X342109Y244218D01*
X342088Y244103D01*
X342063Y243989D01*
X342034Y243875D01*
X342001Y243763D01*
X341964Y243652D01*
X341924Y243542D01*
X341880Y243434D01*
X341833Y243327D01*
X341782Y243221D01*
X341727Y243118D01*
X341669Y243016D01*
X341608Y242917D01*
X341544Y242819D01*
X341476Y242724D01*
X341405Y242631D01*
X341331Y242540D01*
X341254Y242452D01*
X341174Y242367D01*
X341091Y242284D01*
X341006Y242204D01*
X340918Y242127D01*
X340827Y242053D01*
X340734Y241982D01*
X340639Y241914D01*
X340541Y241850D01*
X340442Y241789D01*
X340340Y241731D01*
X340237Y241676D01*
X340131Y241625D01*
X340024Y241578D01*
X339916Y241534D01*
X339806Y241494D01*
X339695Y241457D01*
X339583Y241424D01*
X339469Y241395D01*
X339355Y241370D01*
X339240Y241349D01*
X339125Y241331D01*
X339008Y241318D01*
X338892Y241308D01*
X338775Y241302D01*
X338658Y241300D01*
X335071Y241300D02*
X335071Y242175D01*
X335071Y241300D02*
X330697Y241300D01*
X332884Y249174D01*
D14*
X435991Y420751D02*
X445389Y423884D01*
X435991Y427016D01*
X435991Y430779D02*
X445389Y430779D01*
X435991Y430779D02*
X435991Y433389D01*
X435993Y433490D01*
X435999Y433591D01*
X436009Y433692D01*
X436022Y433792D01*
X436040Y433892D01*
X436061Y433991D01*
X436087Y434089D01*
X436116Y434186D01*
X436148Y434282D01*
X436185Y434376D01*
X436225Y434469D01*
X436269Y434561D01*
X436316Y434650D01*
X436367Y434738D01*
X436421Y434824D01*
X436478Y434907D01*
X436538Y434989D01*
X436602Y435067D01*
X436668Y435144D01*
X436738Y435217D01*
X436810Y435288D01*
X436885Y435356D01*
X436963Y435421D01*
X437043Y435483D01*
X437125Y435542D01*
X437210Y435598D01*
X437297Y435650D01*
X437385Y435699D01*
X437476Y435745D01*
X437568Y435786D01*
X437662Y435825D01*
X437757Y435859D01*
X437853Y435890D01*
X437951Y435917D01*
X438049Y435941D01*
X438149Y435960D01*
X438249Y435976D01*
X438349Y435988D01*
X438450Y435996D01*
X438551Y436000D01*
X438653Y436000D01*
X438754Y435996D01*
X438855Y435988D01*
X438955Y435976D01*
X439055Y435960D01*
X439155Y435941D01*
X439253Y435917D01*
X439351Y435890D01*
X439447Y435859D01*
X439542Y435825D01*
X439636Y435786D01*
X439728Y435745D01*
X439819Y435699D01*
X439908Y435650D01*
X439994Y435598D01*
X440079Y435542D01*
X440161Y435483D01*
X440241Y435421D01*
X440319Y435356D01*
X440394Y435288D01*
X440466Y435217D01*
X440536Y435144D01*
X440602Y435067D01*
X440666Y434989D01*
X440726Y434907D01*
X440783Y434824D01*
X440837Y434738D01*
X440888Y434650D01*
X440935Y434561D01*
X440979Y434469D01*
X441019Y434376D01*
X441056Y434282D01*
X441088Y434186D01*
X441117Y434089D01*
X441143Y433991D01*
X441164Y433892D01*
X441182Y433792D01*
X441195Y433692D01*
X441205Y433591D01*
X441211Y433490D01*
X441213Y433389D01*
X441212Y433389D02*
X441212Y430779D01*
X441212Y433912D02*
X445389Y436000D01*
X445389Y439344D02*
X435991Y445609D01*
X435991Y439344D02*
X445389Y445609D01*
X257429Y425154D02*
X248031Y422021D01*
X248031Y428286D02*
X257429Y425154D01*
X257429Y433688D02*
X248031Y433688D01*
X248031Y431077D02*
X248031Y436299D01*
X248031Y445355D02*
X257429Y439090D01*
X257429Y445355D02*
X248031Y439090D01*
D11*
X439420Y327660D02*
X439420Y314960D01*
X439420Y327660D02*
X445770Y334010D01*
X458470Y334010D02*
X464820Y327660D01*
X445770Y334010D02*
X439420Y340360D01*
X439420Y353060D01*
X445770Y359410D01*
X458470Y359410D02*
X464820Y353060D01*
X464820Y340360D01*
X458470Y334010D01*
X458470Y308610D02*
X445770Y308610D01*
X439420Y314960D01*
X458470Y308610D02*
X464820Y314960D01*
X464820Y327660D01*
X445770Y359410D02*
X439420Y365760D01*
X439420Y378460D01*
X445770Y384810D01*
X458470Y384810D02*
X464820Y378460D01*
X464820Y365760D01*
X458470Y359410D01*
X458470Y384810D02*
X445770Y384810D01*
D12*
X446405Y299720D02*
X448945Y296545D01*
X446405Y299720D02*
X457835Y299720D01*
X457835Y296545D02*
X457835Y302895D01*
D11*
X228600Y327660D02*
X228600Y340360D01*
X234950Y346710D01*
X247650Y346710D01*
X254000Y340360D01*
X247650Y321310D02*
X234950Y321310D01*
X228600Y327660D01*
X247650Y321310D02*
X254000Y327660D01*
X254000Y340360D01*
X234950Y346710D02*
X228600Y353060D01*
X228600Y365760D01*
X234950Y372110D01*
X247650Y372110D01*
X254000Y365760D01*
X254000Y353060D01*
X247650Y346710D01*
M02*
