G04 EAGLE Gerber RS-274X export*
G75*
%MOMM*%
%FSLAX34Y34*%
%LPD*%
%INSilkscreen Bottom*%
%IPPOS*%
%AMOC8*
5,1,8,0,0,1.08239X$1,22.5*%
G01*
%ADD10C,0.127000*%
%ADD11C,0.101600*%
%ADD12C,0.152400*%
%ADD13R,0.014731X0.014731*%
%ADD14R,0.147319X0.014731*%
%ADD15R,0.265175X0.014731*%
%ADD16R,0.383031X0.014731*%
%ADD17R,0.515619X0.014731*%
%ADD18R,0.633475X0.014731*%
%ADD19R,0.751331X0.014731*%
%ADD20R,0.883919X0.014731*%
%ADD21R,1.001775X0.014731*%
%ADD22R,1.119631X0.014731*%
%ADD23R,1.134363X0.014731*%
%ADD24R,1.149094X0.014731*%
%ADD25R,1.163825X0.014731*%
%ADD26R,1.178556X0.014731*%
%ADD27R,1.193288X0.014731*%
%ADD28R,1.222756X0.014731*%
%ADD29R,1.237488X0.014731*%
%ADD30R,1.266950X0.014731*%
%ADD31R,1.281681X0.014731*%
%ADD32R,1.311144X0.014731*%
%ADD33R,1.325881X0.014731*%
%ADD34R,1.355344X0.014731*%
%ADD35R,1.370075X0.014731*%
%ADD36R,1.384806X0.014731*%
%ADD37R,1.399538X0.014731*%
%ADD38R,1.414275X0.014731*%
%ADD39R,1.443738X0.014731*%
%ADD40R,1.458469X0.014731*%
%ADD41R,1.487931X0.014731*%
%ADD42R,1.502663X0.014731*%
%ADD43R,1.517394X0.014731*%
%ADD44R,1.532125X0.014731*%
%ADD45R,1.546856X0.014731*%
%ADD46R,1.576319X0.014731*%
%ADD47R,1.605788X0.014731*%
%ADD48R,1.620519X0.014731*%
%ADD49R,1.649981X0.014731*%
%ADD50R,1.664713X0.014731*%
%ADD51R,1.694175X0.014731*%
%ADD52R,1.708913X0.014731*%
%ADD53R,1.738375X0.014731*%
%ADD54R,1.753106X0.014731*%
%ADD55R,1.767838X0.014731*%
%ADD56R,1.782569X0.014731*%
%ADD57R,1.797306X0.014731*%
%ADD58R,0.117856X0.014731*%
%ADD59R,1.826769X0.014731*%
%ADD60R,0.235713X0.014731*%
%ADD61R,0.353569X0.014731*%
%ADD62R,1.856231X0.014731*%
%ADD63R,0.486156X0.014731*%
%ADD64R,1.870963X0.014731*%
%ADD65R,0.604013X0.014731*%
%ADD66R,0.721869X0.014731*%
%ADD67R,1.885694X0.014731*%
%ADD68R,0.839719X0.014731*%
%ADD69R,0.972306X0.014731*%
%ADD70R,1.090169X0.014731*%
%ADD71R,1.208025X0.014731*%
%ADD72R,1.252219X0.014731*%
%ADD73R,1.296412X0.014731*%
%ADD74R,1.340612X0.014731*%
%ADD75R,1.826763X0.014731*%
%ADD76R,1.414269X0.014731*%
%ADD77R,1.812031X0.014731*%
%ADD78R,1.429000X0.014731*%
%ADD79R,1.458462X0.014731*%
%ADD80R,1.473200X0.014731*%
%ADD81R,1.723644X0.014731*%
%ADD82R,1.694181X0.014731*%
%ADD83R,1.679450X0.014731*%
%ADD84R,1.561594X0.014731*%
%ADD85R,1.576325X0.014731*%
%ADD86R,1.591056X0.014731*%
%ADD87R,1.635250X0.014731*%
%ADD88R,1.561588X0.014731*%
%ADD89R,1.443731X0.014731*%
%ADD90R,1.797300X0.014731*%
%ADD91R,1.841500X0.014731*%
%ADD92R,1.311150X0.014731*%
%ADD93R,1.296419X0.014731*%
%ADD94R,1.193294X0.014731*%
%ADD95R,0.957575X0.014731*%
%ADD96R,0.589281X0.014731*%
%ADD97R,0.471425X0.014731*%
%ADD98R,0.220975X0.014731*%
%ADD99R,1.812038X0.014731*%
%ADD100R,0.103119X0.014731*%
%ADD101R,0.029463X0.014731*%
%ADD102R,0.162050X0.014731*%
%ADD103R,0.397763X0.014731*%
%ADD104R,0.648206X0.014731*%
%ADD105R,1.679444X0.014731*%
%ADD106R,1.016506X0.014731*%
%ADD107R,1.104900X0.014731*%
%ADD108R,1.222750X0.014731*%
%ADD109R,1.429006X0.014731*%
%ADD110R,1.208019X0.014731*%
%ADD111R,0.987044X0.014731*%
%ADD112R,0.854456X0.014731*%
%ADD113R,0.618744X0.014731*%
%ADD114R,0.500888X0.014731*%
%ADD115R,0.368300X0.014731*%
%ADD116R,0.132587X0.014731*%
%ADD117R,1.664719X0.014731*%
%ADD118R,1.075438X0.014731*%
%ADD119R,0.942844X0.014731*%
%ADD120R,0.707131X0.014731*%
%ADD121R,0.456694X0.014731*%
%ADD122R,0.088388X0.014731*%
%ADD123C,0.076200*%


D10*
X427228Y313814D02*
X427228Y329308D01*
X422924Y329308D01*
X422924Y329309D02*
X422794Y329307D01*
X422664Y329301D01*
X422534Y329291D01*
X422405Y329278D01*
X422276Y329260D01*
X422148Y329239D01*
X422021Y329213D01*
X421894Y329184D01*
X421768Y329151D01*
X421644Y329114D01*
X421520Y329074D01*
X421398Y329029D01*
X421277Y328981D01*
X421158Y328930D01*
X421040Y328875D01*
X420924Y328816D01*
X420810Y328754D01*
X420697Y328688D01*
X420587Y328619D01*
X420479Y328547D01*
X420373Y328472D01*
X420270Y328393D01*
X420169Y328311D01*
X420070Y328227D01*
X419974Y328139D01*
X419881Y328048D01*
X419790Y327955D01*
X419702Y327859D01*
X419618Y327760D01*
X419536Y327659D01*
X419457Y327556D01*
X419382Y327450D01*
X419310Y327342D01*
X419241Y327232D01*
X419175Y327119D01*
X419113Y327005D01*
X419054Y326889D01*
X418999Y326771D01*
X418948Y326652D01*
X418900Y326531D01*
X418855Y326409D01*
X418815Y326285D01*
X418778Y326161D01*
X418745Y326035D01*
X418716Y325908D01*
X418690Y325781D01*
X418669Y325653D01*
X418651Y325524D01*
X418638Y325395D01*
X418628Y325265D01*
X418622Y325135D01*
X418620Y325005D01*
X418620Y318118D01*
X418622Y317988D01*
X418628Y317858D01*
X418638Y317728D01*
X418651Y317599D01*
X418669Y317470D01*
X418690Y317342D01*
X418716Y317215D01*
X418745Y317088D01*
X418778Y316962D01*
X418815Y316838D01*
X418855Y316714D01*
X418900Y316592D01*
X418948Y316471D01*
X418999Y316352D01*
X419054Y316234D01*
X419113Y316118D01*
X419175Y316004D01*
X419241Y315891D01*
X419310Y315781D01*
X419382Y315673D01*
X419457Y315567D01*
X419536Y315464D01*
X419618Y315363D01*
X419702Y315264D01*
X419790Y315168D01*
X419881Y315075D01*
X419974Y314984D01*
X420070Y314896D01*
X420169Y314812D01*
X420270Y314730D01*
X420373Y314651D01*
X420479Y314576D01*
X420587Y314504D01*
X420697Y314435D01*
X420810Y314369D01*
X420924Y314307D01*
X421040Y314248D01*
X421158Y314193D01*
X421277Y314142D01*
X421398Y314094D01*
X421520Y314049D01*
X421644Y314009D01*
X421768Y313972D01*
X421894Y313939D01*
X422021Y313910D01*
X422148Y313884D01*
X422276Y313863D01*
X422405Y313845D01*
X422534Y313832D01*
X422664Y313822D01*
X422794Y313816D01*
X422924Y313814D01*
X427228Y313814D01*
X423714Y338666D02*
X420271Y338666D01*
X423714Y338666D02*
X423829Y338668D01*
X423944Y338674D01*
X424059Y338683D01*
X424173Y338697D01*
X424287Y338714D01*
X424400Y338735D01*
X424512Y338760D01*
X424624Y338788D01*
X424734Y338821D01*
X424843Y338857D01*
X424951Y338896D01*
X425058Y338939D01*
X425163Y338986D01*
X425267Y339036D01*
X425369Y339090D01*
X425469Y339147D01*
X425567Y339207D01*
X425663Y339270D01*
X425756Y339337D01*
X425848Y339407D01*
X425937Y339480D01*
X426024Y339556D01*
X426108Y339634D01*
X426189Y339715D01*
X426268Y339800D01*
X426343Y339886D01*
X426416Y339975D01*
X426486Y340067D01*
X426553Y340160D01*
X426616Y340256D01*
X426676Y340354D01*
X426733Y340454D01*
X426787Y340556D01*
X426837Y340660D01*
X426884Y340765D01*
X426927Y340872D01*
X426967Y340980D01*
X427002Y341089D01*
X427035Y341199D01*
X427063Y341311D01*
X427088Y341423D01*
X427109Y341536D01*
X427126Y341650D01*
X427140Y341764D01*
X427149Y341879D01*
X427155Y341994D01*
X427157Y342109D01*
X427157Y350717D01*
X427155Y350832D01*
X427149Y350947D01*
X427140Y351062D01*
X427126Y351176D01*
X427109Y351290D01*
X427088Y351403D01*
X427063Y351515D01*
X427035Y351627D01*
X427002Y351737D01*
X426967Y351846D01*
X426927Y351954D01*
X426884Y352061D01*
X426837Y352166D01*
X426787Y352270D01*
X426733Y352372D01*
X426676Y352472D01*
X426616Y352570D01*
X426553Y352666D01*
X426486Y352759D01*
X426416Y352851D01*
X426343Y352940D01*
X426268Y353026D01*
X426189Y353111D01*
X426108Y353192D01*
X426024Y353270D01*
X425937Y353346D01*
X425848Y353419D01*
X425756Y353489D01*
X425663Y353556D01*
X425567Y353619D01*
X425469Y353679D01*
X425369Y353736D01*
X425267Y353790D01*
X425163Y353840D01*
X425058Y353887D01*
X424951Y353930D01*
X424843Y353969D01*
X424734Y354005D01*
X424624Y354038D01*
X424512Y354066D01*
X424400Y354091D01*
X424287Y354112D01*
X424173Y354129D01*
X424059Y354143D01*
X423944Y354152D01*
X423829Y354158D01*
X423714Y354160D01*
X420271Y354160D01*
D11*
X288724Y335389D02*
X286776Y335389D01*
X286776Y328898D01*
X290671Y328898D01*
X290770Y328900D01*
X290870Y328906D01*
X290969Y328915D01*
X291067Y328928D01*
X291165Y328945D01*
X291263Y328966D01*
X291359Y328991D01*
X291454Y329019D01*
X291548Y329051D01*
X291641Y329086D01*
X291733Y329125D01*
X291823Y329168D01*
X291911Y329213D01*
X291998Y329263D01*
X292082Y329315D01*
X292165Y329371D01*
X292245Y329429D01*
X292323Y329491D01*
X292398Y329556D01*
X292471Y329624D01*
X292541Y329694D01*
X292609Y329767D01*
X292674Y329842D01*
X292736Y329920D01*
X292794Y330000D01*
X292850Y330083D01*
X292902Y330167D01*
X292952Y330254D01*
X292997Y330342D01*
X293040Y330432D01*
X293079Y330524D01*
X293114Y330617D01*
X293146Y330711D01*
X293174Y330806D01*
X293199Y330902D01*
X293220Y331000D01*
X293237Y331098D01*
X293250Y331196D01*
X293259Y331295D01*
X293265Y331395D01*
X293267Y331494D01*
X293268Y331494D02*
X293268Y337986D01*
X293267Y337986D02*
X293265Y338085D01*
X293259Y338185D01*
X293250Y338284D01*
X293237Y338382D01*
X293220Y338480D01*
X293199Y338578D01*
X293174Y338674D01*
X293146Y338769D01*
X293114Y338863D01*
X293079Y338956D01*
X293040Y339048D01*
X292997Y339138D01*
X292952Y339226D01*
X292902Y339313D01*
X292850Y339397D01*
X292794Y339480D01*
X292736Y339560D01*
X292674Y339638D01*
X292609Y339713D01*
X292541Y339786D01*
X292471Y339856D01*
X292398Y339924D01*
X292323Y339989D01*
X292245Y340051D01*
X292165Y340109D01*
X292082Y340165D01*
X291998Y340217D01*
X291911Y340267D01*
X291823Y340312D01*
X291733Y340355D01*
X291641Y340394D01*
X291548Y340429D01*
X291454Y340461D01*
X291359Y340489D01*
X291263Y340514D01*
X291165Y340535D01*
X291067Y340552D01*
X290969Y340565D01*
X290870Y340574D01*
X290770Y340580D01*
X290671Y340582D01*
X286776Y340582D01*
X281076Y340582D02*
X281076Y328898D01*
X274584Y328898D02*
X281076Y340582D01*
X274584Y340582D02*
X274584Y328898D01*
X268884Y328898D02*
X268884Y340582D01*
X265638Y340582D01*
X265525Y340580D01*
X265412Y340574D01*
X265299Y340564D01*
X265186Y340550D01*
X265074Y340533D01*
X264963Y340511D01*
X264853Y340486D01*
X264743Y340456D01*
X264635Y340423D01*
X264528Y340386D01*
X264422Y340346D01*
X264318Y340301D01*
X264215Y340253D01*
X264114Y340202D01*
X264015Y340147D01*
X263918Y340089D01*
X263823Y340027D01*
X263730Y339962D01*
X263640Y339894D01*
X263552Y339823D01*
X263466Y339748D01*
X263383Y339671D01*
X263303Y339591D01*
X263226Y339508D01*
X263151Y339422D01*
X263080Y339334D01*
X263012Y339244D01*
X262947Y339151D01*
X262885Y339056D01*
X262827Y338959D01*
X262772Y338860D01*
X262721Y338759D01*
X262673Y338656D01*
X262628Y338552D01*
X262588Y338446D01*
X262551Y338339D01*
X262518Y338231D01*
X262488Y338121D01*
X262463Y338011D01*
X262441Y337900D01*
X262424Y337788D01*
X262410Y337675D01*
X262400Y337562D01*
X262394Y337449D01*
X262392Y337336D01*
X262392Y332144D01*
X262394Y332031D01*
X262400Y331918D01*
X262410Y331805D01*
X262424Y331692D01*
X262441Y331580D01*
X262463Y331469D01*
X262488Y331359D01*
X262518Y331249D01*
X262551Y331141D01*
X262588Y331034D01*
X262628Y330928D01*
X262673Y330824D01*
X262721Y330721D01*
X262772Y330620D01*
X262827Y330521D01*
X262885Y330424D01*
X262947Y330329D01*
X263012Y330236D01*
X263080Y330146D01*
X263151Y330058D01*
X263226Y329972D01*
X263303Y329889D01*
X263383Y329809D01*
X263466Y329732D01*
X263552Y329657D01*
X263640Y329586D01*
X263730Y329518D01*
X263823Y329453D01*
X263918Y329391D01*
X264015Y329333D01*
X264114Y329278D01*
X264215Y329227D01*
X264318Y329179D01*
X264422Y329134D01*
X264528Y329094D01*
X264635Y329057D01*
X264743Y329024D01*
X264853Y328994D01*
X264963Y328969D01*
X265074Y328947D01*
X265186Y328930D01*
X265299Y328916D01*
X265412Y328906D01*
X265525Y328900D01*
X265638Y328898D01*
X268884Y328898D01*
X492049Y335306D02*
X492049Y337254D01*
X485558Y337254D01*
X485558Y333359D01*
X485560Y333260D01*
X485566Y333160D01*
X485575Y333061D01*
X485588Y332963D01*
X485605Y332865D01*
X485626Y332767D01*
X485651Y332671D01*
X485679Y332576D01*
X485711Y332482D01*
X485746Y332389D01*
X485785Y332297D01*
X485828Y332207D01*
X485873Y332119D01*
X485923Y332032D01*
X485975Y331948D01*
X486031Y331865D01*
X486089Y331785D01*
X486151Y331707D01*
X486216Y331632D01*
X486284Y331559D01*
X486354Y331489D01*
X486427Y331421D01*
X486502Y331356D01*
X486580Y331294D01*
X486660Y331236D01*
X486743Y331180D01*
X486827Y331128D01*
X486914Y331078D01*
X487002Y331033D01*
X487092Y330990D01*
X487184Y330951D01*
X487277Y330916D01*
X487371Y330884D01*
X487466Y330856D01*
X487562Y330831D01*
X487660Y330810D01*
X487758Y330793D01*
X487856Y330780D01*
X487955Y330771D01*
X488055Y330765D01*
X488154Y330763D01*
X494646Y330763D01*
X494745Y330765D01*
X494845Y330771D01*
X494944Y330780D01*
X495042Y330793D01*
X495140Y330810D01*
X495238Y330831D01*
X495334Y330856D01*
X495429Y330884D01*
X495523Y330916D01*
X495616Y330951D01*
X495708Y330990D01*
X495798Y331033D01*
X495886Y331078D01*
X495973Y331128D01*
X496057Y331180D01*
X496140Y331236D01*
X496220Y331294D01*
X496298Y331356D01*
X496373Y331421D01*
X496446Y331489D01*
X496516Y331559D01*
X496584Y331632D01*
X496649Y331707D01*
X496711Y331785D01*
X496769Y331865D01*
X496825Y331948D01*
X496877Y332032D01*
X496927Y332119D01*
X496972Y332207D01*
X497015Y332297D01*
X497054Y332389D01*
X497089Y332481D01*
X497121Y332576D01*
X497149Y332671D01*
X497174Y332767D01*
X497195Y332865D01*
X497212Y332963D01*
X497225Y333061D01*
X497234Y333160D01*
X497240Y333260D01*
X497242Y333359D01*
X497242Y337254D01*
X497242Y342954D02*
X485558Y342954D01*
X485558Y349446D02*
X497242Y342954D01*
X497242Y349446D02*
X485558Y349446D01*
X485558Y355146D02*
X497242Y355146D01*
X497242Y358392D01*
X497240Y358505D01*
X497234Y358618D01*
X497224Y358731D01*
X497210Y358844D01*
X497193Y358956D01*
X497171Y359067D01*
X497146Y359177D01*
X497116Y359287D01*
X497083Y359395D01*
X497046Y359502D01*
X497006Y359608D01*
X496961Y359712D01*
X496913Y359815D01*
X496862Y359916D01*
X496807Y360015D01*
X496749Y360112D01*
X496687Y360207D01*
X496622Y360300D01*
X496554Y360390D01*
X496483Y360478D01*
X496408Y360564D01*
X496331Y360647D01*
X496251Y360727D01*
X496168Y360804D01*
X496082Y360879D01*
X495994Y360950D01*
X495904Y361018D01*
X495811Y361083D01*
X495716Y361145D01*
X495619Y361203D01*
X495520Y361258D01*
X495419Y361309D01*
X495316Y361357D01*
X495212Y361402D01*
X495106Y361442D01*
X494999Y361479D01*
X494891Y361512D01*
X494781Y361542D01*
X494671Y361567D01*
X494560Y361589D01*
X494448Y361606D01*
X494335Y361620D01*
X494222Y361630D01*
X494109Y361636D01*
X493996Y361638D01*
X488804Y361638D01*
X488691Y361636D01*
X488578Y361630D01*
X488465Y361620D01*
X488352Y361606D01*
X488240Y361589D01*
X488129Y361567D01*
X488019Y361542D01*
X487909Y361512D01*
X487801Y361479D01*
X487694Y361442D01*
X487588Y361402D01*
X487484Y361357D01*
X487381Y361309D01*
X487280Y361258D01*
X487181Y361203D01*
X487084Y361145D01*
X486989Y361083D01*
X486896Y361018D01*
X486806Y360950D01*
X486718Y360879D01*
X486632Y360804D01*
X486549Y360727D01*
X486469Y360647D01*
X486392Y360564D01*
X486317Y360478D01*
X486246Y360390D01*
X486178Y360300D01*
X486113Y360207D01*
X486051Y360112D01*
X485993Y360015D01*
X485938Y359916D01*
X485887Y359815D01*
X485839Y359712D01*
X485794Y359608D01*
X485754Y359502D01*
X485717Y359395D01*
X485684Y359287D01*
X485654Y359177D01*
X485629Y359067D01*
X485607Y358956D01*
X485590Y358844D01*
X485576Y358731D01*
X485566Y358618D01*
X485560Y358505D01*
X485558Y358392D01*
X485558Y355146D01*
X425446Y229503D02*
X423851Y228386D01*
X427574Y223068D01*
X430765Y225302D01*
X430764Y225302D02*
X430844Y225361D01*
X430922Y225423D01*
X430998Y225487D01*
X431071Y225555D01*
X431142Y225625D01*
X431209Y225698D01*
X431274Y225773D01*
X431336Y225851D01*
X431395Y225931D01*
X431451Y226013D01*
X431504Y226098D01*
X431553Y226184D01*
X431599Y226272D01*
X431642Y226362D01*
X431681Y226453D01*
X431716Y226546D01*
X431748Y226640D01*
X431777Y226736D01*
X431801Y226832D01*
X431822Y226929D01*
X431840Y227027D01*
X431853Y227126D01*
X431863Y227225D01*
X431869Y227324D01*
X431871Y227423D01*
X431869Y227523D01*
X431864Y227622D01*
X431854Y227721D01*
X431841Y227820D01*
X431825Y227918D01*
X431804Y228015D01*
X431780Y228112D01*
X431752Y228207D01*
X431720Y228301D01*
X431685Y228394D01*
X431646Y228486D01*
X431604Y228576D01*
X431558Y228664D01*
X431509Y228751D01*
X431457Y228835D01*
X431402Y228918D01*
X427679Y234236D01*
X427679Y234235D02*
X427620Y234315D01*
X427558Y234393D01*
X427494Y234469D01*
X427426Y234542D01*
X427356Y234613D01*
X427283Y234680D01*
X427208Y234745D01*
X427130Y234807D01*
X427050Y234866D01*
X426968Y234922D01*
X426883Y234975D01*
X426797Y235024D01*
X426709Y235070D01*
X426619Y235113D01*
X426528Y235152D01*
X426435Y235187D01*
X426341Y235219D01*
X426245Y235248D01*
X426149Y235272D01*
X426052Y235293D01*
X425954Y235311D01*
X425855Y235324D01*
X425756Y235334D01*
X425657Y235340D01*
X425558Y235342D01*
X425458Y235340D01*
X425359Y235335D01*
X425260Y235326D01*
X425161Y235312D01*
X425063Y235296D01*
X424966Y235275D01*
X424869Y235251D01*
X424774Y235223D01*
X424680Y235191D01*
X424587Y235156D01*
X424495Y235117D01*
X424405Y235075D01*
X424317Y235029D01*
X424230Y234980D01*
X424146Y234928D01*
X424063Y234873D01*
X420873Y232639D01*
X416203Y229369D02*
X422904Y219799D01*
X417587Y216075D02*
X416203Y229369D01*
X410886Y225646D02*
X417587Y216075D01*
X412917Y212805D02*
X406216Y222376D01*
X403557Y220515D01*
X403466Y220448D01*
X403376Y220379D01*
X403289Y220306D01*
X403205Y220230D01*
X403124Y220151D01*
X403045Y220070D01*
X402969Y219986D01*
X402896Y219899D01*
X402827Y219810D01*
X402760Y219718D01*
X402697Y219624D01*
X402637Y219528D01*
X402580Y219430D01*
X402527Y219330D01*
X402477Y219228D01*
X402431Y219124D01*
X402389Y219019D01*
X402350Y218913D01*
X402315Y218805D01*
X402284Y218696D01*
X402256Y218586D01*
X402233Y218475D01*
X402213Y218364D01*
X402197Y218252D01*
X402185Y218139D01*
X402177Y218026D01*
X402173Y217913D01*
X402173Y217799D01*
X402177Y217686D01*
X402185Y217573D01*
X402197Y217460D01*
X402213Y217348D01*
X402233Y217237D01*
X402256Y217126D01*
X402284Y217016D01*
X402315Y216907D01*
X402350Y216799D01*
X402389Y216693D01*
X402431Y216588D01*
X402477Y216484D01*
X402527Y216382D01*
X402580Y216282D01*
X402637Y216184D01*
X402697Y216088D01*
X402760Y215994D01*
X402760Y215995D02*
X405739Y211741D01*
X405738Y211740D02*
X405805Y211649D01*
X405874Y211559D01*
X405947Y211472D01*
X406023Y211388D01*
X406102Y211307D01*
X406183Y211228D01*
X406267Y211152D01*
X406354Y211079D01*
X406444Y211010D01*
X406535Y210943D01*
X406629Y210880D01*
X406725Y210820D01*
X406823Y210763D01*
X406923Y210710D01*
X407025Y210660D01*
X407129Y210614D01*
X407234Y210572D01*
X407340Y210533D01*
X407448Y210498D01*
X407557Y210467D01*
X407667Y210439D01*
X407778Y210416D01*
X407889Y210396D01*
X408001Y210380D01*
X408114Y210368D01*
X408227Y210360D01*
X408340Y210356D01*
X408454Y210356D01*
X408567Y210360D01*
X408680Y210368D01*
X408793Y210380D01*
X408905Y210396D01*
X409016Y210416D01*
X409127Y210439D01*
X409237Y210467D01*
X409346Y210498D01*
X409454Y210533D01*
X409560Y210572D01*
X409665Y210614D01*
X409769Y210660D01*
X409871Y210710D01*
X409971Y210763D01*
X410069Y210820D01*
X410165Y210880D01*
X410259Y210943D01*
X410259Y210944D02*
X412917Y212805D01*
X284166Y217323D02*
X282571Y218440D01*
X278848Y213123D01*
X282038Y210889D01*
X282121Y210834D01*
X282205Y210782D01*
X282292Y210733D01*
X282380Y210687D01*
X282470Y210645D01*
X282562Y210606D01*
X282655Y210571D01*
X282749Y210539D01*
X282844Y210511D01*
X282941Y210487D01*
X283038Y210466D01*
X283136Y210450D01*
X283235Y210436D01*
X283334Y210427D01*
X283433Y210422D01*
X283533Y210420D01*
X283632Y210422D01*
X283731Y210428D01*
X283830Y210438D01*
X283929Y210451D01*
X284027Y210469D01*
X284124Y210490D01*
X284220Y210514D01*
X284316Y210543D01*
X284410Y210575D01*
X284503Y210610D01*
X284594Y210649D01*
X284684Y210692D01*
X284772Y210738D01*
X284858Y210787D01*
X284943Y210840D01*
X285025Y210896D01*
X285105Y210955D01*
X285183Y211017D01*
X285258Y211082D01*
X285331Y211149D01*
X285401Y211220D01*
X285469Y211293D01*
X285533Y211369D01*
X285595Y211447D01*
X285654Y211527D01*
X289377Y216844D01*
X289432Y216927D01*
X289484Y217011D01*
X289533Y217098D01*
X289579Y217186D01*
X289621Y217276D01*
X289660Y217368D01*
X289695Y217461D01*
X289727Y217555D01*
X289755Y217650D01*
X289779Y217747D01*
X289800Y217844D01*
X289816Y217942D01*
X289830Y218041D01*
X289839Y218140D01*
X289844Y218239D01*
X289846Y218339D01*
X289844Y218438D01*
X289838Y218537D01*
X289828Y218636D01*
X289815Y218735D01*
X289797Y218833D01*
X289776Y218930D01*
X289752Y219026D01*
X289723Y219122D01*
X289691Y219216D01*
X289656Y219309D01*
X289617Y219400D01*
X289574Y219490D01*
X289528Y219578D01*
X289479Y219664D01*
X289426Y219749D01*
X289370Y219831D01*
X289311Y219911D01*
X289249Y219989D01*
X289184Y220064D01*
X289117Y220137D01*
X289046Y220207D01*
X288973Y220275D01*
X288897Y220339D01*
X288819Y220401D01*
X288739Y220460D01*
X288740Y220460D02*
X285549Y222694D01*
X280880Y225964D02*
X274178Y216393D01*
X268861Y220116D02*
X280880Y225964D01*
X275562Y229687D02*
X268861Y220116D01*
X264191Y223386D02*
X270892Y232957D01*
X268234Y234818D01*
X268234Y234819D02*
X268140Y234882D01*
X268044Y234942D01*
X267946Y234999D01*
X267846Y235052D01*
X267744Y235102D01*
X267640Y235148D01*
X267535Y235190D01*
X267429Y235229D01*
X267321Y235264D01*
X267212Y235295D01*
X267102Y235323D01*
X266991Y235346D01*
X266880Y235366D01*
X266768Y235382D01*
X266655Y235394D01*
X266542Y235402D01*
X266429Y235406D01*
X266315Y235406D01*
X266202Y235402D01*
X266089Y235394D01*
X265976Y235382D01*
X265864Y235366D01*
X265753Y235346D01*
X265642Y235323D01*
X265532Y235295D01*
X265423Y235264D01*
X265315Y235229D01*
X265209Y235190D01*
X265104Y235148D01*
X265000Y235102D01*
X264898Y235052D01*
X264798Y234999D01*
X264700Y234942D01*
X264604Y234882D01*
X264510Y234819D01*
X264419Y234752D01*
X264329Y234683D01*
X264242Y234610D01*
X264158Y234534D01*
X264077Y234455D01*
X263998Y234374D01*
X263922Y234290D01*
X263849Y234203D01*
X263780Y234114D01*
X263713Y234022D01*
X263714Y234021D02*
X260735Y229768D01*
X260672Y229674D01*
X260612Y229578D01*
X260555Y229480D01*
X260502Y229380D01*
X260452Y229278D01*
X260406Y229174D01*
X260364Y229069D01*
X260325Y228963D01*
X260290Y228855D01*
X260259Y228746D01*
X260231Y228636D01*
X260208Y228525D01*
X260188Y228414D01*
X260172Y228302D01*
X260160Y228189D01*
X260152Y228076D01*
X260148Y227963D01*
X260148Y227849D01*
X260152Y227736D01*
X260160Y227623D01*
X260172Y227510D01*
X260188Y227398D01*
X260208Y227287D01*
X260231Y227176D01*
X260259Y227066D01*
X260290Y226957D01*
X260325Y226849D01*
X260364Y226743D01*
X260406Y226638D01*
X260452Y226534D01*
X260502Y226432D01*
X260555Y226332D01*
X260612Y226234D01*
X260672Y226138D01*
X260735Y226044D01*
X260802Y225952D01*
X260871Y225863D01*
X260944Y225776D01*
X261020Y225692D01*
X261099Y225611D01*
X261180Y225532D01*
X261264Y225456D01*
X261351Y225383D01*
X261441Y225314D01*
X261532Y225247D01*
X264191Y223386D01*
X201649Y335306D02*
X201649Y337254D01*
X195158Y337254D01*
X195158Y333359D01*
X195160Y333260D01*
X195166Y333160D01*
X195175Y333061D01*
X195188Y332963D01*
X195205Y332865D01*
X195226Y332767D01*
X195251Y332671D01*
X195279Y332576D01*
X195311Y332482D01*
X195346Y332389D01*
X195385Y332297D01*
X195428Y332207D01*
X195473Y332119D01*
X195523Y332032D01*
X195575Y331948D01*
X195631Y331865D01*
X195689Y331785D01*
X195751Y331707D01*
X195816Y331632D01*
X195884Y331559D01*
X195954Y331489D01*
X196027Y331421D01*
X196102Y331356D01*
X196180Y331294D01*
X196260Y331236D01*
X196343Y331180D01*
X196427Y331128D01*
X196514Y331078D01*
X196602Y331033D01*
X196692Y330990D01*
X196784Y330951D01*
X196877Y330916D01*
X196971Y330884D01*
X197066Y330856D01*
X197162Y330831D01*
X197260Y330810D01*
X197358Y330793D01*
X197456Y330780D01*
X197555Y330771D01*
X197655Y330765D01*
X197754Y330763D01*
X204246Y330763D01*
X204345Y330765D01*
X204445Y330771D01*
X204544Y330780D01*
X204642Y330793D01*
X204740Y330810D01*
X204838Y330831D01*
X204934Y330856D01*
X205029Y330884D01*
X205123Y330916D01*
X205216Y330951D01*
X205308Y330990D01*
X205398Y331033D01*
X205486Y331078D01*
X205573Y331128D01*
X205657Y331180D01*
X205740Y331236D01*
X205820Y331294D01*
X205898Y331356D01*
X205973Y331421D01*
X206046Y331489D01*
X206116Y331559D01*
X206184Y331632D01*
X206249Y331707D01*
X206311Y331785D01*
X206369Y331865D01*
X206425Y331948D01*
X206477Y332032D01*
X206527Y332119D01*
X206572Y332207D01*
X206615Y332297D01*
X206654Y332389D01*
X206689Y332481D01*
X206721Y332576D01*
X206749Y332671D01*
X206774Y332767D01*
X206795Y332865D01*
X206812Y332963D01*
X206825Y333061D01*
X206834Y333160D01*
X206840Y333260D01*
X206842Y333359D01*
X206842Y337254D01*
X206842Y342954D02*
X195158Y342954D01*
X195158Y349446D02*
X206842Y342954D01*
X206842Y349446D02*
X195158Y349446D01*
X195158Y355146D02*
X206842Y355146D01*
X206842Y358392D01*
X206840Y358505D01*
X206834Y358618D01*
X206824Y358731D01*
X206810Y358844D01*
X206793Y358956D01*
X206771Y359067D01*
X206746Y359177D01*
X206716Y359287D01*
X206683Y359395D01*
X206646Y359502D01*
X206606Y359608D01*
X206561Y359712D01*
X206513Y359815D01*
X206462Y359916D01*
X206407Y360015D01*
X206349Y360112D01*
X206287Y360207D01*
X206222Y360300D01*
X206154Y360390D01*
X206083Y360478D01*
X206008Y360564D01*
X205931Y360647D01*
X205851Y360727D01*
X205768Y360804D01*
X205682Y360879D01*
X205594Y360950D01*
X205504Y361018D01*
X205411Y361083D01*
X205316Y361145D01*
X205219Y361203D01*
X205120Y361258D01*
X205019Y361309D01*
X204916Y361357D01*
X204812Y361402D01*
X204706Y361442D01*
X204599Y361479D01*
X204491Y361512D01*
X204381Y361542D01*
X204271Y361567D01*
X204160Y361589D01*
X204048Y361606D01*
X203935Y361620D01*
X203822Y361630D01*
X203709Y361636D01*
X203596Y361638D01*
X198404Y361638D01*
X198291Y361636D01*
X198178Y361630D01*
X198065Y361620D01*
X197952Y361606D01*
X197840Y361589D01*
X197729Y361567D01*
X197619Y361542D01*
X197509Y361512D01*
X197401Y361479D01*
X197294Y361442D01*
X197188Y361402D01*
X197084Y361357D01*
X196981Y361309D01*
X196880Y361258D01*
X196781Y361203D01*
X196684Y361145D01*
X196589Y361083D01*
X196496Y361018D01*
X196406Y360950D01*
X196318Y360879D01*
X196232Y360804D01*
X196149Y360727D01*
X196069Y360647D01*
X195992Y360564D01*
X195917Y360478D01*
X195846Y360390D01*
X195778Y360300D01*
X195713Y360207D01*
X195651Y360112D01*
X195593Y360015D01*
X195538Y359916D01*
X195487Y359815D01*
X195439Y359712D01*
X195394Y359608D01*
X195354Y359502D01*
X195317Y359395D01*
X195284Y359287D01*
X195254Y359177D01*
X195229Y359067D01*
X195207Y358956D01*
X195190Y358844D01*
X195176Y358731D01*
X195166Y358618D01*
X195160Y358505D01*
X195158Y358392D01*
X195158Y355146D01*
X289020Y354118D02*
X292266Y354118D01*
X289020Y354118D02*
X288907Y354120D01*
X288794Y354126D01*
X288681Y354136D01*
X288568Y354150D01*
X288456Y354167D01*
X288345Y354189D01*
X288235Y354214D01*
X288125Y354244D01*
X288017Y354277D01*
X287910Y354314D01*
X287804Y354354D01*
X287700Y354399D01*
X287597Y354447D01*
X287496Y354498D01*
X287397Y354553D01*
X287300Y354611D01*
X287205Y354673D01*
X287112Y354738D01*
X287022Y354806D01*
X286934Y354877D01*
X286848Y354952D01*
X286765Y355029D01*
X286685Y355109D01*
X286608Y355192D01*
X286533Y355278D01*
X286462Y355366D01*
X286394Y355456D01*
X286329Y355549D01*
X286267Y355644D01*
X286209Y355741D01*
X286154Y355840D01*
X286103Y355941D01*
X286055Y356044D01*
X286010Y356148D01*
X285970Y356254D01*
X285933Y356361D01*
X285900Y356469D01*
X285870Y356579D01*
X285845Y356689D01*
X285823Y356800D01*
X285806Y356912D01*
X285792Y357025D01*
X285782Y357138D01*
X285776Y357251D01*
X285774Y357364D01*
X285776Y357477D01*
X285782Y357590D01*
X285792Y357703D01*
X285806Y357816D01*
X285823Y357928D01*
X285845Y358039D01*
X285870Y358149D01*
X285900Y358259D01*
X285933Y358367D01*
X285970Y358474D01*
X286010Y358580D01*
X286055Y358684D01*
X286103Y358787D01*
X286154Y358888D01*
X286209Y358987D01*
X286267Y359084D01*
X286329Y359179D01*
X286394Y359272D01*
X286462Y359362D01*
X286533Y359450D01*
X286608Y359536D01*
X286685Y359619D01*
X286765Y359699D01*
X286848Y359776D01*
X286934Y359851D01*
X287022Y359922D01*
X287112Y359990D01*
X287205Y360055D01*
X287300Y360117D01*
X287397Y360175D01*
X287496Y360230D01*
X287597Y360281D01*
X287700Y360329D01*
X287804Y360374D01*
X287910Y360414D01*
X288017Y360451D01*
X288125Y360484D01*
X288235Y360514D01*
X288345Y360539D01*
X288456Y360561D01*
X288568Y360578D01*
X288681Y360592D01*
X288794Y360602D01*
X288907Y360608D01*
X289020Y360610D01*
X288371Y365802D02*
X292266Y365802D01*
X288371Y365802D02*
X288270Y365800D01*
X288170Y365794D01*
X288070Y365784D01*
X287970Y365771D01*
X287871Y365753D01*
X287772Y365732D01*
X287675Y365707D01*
X287578Y365678D01*
X287483Y365645D01*
X287389Y365609D01*
X287297Y365569D01*
X287206Y365526D01*
X287117Y365479D01*
X287030Y365429D01*
X286944Y365375D01*
X286861Y365318D01*
X286781Y365258D01*
X286702Y365195D01*
X286626Y365128D01*
X286553Y365059D01*
X286483Y364987D01*
X286415Y364913D01*
X286350Y364836D01*
X286289Y364756D01*
X286230Y364674D01*
X286175Y364590D01*
X286123Y364504D01*
X286074Y364416D01*
X286029Y364326D01*
X285987Y364234D01*
X285949Y364141D01*
X285915Y364046D01*
X285884Y363951D01*
X285857Y363854D01*
X285834Y363756D01*
X285814Y363657D01*
X285799Y363557D01*
X285787Y363457D01*
X285779Y363357D01*
X285775Y363256D01*
X285775Y363156D01*
X285779Y363055D01*
X285787Y362955D01*
X285799Y362855D01*
X285814Y362755D01*
X285834Y362656D01*
X285857Y362558D01*
X285884Y362461D01*
X285915Y362366D01*
X285949Y362271D01*
X285987Y362178D01*
X286029Y362086D01*
X286074Y361996D01*
X286123Y361908D01*
X286175Y361822D01*
X286230Y361738D01*
X286289Y361656D01*
X286350Y361576D01*
X286415Y361499D01*
X286483Y361425D01*
X286553Y361353D01*
X286626Y361284D01*
X286702Y361217D01*
X286781Y361154D01*
X286861Y361094D01*
X286944Y361037D01*
X287030Y360983D01*
X287117Y360933D01*
X287206Y360886D01*
X287297Y360843D01*
X287389Y360803D01*
X287483Y360767D01*
X287578Y360734D01*
X287675Y360705D01*
X287772Y360680D01*
X287871Y360659D01*
X287970Y360641D01*
X288070Y360628D01*
X288170Y360618D01*
X288270Y360612D01*
X288371Y360610D01*
X288371Y360609D02*
X290967Y360609D01*
X281485Y365802D02*
X277590Y354118D01*
X273695Y365802D01*
X269406Y354118D02*
X266160Y354118D01*
X266047Y354120D01*
X265934Y354126D01*
X265821Y354136D01*
X265708Y354150D01*
X265596Y354167D01*
X265485Y354189D01*
X265375Y354214D01*
X265265Y354244D01*
X265157Y354277D01*
X265050Y354314D01*
X264944Y354354D01*
X264840Y354399D01*
X264737Y354447D01*
X264636Y354498D01*
X264537Y354553D01*
X264440Y354611D01*
X264345Y354673D01*
X264252Y354738D01*
X264162Y354806D01*
X264074Y354877D01*
X263988Y354952D01*
X263905Y355029D01*
X263825Y355109D01*
X263748Y355192D01*
X263673Y355278D01*
X263602Y355366D01*
X263534Y355456D01*
X263469Y355549D01*
X263407Y355644D01*
X263349Y355741D01*
X263294Y355840D01*
X263243Y355941D01*
X263195Y356044D01*
X263150Y356148D01*
X263110Y356254D01*
X263073Y356361D01*
X263040Y356469D01*
X263010Y356579D01*
X262985Y356689D01*
X262963Y356800D01*
X262946Y356912D01*
X262932Y357025D01*
X262922Y357138D01*
X262916Y357251D01*
X262914Y357364D01*
X262916Y357477D01*
X262922Y357590D01*
X262932Y357703D01*
X262946Y357816D01*
X262963Y357928D01*
X262985Y358039D01*
X263010Y358149D01*
X263040Y358259D01*
X263073Y358367D01*
X263110Y358474D01*
X263150Y358580D01*
X263195Y358684D01*
X263243Y358787D01*
X263294Y358888D01*
X263349Y358987D01*
X263407Y359084D01*
X263469Y359179D01*
X263534Y359272D01*
X263602Y359362D01*
X263673Y359450D01*
X263748Y359536D01*
X263825Y359619D01*
X263905Y359699D01*
X263988Y359776D01*
X264074Y359851D01*
X264162Y359922D01*
X264252Y359990D01*
X264345Y360055D01*
X264440Y360117D01*
X264537Y360175D01*
X264636Y360230D01*
X264737Y360281D01*
X264840Y360329D01*
X264944Y360374D01*
X265050Y360414D01*
X265157Y360451D01*
X265265Y360484D01*
X265375Y360514D01*
X265485Y360539D01*
X265596Y360561D01*
X265708Y360578D01*
X265821Y360592D01*
X265934Y360602D01*
X266047Y360608D01*
X266160Y360610D01*
X265511Y365802D02*
X269406Y365802D01*
X265511Y365802D02*
X265410Y365800D01*
X265310Y365794D01*
X265210Y365784D01*
X265110Y365771D01*
X265011Y365753D01*
X264912Y365732D01*
X264815Y365707D01*
X264718Y365678D01*
X264623Y365645D01*
X264529Y365609D01*
X264437Y365569D01*
X264346Y365526D01*
X264257Y365479D01*
X264170Y365429D01*
X264084Y365375D01*
X264001Y365318D01*
X263921Y365258D01*
X263842Y365195D01*
X263766Y365128D01*
X263693Y365059D01*
X263623Y364987D01*
X263555Y364913D01*
X263490Y364836D01*
X263429Y364756D01*
X263370Y364674D01*
X263315Y364590D01*
X263263Y364504D01*
X263214Y364416D01*
X263169Y364326D01*
X263127Y364234D01*
X263089Y364141D01*
X263055Y364046D01*
X263024Y363951D01*
X262997Y363854D01*
X262974Y363756D01*
X262954Y363657D01*
X262939Y363557D01*
X262927Y363457D01*
X262919Y363357D01*
X262915Y363256D01*
X262915Y363156D01*
X262919Y363055D01*
X262927Y362955D01*
X262939Y362855D01*
X262954Y362755D01*
X262974Y362656D01*
X262997Y362558D01*
X263024Y362461D01*
X263055Y362366D01*
X263089Y362271D01*
X263127Y362178D01*
X263169Y362086D01*
X263214Y361996D01*
X263263Y361908D01*
X263315Y361822D01*
X263370Y361738D01*
X263429Y361656D01*
X263490Y361576D01*
X263555Y361499D01*
X263623Y361425D01*
X263693Y361353D01*
X263766Y361284D01*
X263842Y361217D01*
X263921Y361154D01*
X264001Y361094D01*
X264084Y361037D01*
X264170Y360983D01*
X264257Y360933D01*
X264346Y360886D01*
X264437Y360843D01*
X264529Y360803D01*
X264623Y360767D01*
X264718Y360734D01*
X264815Y360705D01*
X264912Y360680D01*
X265011Y360659D01*
X265110Y360641D01*
X265210Y360628D01*
X265310Y360618D01*
X265410Y360612D01*
X265511Y360610D01*
X265511Y360609D02*
X268107Y360609D01*
D12*
X451821Y395698D02*
X451821Y413478D01*
X446883Y413478D01*
X446743Y413476D01*
X446604Y413470D01*
X446464Y413460D01*
X446325Y413446D01*
X446186Y413429D01*
X446048Y413407D01*
X445911Y413381D01*
X445774Y413352D01*
X445638Y413319D01*
X445504Y413282D01*
X445370Y413241D01*
X445238Y413196D01*
X445106Y413147D01*
X444977Y413095D01*
X444849Y413040D01*
X444722Y412980D01*
X444597Y412917D01*
X444474Y412851D01*
X444353Y412781D01*
X444234Y412708D01*
X444117Y412631D01*
X444003Y412551D01*
X443890Y412468D01*
X443780Y412382D01*
X443673Y412292D01*
X443568Y412200D01*
X443466Y412105D01*
X443366Y412007D01*
X443269Y411906D01*
X443175Y411802D01*
X443085Y411696D01*
X442997Y411587D01*
X442912Y411476D01*
X442831Y411362D01*
X442752Y411247D01*
X442677Y411129D01*
X442606Y411009D01*
X442538Y410886D01*
X442473Y410763D01*
X442412Y410637D01*
X442354Y410509D01*
X442300Y410381D01*
X442250Y410250D01*
X442203Y410118D01*
X442160Y409985D01*
X442121Y409851D01*
X442086Y409716D01*
X442055Y409580D01*
X442027Y409442D01*
X442004Y409305D01*
X441984Y409166D01*
X441968Y409027D01*
X441956Y408888D01*
X441948Y408749D01*
X441944Y408609D01*
X441944Y408469D01*
X441948Y408329D01*
X441956Y408190D01*
X441968Y408051D01*
X441984Y407912D01*
X442004Y407773D01*
X442027Y407636D01*
X442055Y407498D01*
X442086Y407362D01*
X442121Y407227D01*
X442160Y407093D01*
X442203Y406960D01*
X442250Y406828D01*
X442300Y406697D01*
X442354Y406569D01*
X442412Y406441D01*
X442473Y406315D01*
X442538Y406192D01*
X442606Y406070D01*
X442677Y405949D01*
X442752Y405831D01*
X442831Y405716D01*
X442912Y405602D01*
X442997Y405491D01*
X443085Y405382D01*
X443175Y405276D01*
X443269Y405172D01*
X443366Y405071D01*
X443466Y404973D01*
X443568Y404878D01*
X443673Y404786D01*
X443780Y404696D01*
X443890Y404610D01*
X444003Y404527D01*
X444117Y404447D01*
X444234Y404370D01*
X444353Y404297D01*
X444474Y404227D01*
X444597Y404161D01*
X444722Y404098D01*
X444849Y404038D01*
X444977Y403983D01*
X445106Y403931D01*
X445238Y403882D01*
X445370Y403837D01*
X445504Y403796D01*
X445638Y403759D01*
X445774Y403726D01*
X445911Y403697D01*
X446048Y403671D01*
X446186Y403649D01*
X446325Y403632D01*
X446464Y403618D01*
X446604Y403608D01*
X446743Y403602D01*
X446883Y403600D01*
X451821Y403600D01*
X435826Y409526D02*
X430887Y413478D01*
X430887Y395698D01*
X425949Y395698D02*
X435826Y395698D01*
X453726Y298290D02*
X453726Y280510D01*
X453726Y298290D02*
X448788Y298290D01*
X448648Y298288D01*
X448509Y298282D01*
X448369Y298272D01*
X448230Y298258D01*
X448091Y298241D01*
X447953Y298219D01*
X447816Y298193D01*
X447679Y298164D01*
X447543Y298131D01*
X447409Y298094D01*
X447275Y298053D01*
X447143Y298008D01*
X447011Y297959D01*
X446882Y297907D01*
X446754Y297852D01*
X446627Y297792D01*
X446502Y297729D01*
X446379Y297663D01*
X446258Y297593D01*
X446139Y297520D01*
X446022Y297443D01*
X445908Y297363D01*
X445795Y297280D01*
X445685Y297194D01*
X445578Y297104D01*
X445473Y297012D01*
X445371Y296917D01*
X445271Y296819D01*
X445174Y296718D01*
X445080Y296614D01*
X444990Y296508D01*
X444902Y296399D01*
X444817Y296288D01*
X444736Y296174D01*
X444657Y296059D01*
X444582Y295941D01*
X444511Y295821D01*
X444443Y295698D01*
X444378Y295575D01*
X444317Y295449D01*
X444259Y295321D01*
X444205Y295193D01*
X444155Y295062D01*
X444108Y294930D01*
X444065Y294797D01*
X444026Y294663D01*
X443991Y294528D01*
X443960Y294392D01*
X443932Y294254D01*
X443909Y294117D01*
X443889Y293978D01*
X443873Y293839D01*
X443861Y293700D01*
X443853Y293561D01*
X443849Y293421D01*
X443849Y293281D01*
X443853Y293141D01*
X443861Y293002D01*
X443873Y292863D01*
X443889Y292724D01*
X443909Y292585D01*
X443932Y292448D01*
X443960Y292310D01*
X443991Y292174D01*
X444026Y292039D01*
X444065Y291905D01*
X444108Y291772D01*
X444155Y291640D01*
X444205Y291509D01*
X444259Y291381D01*
X444317Y291253D01*
X444378Y291127D01*
X444443Y291004D01*
X444511Y290882D01*
X444582Y290761D01*
X444657Y290643D01*
X444736Y290528D01*
X444817Y290414D01*
X444902Y290303D01*
X444990Y290194D01*
X445080Y290088D01*
X445174Y289984D01*
X445271Y289883D01*
X445371Y289785D01*
X445473Y289690D01*
X445578Y289598D01*
X445685Y289508D01*
X445795Y289422D01*
X445908Y289339D01*
X446022Y289259D01*
X446139Y289182D01*
X446258Y289109D01*
X446379Y289039D01*
X446502Y288973D01*
X446627Y288910D01*
X446754Y288850D01*
X446882Y288795D01*
X447011Y288743D01*
X447143Y288694D01*
X447275Y288649D01*
X447409Y288608D01*
X447543Y288571D01*
X447679Y288538D01*
X447816Y288509D01*
X447953Y288483D01*
X448091Y288461D01*
X448230Y288444D01*
X448369Y288430D01*
X448509Y288420D01*
X448648Y288414D01*
X448788Y288412D01*
X453726Y288412D01*
X432299Y298290D02*
X432167Y298288D01*
X432036Y298282D01*
X431904Y298272D01*
X431773Y298259D01*
X431643Y298241D01*
X431513Y298220D01*
X431383Y298195D01*
X431255Y298166D01*
X431127Y298133D01*
X431001Y298096D01*
X430875Y298056D01*
X430751Y298012D01*
X430628Y297964D01*
X430507Y297913D01*
X430387Y297858D01*
X430269Y297800D01*
X430153Y297738D01*
X430039Y297672D01*
X429926Y297604D01*
X429816Y297532D01*
X429708Y297457D01*
X429602Y297378D01*
X429498Y297297D01*
X429397Y297212D01*
X429299Y297125D01*
X429203Y297034D01*
X429110Y296941D01*
X429019Y296845D01*
X428932Y296747D01*
X428847Y296646D01*
X428766Y296542D01*
X428687Y296436D01*
X428612Y296328D01*
X428540Y296218D01*
X428472Y296105D01*
X428406Y295991D01*
X428344Y295875D01*
X428286Y295757D01*
X428231Y295637D01*
X428180Y295516D01*
X428132Y295393D01*
X428088Y295269D01*
X428048Y295143D01*
X428011Y295017D01*
X427978Y294889D01*
X427949Y294761D01*
X427924Y294631D01*
X427903Y294501D01*
X427885Y294371D01*
X427872Y294240D01*
X427862Y294108D01*
X427856Y293977D01*
X427854Y293845D01*
X432299Y298290D02*
X432449Y298288D01*
X432598Y298282D01*
X432747Y298272D01*
X432896Y298259D01*
X433045Y298241D01*
X433193Y298220D01*
X433341Y298194D01*
X433487Y298165D01*
X433633Y298132D01*
X433778Y298095D01*
X433922Y298054D01*
X434065Y298010D01*
X434207Y297962D01*
X434347Y297910D01*
X434486Y297855D01*
X434624Y297796D01*
X434759Y297733D01*
X434894Y297667D01*
X435026Y297597D01*
X435156Y297524D01*
X435285Y297447D01*
X435412Y297367D01*
X435536Y297284D01*
X435658Y297198D01*
X435778Y297108D01*
X435895Y297015D01*
X436010Y296920D01*
X436123Y296821D01*
X436233Y296719D01*
X436340Y296615D01*
X436444Y296508D01*
X436546Y296398D01*
X436644Y296285D01*
X436740Y296170D01*
X436832Y296052D01*
X436922Y295932D01*
X437008Y295810D01*
X437091Y295686D01*
X437171Y295559D01*
X437247Y295431D01*
X437320Y295300D01*
X437390Y295167D01*
X437456Y295033D01*
X437518Y294897D01*
X437577Y294760D01*
X437633Y294621D01*
X437684Y294480D01*
X437732Y294339D01*
X429336Y290388D02*
X429240Y290481D01*
X429148Y290577D01*
X429058Y290676D01*
X428971Y290777D01*
X428887Y290880D01*
X428805Y290985D01*
X428727Y291093D01*
X428652Y291203D01*
X428579Y291315D01*
X428510Y291429D01*
X428444Y291545D01*
X428382Y291663D01*
X428323Y291782D01*
X428267Y291903D01*
X428214Y292026D01*
X428165Y292150D01*
X428120Y292275D01*
X428077Y292402D01*
X428039Y292529D01*
X428004Y292658D01*
X427973Y292787D01*
X427945Y292918D01*
X427921Y293049D01*
X427900Y293181D01*
X427884Y293313D01*
X427871Y293446D01*
X427861Y293579D01*
X427856Y293712D01*
X427854Y293845D01*
X429335Y290388D02*
X437731Y280510D01*
X427854Y280510D01*
X260736Y280510D02*
X260736Y298290D01*
X255798Y298290D01*
X255658Y298288D01*
X255519Y298282D01*
X255379Y298272D01*
X255240Y298258D01*
X255101Y298241D01*
X254963Y298219D01*
X254826Y298193D01*
X254689Y298164D01*
X254553Y298131D01*
X254419Y298094D01*
X254285Y298053D01*
X254153Y298008D01*
X254021Y297959D01*
X253892Y297907D01*
X253764Y297852D01*
X253637Y297792D01*
X253512Y297729D01*
X253389Y297663D01*
X253268Y297593D01*
X253149Y297520D01*
X253032Y297443D01*
X252918Y297363D01*
X252805Y297280D01*
X252695Y297194D01*
X252588Y297104D01*
X252483Y297012D01*
X252381Y296917D01*
X252281Y296819D01*
X252184Y296718D01*
X252090Y296614D01*
X252000Y296508D01*
X251912Y296399D01*
X251827Y296288D01*
X251746Y296174D01*
X251667Y296059D01*
X251592Y295941D01*
X251521Y295821D01*
X251453Y295698D01*
X251388Y295575D01*
X251327Y295449D01*
X251269Y295321D01*
X251215Y295193D01*
X251165Y295062D01*
X251118Y294930D01*
X251075Y294797D01*
X251036Y294663D01*
X251001Y294528D01*
X250970Y294392D01*
X250942Y294254D01*
X250919Y294117D01*
X250899Y293978D01*
X250883Y293839D01*
X250871Y293700D01*
X250863Y293561D01*
X250859Y293421D01*
X250859Y293281D01*
X250863Y293141D01*
X250871Y293002D01*
X250883Y292863D01*
X250899Y292724D01*
X250919Y292585D01*
X250942Y292448D01*
X250970Y292310D01*
X251001Y292174D01*
X251036Y292039D01*
X251075Y291905D01*
X251118Y291772D01*
X251165Y291640D01*
X251215Y291509D01*
X251269Y291381D01*
X251327Y291253D01*
X251388Y291127D01*
X251453Y291004D01*
X251521Y290882D01*
X251592Y290761D01*
X251667Y290643D01*
X251746Y290528D01*
X251827Y290414D01*
X251912Y290303D01*
X252000Y290194D01*
X252090Y290088D01*
X252184Y289984D01*
X252281Y289883D01*
X252381Y289785D01*
X252483Y289690D01*
X252588Y289598D01*
X252695Y289508D01*
X252805Y289422D01*
X252918Y289339D01*
X253032Y289259D01*
X253149Y289182D01*
X253268Y289109D01*
X253389Y289039D01*
X253512Y288973D01*
X253637Y288910D01*
X253764Y288850D01*
X253892Y288795D01*
X254021Y288743D01*
X254153Y288694D01*
X254285Y288649D01*
X254419Y288608D01*
X254553Y288571D01*
X254689Y288538D01*
X254826Y288509D01*
X254963Y288483D01*
X255101Y288461D01*
X255240Y288444D01*
X255379Y288430D01*
X255519Y288420D01*
X255658Y288414D01*
X255798Y288412D01*
X260736Y288412D01*
X244741Y280510D02*
X239802Y280510D01*
X239662Y280512D01*
X239523Y280518D01*
X239383Y280528D01*
X239244Y280542D01*
X239105Y280559D01*
X238967Y280581D01*
X238830Y280607D01*
X238693Y280636D01*
X238557Y280669D01*
X238423Y280706D01*
X238289Y280747D01*
X238157Y280792D01*
X238025Y280841D01*
X237896Y280893D01*
X237768Y280948D01*
X237641Y281008D01*
X237516Y281071D01*
X237393Y281137D01*
X237272Y281207D01*
X237153Y281280D01*
X237036Y281357D01*
X236922Y281437D01*
X236809Y281520D01*
X236699Y281606D01*
X236592Y281696D01*
X236487Y281788D01*
X236385Y281883D01*
X236285Y281981D01*
X236188Y282082D01*
X236094Y282186D01*
X236004Y282292D01*
X235916Y282401D01*
X235831Y282512D01*
X235750Y282626D01*
X235671Y282741D01*
X235596Y282859D01*
X235525Y282980D01*
X235457Y283102D01*
X235392Y283225D01*
X235331Y283351D01*
X235273Y283479D01*
X235219Y283607D01*
X235169Y283738D01*
X235122Y283870D01*
X235079Y284003D01*
X235040Y284137D01*
X235005Y284272D01*
X234974Y284408D01*
X234946Y284546D01*
X234923Y284683D01*
X234903Y284822D01*
X234887Y284961D01*
X234875Y285100D01*
X234867Y285239D01*
X234863Y285379D01*
X234863Y285519D01*
X234867Y285659D01*
X234875Y285798D01*
X234887Y285937D01*
X234903Y286076D01*
X234923Y286215D01*
X234946Y286352D01*
X234974Y286490D01*
X235005Y286626D01*
X235040Y286761D01*
X235079Y286895D01*
X235122Y287028D01*
X235169Y287160D01*
X235219Y287291D01*
X235273Y287419D01*
X235331Y287547D01*
X235392Y287673D01*
X235457Y287796D01*
X235525Y287919D01*
X235596Y288039D01*
X235671Y288157D01*
X235750Y288272D01*
X235831Y288386D01*
X235916Y288497D01*
X236004Y288606D01*
X236094Y288712D01*
X236188Y288816D01*
X236285Y288917D01*
X236385Y289015D01*
X236487Y289110D01*
X236592Y289202D01*
X236699Y289292D01*
X236809Y289378D01*
X236922Y289461D01*
X237036Y289541D01*
X237153Y289618D01*
X237272Y289691D01*
X237393Y289761D01*
X237516Y289827D01*
X237641Y289890D01*
X237768Y289950D01*
X237896Y290005D01*
X238025Y290057D01*
X238157Y290106D01*
X238289Y290151D01*
X238423Y290192D01*
X238557Y290229D01*
X238693Y290262D01*
X238830Y290291D01*
X238967Y290317D01*
X239105Y290339D01*
X239244Y290356D01*
X239383Y290370D01*
X239523Y290380D01*
X239662Y290386D01*
X239802Y290388D01*
X238815Y298290D02*
X244741Y298290D01*
X238815Y298290D02*
X238691Y298288D01*
X238567Y298282D01*
X238443Y298272D01*
X238320Y298259D01*
X238197Y298241D01*
X238075Y298220D01*
X237953Y298195D01*
X237832Y298166D01*
X237713Y298133D01*
X237594Y298097D01*
X237477Y298056D01*
X237361Y298013D01*
X237246Y297965D01*
X237133Y297914D01*
X237021Y297859D01*
X236912Y297801D01*
X236804Y297740D01*
X236698Y297675D01*
X236594Y297607D01*
X236493Y297535D01*
X236393Y297461D01*
X236297Y297383D01*
X236202Y297303D01*
X236110Y297219D01*
X236021Y297133D01*
X235935Y297044D01*
X235851Y296952D01*
X235771Y296857D01*
X235693Y296761D01*
X235619Y296661D01*
X235547Y296560D01*
X235479Y296456D01*
X235414Y296350D01*
X235353Y296242D01*
X235295Y296133D01*
X235240Y296021D01*
X235189Y295908D01*
X235141Y295793D01*
X235098Y295677D01*
X235057Y295560D01*
X235021Y295441D01*
X234988Y295322D01*
X234959Y295201D01*
X234934Y295079D01*
X234913Y294957D01*
X234895Y294834D01*
X234882Y294711D01*
X234872Y294587D01*
X234866Y294463D01*
X234864Y294339D01*
X234866Y294215D01*
X234872Y294091D01*
X234882Y293967D01*
X234895Y293844D01*
X234913Y293721D01*
X234934Y293599D01*
X234959Y293477D01*
X234988Y293356D01*
X235021Y293237D01*
X235057Y293118D01*
X235098Y293001D01*
X235141Y292885D01*
X235189Y292770D01*
X235240Y292657D01*
X235295Y292545D01*
X235353Y292436D01*
X235414Y292328D01*
X235479Y292222D01*
X235547Y292118D01*
X235619Y292017D01*
X235693Y291917D01*
X235771Y291821D01*
X235851Y291726D01*
X235935Y291634D01*
X236021Y291545D01*
X236110Y291459D01*
X236202Y291375D01*
X236297Y291295D01*
X236393Y291217D01*
X236493Y291143D01*
X236594Y291071D01*
X236698Y291003D01*
X236804Y290938D01*
X236912Y290877D01*
X237021Y290819D01*
X237133Y290764D01*
X237246Y290713D01*
X237361Y290665D01*
X237477Y290622D01*
X237594Y290581D01*
X237713Y290545D01*
X237832Y290512D01*
X237953Y290483D01*
X238075Y290458D01*
X238197Y290437D01*
X238320Y290419D01*
X238443Y290406D01*
X238567Y290396D01*
X238691Y290390D01*
X238815Y290388D01*
X242766Y290388D01*
X260736Y394110D02*
X260736Y411890D01*
X255798Y411890D01*
X255658Y411888D01*
X255519Y411882D01*
X255379Y411872D01*
X255240Y411858D01*
X255101Y411841D01*
X254963Y411819D01*
X254826Y411793D01*
X254689Y411764D01*
X254553Y411731D01*
X254419Y411694D01*
X254285Y411653D01*
X254153Y411608D01*
X254021Y411559D01*
X253892Y411507D01*
X253764Y411452D01*
X253637Y411392D01*
X253512Y411329D01*
X253389Y411263D01*
X253268Y411193D01*
X253149Y411120D01*
X253032Y411043D01*
X252918Y410963D01*
X252805Y410880D01*
X252695Y410794D01*
X252588Y410704D01*
X252483Y410612D01*
X252381Y410517D01*
X252281Y410419D01*
X252184Y410318D01*
X252090Y410214D01*
X252000Y410108D01*
X251912Y409999D01*
X251827Y409888D01*
X251746Y409774D01*
X251667Y409659D01*
X251592Y409541D01*
X251521Y409421D01*
X251453Y409298D01*
X251388Y409175D01*
X251327Y409049D01*
X251269Y408921D01*
X251215Y408793D01*
X251165Y408662D01*
X251118Y408530D01*
X251075Y408397D01*
X251036Y408263D01*
X251001Y408128D01*
X250970Y407992D01*
X250942Y407854D01*
X250919Y407717D01*
X250899Y407578D01*
X250883Y407439D01*
X250871Y407300D01*
X250863Y407161D01*
X250859Y407021D01*
X250859Y406881D01*
X250863Y406741D01*
X250871Y406602D01*
X250883Y406463D01*
X250899Y406324D01*
X250919Y406185D01*
X250942Y406048D01*
X250970Y405910D01*
X251001Y405774D01*
X251036Y405639D01*
X251075Y405505D01*
X251118Y405372D01*
X251165Y405240D01*
X251215Y405109D01*
X251269Y404981D01*
X251327Y404853D01*
X251388Y404727D01*
X251453Y404604D01*
X251521Y404482D01*
X251592Y404361D01*
X251667Y404243D01*
X251746Y404128D01*
X251827Y404014D01*
X251912Y403903D01*
X252000Y403794D01*
X252090Y403688D01*
X252184Y403584D01*
X252281Y403483D01*
X252381Y403385D01*
X252483Y403290D01*
X252588Y403198D01*
X252695Y403108D01*
X252805Y403022D01*
X252918Y402939D01*
X253032Y402859D01*
X253149Y402782D01*
X253268Y402709D01*
X253389Y402639D01*
X253512Y402573D01*
X253637Y402510D01*
X253764Y402450D01*
X253892Y402395D01*
X254021Y402343D01*
X254153Y402294D01*
X254285Y402249D01*
X254419Y402208D01*
X254553Y402171D01*
X254689Y402138D01*
X254826Y402109D01*
X254963Y402083D01*
X255101Y402061D01*
X255240Y402044D01*
X255379Y402030D01*
X255519Y402020D01*
X255658Y402014D01*
X255798Y402012D01*
X260736Y402012D01*
X244741Y398061D02*
X240790Y411890D01*
X244741Y398061D02*
X234864Y398061D01*
X237827Y402012D02*
X237827Y394110D01*
X393893Y245951D02*
X393893Y228171D01*
X393893Y238049D02*
X384015Y238049D01*
X384015Y245951D02*
X384015Y228171D01*
X376584Y232122D02*
X372633Y245951D01*
X376584Y232122D02*
X366706Y232122D01*
X369670Y236073D02*
X369670Y228171D01*
X359834Y237061D02*
X359830Y237411D01*
X359817Y237760D01*
X359796Y238109D01*
X359767Y238458D01*
X359730Y238806D01*
X359684Y239153D01*
X359630Y239498D01*
X359568Y239842D01*
X359497Y240185D01*
X359418Y240526D01*
X359332Y240865D01*
X359237Y241201D01*
X359134Y241536D01*
X359023Y241867D01*
X358905Y242197D01*
X358778Y242523D01*
X358644Y242846D01*
X358502Y243165D01*
X358352Y243482D01*
X358352Y243481D02*
X358312Y243594D01*
X358268Y243704D01*
X358220Y243814D01*
X358169Y243921D01*
X358114Y244027D01*
X358056Y244132D01*
X357994Y244234D01*
X357929Y244334D01*
X357861Y244432D01*
X357790Y244528D01*
X357715Y244621D01*
X357638Y244712D01*
X357558Y244800D01*
X357475Y244885D01*
X357389Y244968D01*
X357300Y245048D01*
X357209Y245125D01*
X357115Y245199D01*
X357019Y245270D01*
X356921Y245338D01*
X356821Y245402D01*
X356718Y245464D01*
X356614Y245521D01*
X356508Y245576D01*
X356400Y245627D01*
X356290Y245674D01*
X356179Y245718D01*
X356067Y245758D01*
X355953Y245794D01*
X355839Y245827D01*
X355723Y245856D01*
X355606Y245881D01*
X355489Y245902D01*
X355371Y245920D01*
X355252Y245933D01*
X355133Y245943D01*
X355014Y245949D01*
X354895Y245951D01*
X354776Y245949D01*
X354657Y245943D01*
X354538Y245933D01*
X354419Y245920D01*
X354301Y245902D01*
X354184Y245881D01*
X354067Y245856D01*
X353951Y245827D01*
X353837Y245794D01*
X353723Y245758D01*
X353611Y245718D01*
X353500Y245674D01*
X353390Y245627D01*
X353282Y245576D01*
X353176Y245521D01*
X353072Y245464D01*
X352969Y245402D01*
X352869Y245338D01*
X352771Y245270D01*
X352675Y245199D01*
X352581Y245125D01*
X352490Y245048D01*
X352401Y244968D01*
X352316Y244885D01*
X352232Y244800D01*
X352152Y244712D01*
X352075Y244621D01*
X352000Y244528D01*
X351929Y244432D01*
X351861Y244334D01*
X351796Y244234D01*
X351734Y244132D01*
X351676Y244027D01*
X351621Y243922D01*
X351570Y243814D01*
X351522Y243704D01*
X351478Y243594D01*
X351438Y243481D01*
X351438Y243482D02*
X351288Y243165D01*
X351146Y242846D01*
X351012Y242523D01*
X350885Y242197D01*
X350767Y241867D01*
X350656Y241536D01*
X350553Y241201D01*
X350458Y240865D01*
X350372Y240526D01*
X350293Y240185D01*
X350222Y239842D01*
X350160Y239498D01*
X350106Y239153D01*
X350060Y238806D01*
X350023Y238458D01*
X349994Y238109D01*
X349973Y237760D01*
X349960Y237411D01*
X349956Y237061D01*
X359833Y237061D02*
X359829Y236711D01*
X359816Y236362D01*
X359795Y236013D01*
X359766Y235664D01*
X359729Y235316D01*
X359683Y234969D01*
X359629Y234624D01*
X359567Y234280D01*
X359496Y233937D01*
X359417Y233596D01*
X359331Y233257D01*
X359236Y232921D01*
X359133Y232586D01*
X359022Y232255D01*
X358904Y231926D01*
X358777Y231599D01*
X358643Y231276D01*
X358501Y230957D01*
X358351Y230641D01*
X358352Y230641D02*
X358312Y230528D01*
X358268Y230418D01*
X358220Y230308D01*
X358169Y230201D01*
X358114Y230095D01*
X358056Y229990D01*
X357994Y229888D01*
X357929Y229788D01*
X357861Y229690D01*
X357790Y229594D01*
X357715Y229501D01*
X357638Y229410D01*
X357558Y229322D01*
X357475Y229237D01*
X357389Y229154D01*
X357300Y229074D01*
X357209Y228997D01*
X357115Y228923D01*
X357019Y228852D01*
X356921Y228784D01*
X356821Y228720D01*
X356718Y228658D01*
X356614Y228601D01*
X356508Y228546D01*
X356400Y228495D01*
X356290Y228448D01*
X356179Y228404D01*
X356067Y228364D01*
X355953Y228328D01*
X355839Y228295D01*
X355723Y228266D01*
X355606Y228241D01*
X355489Y228220D01*
X355371Y228202D01*
X355252Y228189D01*
X355133Y228179D01*
X355014Y228173D01*
X354895Y228171D01*
X351438Y230641D02*
X351288Y230957D01*
X351146Y231276D01*
X351012Y231599D01*
X350885Y231926D01*
X350767Y232255D01*
X350656Y232586D01*
X350553Y232921D01*
X350458Y233257D01*
X350372Y233596D01*
X350293Y233937D01*
X350222Y234280D01*
X350160Y234624D01*
X350106Y234969D01*
X350060Y235316D01*
X350023Y235664D01*
X349994Y236013D01*
X349973Y236362D01*
X349960Y236711D01*
X349956Y237061D01*
X351438Y230641D02*
X351478Y230528D01*
X351522Y230418D01*
X351570Y230308D01*
X351621Y230200D01*
X351676Y230094D01*
X351734Y229990D01*
X351796Y229888D01*
X351861Y229788D01*
X351929Y229690D01*
X352000Y229594D01*
X352075Y229501D01*
X352152Y229410D01*
X352232Y229322D01*
X352316Y229237D01*
X352401Y229154D01*
X352490Y229074D01*
X352581Y228997D01*
X352675Y228923D01*
X352771Y228852D01*
X352869Y228784D01*
X352969Y228720D01*
X353072Y228658D01*
X353176Y228600D01*
X353282Y228546D01*
X353390Y228495D01*
X353500Y228448D01*
X353611Y228404D01*
X353723Y228364D01*
X353837Y228328D01*
X353951Y228295D01*
X354067Y228266D01*
X354184Y228241D01*
X354301Y228220D01*
X354419Y228202D01*
X354538Y228189D01*
X354657Y228179D01*
X354776Y228173D01*
X354895Y228171D01*
X358846Y232122D02*
X350944Y242000D01*
X342439Y245951D02*
X342439Y228171D01*
X342439Y245951D02*
X337500Y245951D01*
X337360Y245949D01*
X337221Y245943D01*
X337081Y245933D01*
X336942Y245919D01*
X336803Y245902D01*
X336665Y245880D01*
X336528Y245854D01*
X336391Y245825D01*
X336255Y245792D01*
X336121Y245755D01*
X335987Y245714D01*
X335855Y245669D01*
X335723Y245620D01*
X335594Y245568D01*
X335466Y245513D01*
X335339Y245453D01*
X335214Y245390D01*
X335091Y245324D01*
X334970Y245254D01*
X334851Y245181D01*
X334734Y245104D01*
X334620Y245024D01*
X334507Y244941D01*
X334397Y244855D01*
X334290Y244765D01*
X334185Y244673D01*
X334083Y244578D01*
X333983Y244480D01*
X333886Y244379D01*
X333792Y244275D01*
X333702Y244169D01*
X333614Y244060D01*
X333529Y243949D01*
X333448Y243835D01*
X333369Y243720D01*
X333294Y243602D01*
X333223Y243482D01*
X333155Y243359D01*
X333090Y243236D01*
X333029Y243110D01*
X332971Y242982D01*
X332917Y242854D01*
X332867Y242723D01*
X332820Y242591D01*
X332777Y242458D01*
X332738Y242324D01*
X332703Y242189D01*
X332672Y242053D01*
X332644Y241915D01*
X332621Y241778D01*
X332601Y241639D01*
X332585Y241500D01*
X332573Y241361D01*
X332565Y241222D01*
X332561Y241082D01*
X332561Y240942D01*
X332565Y240802D01*
X332573Y240663D01*
X332585Y240524D01*
X332601Y240385D01*
X332621Y240246D01*
X332644Y240109D01*
X332672Y239971D01*
X332703Y239835D01*
X332738Y239700D01*
X332777Y239566D01*
X332820Y239433D01*
X332867Y239301D01*
X332917Y239170D01*
X332971Y239042D01*
X333029Y238914D01*
X333090Y238788D01*
X333155Y238665D01*
X333223Y238542D01*
X333294Y238422D01*
X333369Y238304D01*
X333448Y238189D01*
X333529Y238075D01*
X333614Y237964D01*
X333702Y237855D01*
X333792Y237749D01*
X333886Y237645D01*
X333983Y237544D01*
X334083Y237446D01*
X334185Y237351D01*
X334290Y237259D01*
X334397Y237169D01*
X334507Y237083D01*
X334620Y237000D01*
X334734Y236920D01*
X334851Y236843D01*
X334970Y236770D01*
X335091Y236700D01*
X335214Y236634D01*
X335339Y236571D01*
X335466Y236511D01*
X335594Y236456D01*
X335723Y236404D01*
X335855Y236355D01*
X335987Y236310D01*
X336121Y236269D01*
X336255Y236232D01*
X336391Y236199D01*
X336528Y236170D01*
X336665Y236144D01*
X336803Y236122D01*
X336942Y236105D01*
X337081Y236091D01*
X337221Y236081D01*
X337360Y236075D01*
X337500Y236073D01*
X342439Y236073D01*
X336513Y236073D02*
X332562Y228171D01*
X325774Y237061D02*
X325770Y237411D01*
X325757Y237760D01*
X325736Y238109D01*
X325707Y238458D01*
X325670Y238806D01*
X325624Y239153D01*
X325570Y239498D01*
X325508Y239842D01*
X325437Y240185D01*
X325358Y240526D01*
X325272Y240865D01*
X325177Y241201D01*
X325074Y241536D01*
X324963Y241867D01*
X324845Y242197D01*
X324718Y242523D01*
X324584Y242846D01*
X324442Y243165D01*
X324292Y243482D01*
X324293Y243481D02*
X324253Y243594D01*
X324209Y243704D01*
X324161Y243814D01*
X324110Y243921D01*
X324055Y244027D01*
X323997Y244132D01*
X323935Y244234D01*
X323870Y244334D01*
X323802Y244432D01*
X323731Y244528D01*
X323656Y244621D01*
X323579Y244712D01*
X323499Y244800D01*
X323416Y244885D01*
X323330Y244968D01*
X323241Y245048D01*
X323150Y245125D01*
X323056Y245199D01*
X322960Y245270D01*
X322862Y245338D01*
X322762Y245402D01*
X322659Y245464D01*
X322555Y245521D01*
X322449Y245576D01*
X322341Y245627D01*
X322231Y245674D01*
X322120Y245718D01*
X322008Y245758D01*
X321894Y245794D01*
X321780Y245827D01*
X321664Y245856D01*
X321547Y245881D01*
X321430Y245902D01*
X321312Y245920D01*
X321193Y245933D01*
X321074Y245943D01*
X320955Y245949D01*
X320836Y245951D01*
X320717Y245949D01*
X320598Y245943D01*
X320479Y245933D01*
X320360Y245920D01*
X320242Y245902D01*
X320125Y245881D01*
X320008Y245856D01*
X319892Y245827D01*
X319778Y245794D01*
X319664Y245758D01*
X319552Y245718D01*
X319441Y245674D01*
X319331Y245627D01*
X319223Y245576D01*
X319117Y245521D01*
X319013Y245464D01*
X318910Y245402D01*
X318810Y245338D01*
X318712Y245270D01*
X318616Y245199D01*
X318522Y245125D01*
X318431Y245048D01*
X318342Y244968D01*
X318257Y244885D01*
X318173Y244800D01*
X318093Y244712D01*
X318016Y244621D01*
X317941Y244528D01*
X317870Y244432D01*
X317802Y244334D01*
X317737Y244234D01*
X317675Y244132D01*
X317617Y244027D01*
X317562Y243922D01*
X317511Y243814D01*
X317463Y243704D01*
X317419Y243594D01*
X317379Y243481D01*
X317379Y243482D02*
X317229Y243165D01*
X317087Y242846D01*
X316953Y242523D01*
X316826Y242197D01*
X316708Y241867D01*
X316597Y241536D01*
X316494Y241201D01*
X316399Y240865D01*
X316313Y240526D01*
X316234Y240185D01*
X316163Y239842D01*
X316101Y239498D01*
X316047Y239153D01*
X316001Y238806D01*
X315964Y238458D01*
X315935Y238109D01*
X315914Y237760D01*
X315901Y237411D01*
X315897Y237061D01*
X325774Y237061D02*
X325770Y236711D01*
X325757Y236362D01*
X325736Y236013D01*
X325707Y235664D01*
X325670Y235316D01*
X325624Y234969D01*
X325570Y234624D01*
X325508Y234280D01*
X325437Y233937D01*
X325358Y233596D01*
X325272Y233257D01*
X325177Y232921D01*
X325074Y232586D01*
X324963Y232255D01*
X324845Y231926D01*
X324718Y231599D01*
X324584Y231276D01*
X324442Y230957D01*
X324292Y230641D01*
X324293Y230641D02*
X324253Y230528D01*
X324209Y230418D01*
X324161Y230308D01*
X324110Y230201D01*
X324055Y230095D01*
X323997Y229990D01*
X323935Y229888D01*
X323870Y229788D01*
X323802Y229690D01*
X323731Y229594D01*
X323656Y229501D01*
X323579Y229410D01*
X323499Y229322D01*
X323416Y229237D01*
X323330Y229154D01*
X323241Y229074D01*
X323150Y228997D01*
X323056Y228923D01*
X322960Y228852D01*
X322862Y228784D01*
X322762Y228720D01*
X322659Y228658D01*
X322555Y228601D01*
X322449Y228546D01*
X322341Y228495D01*
X322231Y228448D01*
X322120Y228404D01*
X322008Y228364D01*
X321894Y228328D01*
X321780Y228295D01*
X321664Y228266D01*
X321547Y228241D01*
X321430Y228220D01*
X321312Y228202D01*
X321193Y228189D01*
X321074Y228179D01*
X320955Y228173D01*
X320836Y228171D01*
X317379Y230641D02*
X317229Y230957D01*
X317087Y231276D01*
X316953Y231599D01*
X316826Y231926D01*
X316708Y232255D01*
X316597Y232586D01*
X316494Y232921D01*
X316399Y233257D01*
X316313Y233596D01*
X316234Y233937D01*
X316163Y234280D01*
X316101Y234624D01*
X316047Y234969D01*
X316001Y235316D01*
X315964Y235664D01*
X315935Y236013D01*
X315914Y236362D01*
X315901Y236711D01*
X315897Y237061D01*
X317379Y230641D02*
X317419Y230528D01*
X317463Y230418D01*
X317511Y230308D01*
X317562Y230200D01*
X317617Y230094D01*
X317675Y229990D01*
X317737Y229888D01*
X317802Y229788D01*
X317870Y229690D01*
X317941Y229594D01*
X318016Y229501D01*
X318093Y229410D01*
X318173Y229322D01*
X318257Y229237D01*
X318342Y229154D01*
X318431Y229074D01*
X318522Y228997D01*
X318616Y228923D01*
X318712Y228852D01*
X318810Y228784D01*
X318910Y228720D01*
X319013Y228658D01*
X319117Y228600D01*
X319223Y228546D01*
X319331Y228495D01*
X319441Y228448D01*
X319552Y228404D01*
X319664Y228364D01*
X319778Y228328D01*
X319892Y228295D01*
X320008Y228266D01*
X320125Y228241D01*
X320242Y228220D01*
X320360Y228202D01*
X320479Y228189D01*
X320598Y228179D01*
X320717Y228173D01*
X320836Y228171D01*
X324787Y232122D02*
X316884Y242000D01*
X309024Y237061D02*
X309020Y237411D01*
X309007Y237760D01*
X308986Y238109D01*
X308957Y238458D01*
X308920Y238806D01*
X308874Y239153D01*
X308820Y239498D01*
X308758Y239842D01*
X308687Y240185D01*
X308608Y240526D01*
X308522Y240865D01*
X308427Y241201D01*
X308324Y241536D01*
X308213Y241867D01*
X308095Y242197D01*
X307968Y242523D01*
X307834Y242846D01*
X307692Y243165D01*
X307542Y243482D01*
X307542Y243481D02*
X307502Y243594D01*
X307458Y243704D01*
X307410Y243814D01*
X307359Y243921D01*
X307304Y244027D01*
X307246Y244132D01*
X307184Y244234D01*
X307119Y244334D01*
X307051Y244432D01*
X306980Y244528D01*
X306905Y244621D01*
X306828Y244712D01*
X306748Y244800D01*
X306665Y244885D01*
X306579Y244968D01*
X306490Y245048D01*
X306399Y245125D01*
X306305Y245199D01*
X306209Y245270D01*
X306111Y245338D01*
X306011Y245402D01*
X305908Y245464D01*
X305804Y245521D01*
X305698Y245576D01*
X305590Y245627D01*
X305480Y245674D01*
X305369Y245718D01*
X305257Y245758D01*
X305143Y245794D01*
X305029Y245827D01*
X304913Y245856D01*
X304796Y245881D01*
X304679Y245902D01*
X304561Y245920D01*
X304442Y245933D01*
X304323Y245943D01*
X304204Y245949D01*
X304085Y245951D01*
X303966Y245949D01*
X303847Y245943D01*
X303728Y245933D01*
X303609Y245920D01*
X303491Y245902D01*
X303374Y245881D01*
X303257Y245856D01*
X303141Y245827D01*
X303027Y245794D01*
X302913Y245758D01*
X302801Y245718D01*
X302690Y245674D01*
X302580Y245627D01*
X302472Y245576D01*
X302366Y245521D01*
X302262Y245464D01*
X302159Y245402D01*
X302059Y245338D01*
X301961Y245270D01*
X301865Y245199D01*
X301771Y245125D01*
X301680Y245048D01*
X301591Y244968D01*
X301506Y244885D01*
X301422Y244800D01*
X301342Y244712D01*
X301265Y244621D01*
X301190Y244528D01*
X301119Y244432D01*
X301051Y244334D01*
X300986Y244234D01*
X300924Y244132D01*
X300866Y244027D01*
X300811Y243922D01*
X300760Y243814D01*
X300712Y243704D01*
X300668Y243594D01*
X300628Y243481D01*
X300628Y243482D02*
X300478Y243165D01*
X300336Y242846D01*
X300202Y242523D01*
X300075Y242197D01*
X299957Y241867D01*
X299846Y241536D01*
X299743Y241201D01*
X299648Y240865D01*
X299562Y240526D01*
X299483Y240185D01*
X299412Y239842D01*
X299350Y239498D01*
X299296Y239153D01*
X299250Y238806D01*
X299213Y238458D01*
X299184Y238109D01*
X299163Y237760D01*
X299150Y237411D01*
X299146Y237061D01*
X309024Y237061D02*
X309020Y236711D01*
X309007Y236362D01*
X308986Y236013D01*
X308957Y235664D01*
X308920Y235316D01*
X308874Y234969D01*
X308820Y234624D01*
X308758Y234280D01*
X308687Y233937D01*
X308608Y233596D01*
X308522Y233257D01*
X308427Y232921D01*
X308324Y232586D01*
X308213Y232255D01*
X308095Y231926D01*
X307968Y231599D01*
X307834Y231276D01*
X307692Y230957D01*
X307542Y230641D01*
X307502Y230528D01*
X307458Y230418D01*
X307410Y230308D01*
X307359Y230201D01*
X307304Y230095D01*
X307246Y229990D01*
X307184Y229888D01*
X307119Y229788D01*
X307051Y229690D01*
X306980Y229594D01*
X306905Y229501D01*
X306828Y229410D01*
X306748Y229322D01*
X306665Y229237D01*
X306579Y229154D01*
X306490Y229074D01*
X306399Y228997D01*
X306305Y228923D01*
X306209Y228852D01*
X306111Y228784D01*
X306011Y228720D01*
X305908Y228658D01*
X305804Y228601D01*
X305698Y228546D01*
X305590Y228495D01*
X305480Y228448D01*
X305369Y228404D01*
X305257Y228364D01*
X305143Y228328D01*
X305029Y228295D01*
X304913Y228266D01*
X304796Y228241D01*
X304679Y228220D01*
X304561Y228202D01*
X304442Y228189D01*
X304323Y228179D01*
X304204Y228173D01*
X304085Y228171D01*
X300628Y230641D02*
X300478Y230957D01*
X300336Y231276D01*
X300202Y231599D01*
X300075Y231926D01*
X299957Y232255D01*
X299846Y232586D01*
X299743Y232921D01*
X299648Y233257D01*
X299562Y233596D01*
X299483Y233937D01*
X299412Y234280D01*
X299350Y234624D01*
X299296Y234969D01*
X299250Y235316D01*
X299213Y235664D01*
X299184Y236013D01*
X299163Y236362D01*
X299150Y236711D01*
X299146Y237061D01*
X300628Y230641D02*
X300668Y230528D01*
X300712Y230418D01*
X300760Y230308D01*
X300811Y230200D01*
X300866Y230094D01*
X300924Y229990D01*
X300986Y229888D01*
X301051Y229788D01*
X301119Y229690D01*
X301190Y229594D01*
X301265Y229501D01*
X301342Y229410D01*
X301422Y229322D01*
X301506Y229237D01*
X301591Y229154D01*
X301680Y229074D01*
X301771Y228997D01*
X301865Y228923D01*
X301961Y228852D01*
X302059Y228784D01*
X302159Y228720D01*
X302262Y228658D01*
X302366Y228600D01*
X302472Y228546D01*
X302580Y228495D01*
X302690Y228448D01*
X302801Y228404D01*
X302913Y228364D01*
X303027Y228328D01*
X303141Y228295D01*
X303257Y228266D01*
X303374Y228241D01*
X303491Y228220D01*
X303609Y228202D01*
X303728Y228189D01*
X303847Y228179D01*
X303966Y228173D01*
X304085Y228171D01*
X308036Y232122D02*
X300134Y242000D01*
D13*
X353228Y338689D03*
D14*
X353743Y338836D03*
D15*
X354333Y338983D03*
D16*
X354775Y339131D03*
D17*
X355290Y339278D03*
D18*
X355732Y339425D03*
D19*
X356321Y339573D03*
D20*
X356837Y339720D03*
D21*
X357279Y339867D03*
D22*
X357721Y340015D03*
D23*
X357795Y340162D03*
D24*
X357721Y340309D03*
D25*
X357647Y340457D03*
D26*
X357721Y340604D03*
D27*
X357647Y340751D03*
D28*
X357647Y340898D03*
D29*
X357574Y341046D03*
X357574Y341193D03*
D30*
X357574Y341340D03*
D31*
X357500Y341488D03*
D32*
X357500Y341635D03*
X357500Y341782D03*
D33*
X357426Y341930D03*
D34*
X357426Y342077D03*
D35*
X357353Y342224D03*
D36*
X357426Y342372D03*
D37*
X357353Y342519D03*
D38*
X357279Y342666D03*
D39*
X357279Y342814D03*
X357279Y342961D03*
D40*
X357205Y343108D03*
D41*
X357205Y343256D03*
D42*
X357132Y343403D03*
D43*
X357205Y343550D03*
D44*
X357132Y343698D03*
D45*
X357058Y343845D03*
D46*
X357058Y343992D03*
X357058Y344140D03*
D47*
X357058Y344287D03*
D48*
X356984Y344434D03*
X356984Y344581D03*
D49*
X356984Y344729D03*
D50*
X356911Y344876D03*
D51*
X356911Y345023D03*
X356911Y345171D03*
D52*
X356837Y345318D03*
D53*
X356837Y345465D03*
D54*
X356763Y345613D03*
D55*
X356837Y345760D03*
D56*
X356763Y345907D03*
D57*
X356690Y346055D03*
D58*
X336212Y346055D03*
D59*
X356690Y346202D03*
D60*
X336801Y346202D03*
D59*
X356690Y346349D03*
D61*
X337243Y346349D03*
D62*
X356690Y346497D03*
D63*
X337759Y346497D03*
D64*
X356616Y346644D03*
D65*
X338201Y346644D03*
D64*
X356616Y346791D03*
D66*
X338790Y346791D03*
D67*
X356690Y346939D03*
D68*
X339232Y346939D03*
D67*
X356690Y347086D03*
D69*
X339748Y347086D03*
D64*
X356763Y347233D03*
D70*
X340190Y347233D03*
D67*
X356837Y347381D03*
D22*
X340337Y347381D03*
D67*
X356837Y347528D03*
D24*
X340337Y347528D03*
D67*
X356984Y347675D03*
D25*
X340264Y347675D03*
D67*
X356984Y347823D03*
D26*
X340190Y347823D03*
D64*
X357058Y347970D03*
D27*
X340264Y347970D03*
D67*
X357132Y348117D03*
D71*
X340190Y348117D03*
D67*
X357132Y348264D03*
D29*
X340190Y348264D03*
D67*
X357279Y348412D03*
D72*
X340116Y348412D03*
D67*
X357279Y348559D03*
D72*
X340116Y348559D03*
D64*
X357353Y348706D03*
D31*
X340116Y348706D03*
D67*
X357426Y348854D03*
D73*
X340043Y348854D03*
D67*
X357426Y349001D03*
D33*
X340043Y349001D03*
D67*
X357574Y349148D03*
D33*
X340043Y349148D03*
D67*
X357574Y349296D03*
D74*
X339969Y349296D03*
D64*
X357647Y349443D03*
D35*
X339969Y349443D03*
D62*
X357574Y349590D03*
D36*
X339895Y349590D03*
D62*
X357574Y349738D03*
D37*
X339969Y349738D03*
D75*
X357574Y349885D03*
D76*
X339895Y349885D03*
D77*
X357500Y350032D03*
D78*
X339822Y350032D03*
D56*
X357500Y350180D03*
D79*
X339822Y350180D03*
D56*
X357500Y350327D03*
D79*
X339822Y350327D03*
D55*
X357426Y350474D03*
D80*
X339748Y350474D03*
D53*
X357426Y350622D03*
D42*
X339748Y350622D03*
D81*
X357353Y350769D03*
D42*
X339748Y350769D03*
D52*
X357426Y350916D03*
D44*
X339748Y350916D03*
D82*
X357353Y351064D03*
D45*
X339674Y351064D03*
D83*
X357279Y351211D03*
D84*
X339601Y351211D03*
D49*
X357279Y351358D03*
D85*
X339674Y351358D03*
D49*
X357279Y351506D03*
D86*
X339601Y351506D03*
D87*
X357205Y351653D03*
D48*
X339601Y351653D03*
D47*
X357205Y351800D03*
D87*
X339527Y351800D03*
D47*
X357205Y351947D03*
D87*
X339527Y351947D03*
D85*
X357205Y352095D03*
D50*
X339527Y352095D03*
D88*
X357132Y352242D03*
D83*
X339453Y352242D03*
D45*
X357058Y352389D03*
D52*
X339453Y352389D03*
D44*
X357132Y352537D03*
D52*
X339453Y352537D03*
D43*
X357058Y352684D03*
D81*
X339380Y352684D03*
D41*
X357058Y352831D03*
D54*
X339380Y352831D03*
D80*
X356984Y352979D03*
D55*
X339306Y352979D03*
D80*
X356984Y353126D03*
D56*
X339380Y353126D03*
D89*
X356984Y353273D03*
D90*
X339306Y353273D03*
D78*
X356911Y353421D03*
D77*
X339232Y353421D03*
D37*
X356911Y353568D03*
D91*
X339232Y353568D03*
D37*
X356911Y353715D03*
D91*
X339232Y353715D03*
D36*
X356837Y353863D03*
D64*
X339232Y353863D03*
D34*
X356837Y354010D03*
D67*
X339159Y354010D03*
D74*
X356763Y354157D03*
D64*
X339232Y354157D03*
D33*
X356837Y354305D03*
D67*
X339306Y354305D03*
D92*
X356763Y354452D03*
D67*
X339306Y354452D03*
D93*
X356690Y354599D03*
D64*
X339380Y354599D03*
D30*
X356690Y354747D03*
D67*
X339453Y354747D03*
D30*
X356690Y354894D03*
D67*
X339453Y354894D03*
D72*
X356616Y355041D03*
D67*
X339601Y355041D03*
D28*
X356616Y355189D03*
D67*
X339601Y355189D03*
D71*
X356542Y355336D03*
D64*
X339674Y355336D03*
D94*
X356616Y355483D03*
D67*
X339748Y355483D03*
D26*
X356542Y355630D03*
D67*
X339748Y355630D03*
D25*
X356469Y355778D03*
D67*
X339895Y355778D03*
D24*
X356542Y355925D03*
D67*
X339895Y355925D03*
D23*
X356469Y356072D03*
D64*
X339969Y356072D03*
D70*
X356542Y356220D03*
D67*
X340043Y356220D03*
D95*
X357058Y356367D03*
D67*
X340043Y356367D03*
D68*
X357647Y356514D03*
D67*
X340190Y356514D03*
D66*
X358089Y356662D03*
D67*
X340190Y356662D03*
D96*
X358605Y356809D03*
D62*
X340190Y356809D03*
D97*
X359047Y356956D03*
D91*
X340116Y356956D03*
D61*
X359636Y357104D03*
D91*
X340116Y357104D03*
D98*
X360152Y357251D03*
D99*
X340116Y357251D03*
D100*
X360594Y357398D03*
D57*
X340043Y357398D03*
D101*
X350797Y357546D03*
D56*
X340116Y357546D03*
D102*
X351313Y357693D03*
D55*
X340043Y357693D03*
D15*
X351828Y357840D03*
D54*
X339969Y357840D03*
D103*
X352344Y357988D03*
D81*
X339969Y357988D03*
D17*
X352786Y358135D03*
D81*
X339969Y358135D03*
D104*
X353301Y358282D03*
D82*
X339969Y358282D03*
D19*
X353817Y358430D03*
D105*
X339895Y358430D03*
D20*
X354333Y358577D03*
D50*
X339822Y358577D03*
D106*
X354848Y358724D03*
D49*
X339895Y358724D03*
D107*
X355290Y358872D03*
D87*
X339822Y358872D03*
D23*
X355290Y359019D03*
D48*
X339748Y359019D03*
D24*
X355216Y359166D03*
D86*
X339748Y359166D03*
D25*
X355143Y359313D03*
D86*
X339748Y359313D03*
D26*
X355216Y359461D03*
D88*
X339748Y359461D03*
D27*
X355143Y359608D03*
D45*
X339674Y359608D03*
D108*
X355143Y359755D03*
D44*
X339601Y359755D03*
D29*
X355069Y359903D03*
D43*
X339674Y359903D03*
D29*
X355069Y360050D03*
D42*
X339601Y360050D03*
D30*
X355069Y360197D03*
D80*
X339601Y360197D03*
D31*
X354996Y360345D03*
D40*
X339527Y360345D03*
D32*
X354996Y360492D03*
D40*
X339527Y360492D03*
D32*
X354996Y360639D03*
D109*
X339527Y360639D03*
D33*
X354922Y360787D03*
D76*
X339453Y360787D03*
D34*
X354922Y360934D03*
D36*
X339453Y360934D03*
D35*
X354848Y361081D03*
D36*
X339453Y361081D03*
X354922Y361229D03*
D35*
X339380Y361229D03*
D37*
X354848Y361376D03*
D74*
X339380Y361376D03*
D76*
X354775Y361523D03*
D74*
X339380Y361523D03*
D39*
X354775Y361671D03*
D92*
X339380Y361671D03*
D39*
X354775Y361818D03*
D73*
X339306Y361818D03*
D80*
X354775Y361965D03*
D31*
X339232Y361965D03*
D41*
X354701Y362113D03*
D30*
X339306Y362113D03*
D42*
X354627Y362260D03*
D72*
X339232Y362260D03*
D43*
X354701Y362407D03*
D28*
X339232Y362407D03*
D44*
X354627Y362555D03*
D110*
X339159Y362555D03*
D88*
X354627Y362702D03*
D110*
X339159Y362702D03*
D46*
X354554Y362849D03*
D26*
X339159Y362849D03*
D46*
X354554Y362996D03*
D25*
X339085Y362996D03*
D47*
X354554Y363144D03*
D24*
X339011Y363144D03*
D48*
X354480Y363291D03*
D23*
X339085Y363291D03*
D48*
X354480Y363438D03*
D107*
X339085Y363438D03*
D49*
X354480Y363586D03*
D111*
X339527Y363586D03*
D50*
X354406Y363733D03*
D112*
X340043Y363733D03*
D51*
X354406Y363880D03*
D19*
X340558Y363880D03*
D51*
X354406Y364028D03*
D113*
X341074Y364028D03*
D52*
X354333Y364175D03*
D114*
X341516Y364175D03*
D53*
X354333Y364322D03*
D115*
X342031Y364322D03*
D54*
X354259Y364470D03*
D15*
X342547Y364470D03*
D55*
X354333Y364617D03*
D116*
X343063Y364617D03*
D56*
X354259Y364764D03*
D13*
X343505Y364764D03*
D57*
X354185Y364912D03*
D59*
X354185Y365059D03*
X354185Y365206D03*
D62*
X354185Y365354D03*
D64*
X354112Y365501D03*
X354112Y365648D03*
D67*
X354185Y365796D03*
X354185Y365943D03*
X354333Y366090D03*
X354333Y366238D03*
D64*
X354406Y366385D03*
D67*
X354480Y366532D03*
X354480Y366679D03*
X354627Y366827D03*
X354627Y366974D03*
D64*
X354701Y367121D03*
D67*
X354775Y367269D03*
X354775Y367416D03*
D64*
X354848Y367563D03*
D67*
X354922Y367711D03*
X354922Y367858D03*
X355069Y368005D03*
X355069Y368153D03*
D64*
X355143Y368300D03*
D62*
X355069Y368447D03*
X355069Y368595D03*
D75*
X355069Y368742D03*
D77*
X354996Y368889D03*
D56*
X354996Y369037D03*
X354996Y369184D03*
D55*
X354922Y369331D03*
D53*
X354922Y369479D03*
D81*
X354848Y369626D03*
D52*
X354922Y369773D03*
D82*
X354848Y369921D03*
D83*
X354775Y370068D03*
D117*
X354848Y370215D03*
D49*
X354775Y370362D03*
D48*
X354775Y370510D03*
D47*
X354701Y370657D03*
X354701Y370804D03*
D85*
X354701Y370952D03*
D88*
X354627Y371099D03*
D44*
X354627Y371246D03*
X354627Y371394D03*
D43*
X354554Y371541D03*
D41*
X354554Y371688D03*
D80*
X354480Y371836D03*
X354480Y371983D03*
D89*
X354480Y372130D03*
D78*
X354406Y372278D03*
D37*
X354406Y372425D03*
X354406Y372572D03*
D36*
X354333Y372720D03*
D34*
X354333Y372867D03*
D74*
X354259Y373014D03*
D33*
X354333Y373162D03*
D92*
X354259Y373309D03*
D93*
X354185Y373456D03*
D30*
X354185Y373604D03*
X354185Y373751D03*
D29*
X354185Y373898D03*
D28*
X354112Y374045D03*
D71*
X354038Y374193D03*
D94*
X354112Y374340D03*
D26*
X354038Y374487D03*
D24*
X354038Y374635D03*
X354038Y374782D03*
D23*
X353964Y374929D03*
D118*
X354112Y375077D03*
D119*
X354627Y375224D03*
D68*
X355143Y375371D03*
D120*
X355658Y375519D03*
D96*
X356100Y375666D03*
D121*
X356616Y375813D03*
D61*
X357132Y375961D03*
D98*
X357647Y376108D03*
D122*
X358163Y376255D03*
D10*
X427157Y379560D02*
X427157Y364066D01*
X427157Y379560D02*
X422853Y379560D01*
X422723Y379558D01*
X422593Y379552D01*
X422463Y379542D01*
X422334Y379529D01*
X422205Y379511D01*
X422077Y379490D01*
X421950Y379464D01*
X421823Y379435D01*
X421697Y379402D01*
X421573Y379365D01*
X421449Y379325D01*
X421327Y379280D01*
X421206Y379232D01*
X421087Y379181D01*
X420969Y379126D01*
X420853Y379067D01*
X420739Y379005D01*
X420626Y378939D01*
X420516Y378870D01*
X420408Y378798D01*
X420302Y378723D01*
X420199Y378644D01*
X420098Y378562D01*
X419999Y378478D01*
X419903Y378390D01*
X419810Y378299D01*
X419719Y378206D01*
X419631Y378110D01*
X419547Y378011D01*
X419465Y377910D01*
X419386Y377807D01*
X419311Y377701D01*
X419239Y377593D01*
X419170Y377483D01*
X419104Y377370D01*
X419042Y377256D01*
X418983Y377140D01*
X418928Y377022D01*
X418877Y376903D01*
X418829Y376782D01*
X418784Y376660D01*
X418744Y376536D01*
X418707Y376412D01*
X418674Y376286D01*
X418645Y376159D01*
X418619Y376032D01*
X418598Y375904D01*
X418580Y375775D01*
X418567Y375646D01*
X418557Y375516D01*
X418551Y375386D01*
X418549Y375256D01*
X418551Y375126D01*
X418557Y374996D01*
X418567Y374866D01*
X418580Y374737D01*
X418598Y374608D01*
X418619Y374480D01*
X418645Y374353D01*
X418674Y374226D01*
X418707Y374100D01*
X418744Y373976D01*
X418784Y373852D01*
X418829Y373730D01*
X418877Y373609D01*
X418928Y373490D01*
X418983Y373372D01*
X419042Y373256D01*
X419104Y373142D01*
X419170Y373029D01*
X419239Y372919D01*
X419311Y372811D01*
X419386Y372705D01*
X419465Y372602D01*
X419547Y372501D01*
X419631Y372402D01*
X419719Y372306D01*
X419810Y372213D01*
X419903Y372122D01*
X419999Y372034D01*
X420098Y371950D01*
X420199Y371868D01*
X420302Y371789D01*
X420408Y371714D01*
X420516Y371642D01*
X420626Y371573D01*
X420739Y371507D01*
X420853Y371445D01*
X420969Y371386D01*
X421087Y371331D01*
X421206Y371280D01*
X421327Y371232D01*
X421449Y371187D01*
X421573Y371147D01*
X421697Y371110D01*
X421823Y371077D01*
X421950Y371048D01*
X422077Y371022D01*
X422205Y371001D01*
X422334Y370983D01*
X422463Y370970D01*
X422593Y370960D01*
X422723Y370954D01*
X422853Y370952D01*
X427157Y370952D01*
X421992Y370952D02*
X418549Y364066D01*
D123*
X314579Y461391D02*
X314579Y470789D01*
X311968Y470789D01*
X311867Y470787D01*
X311766Y470781D01*
X311665Y470771D01*
X311565Y470758D01*
X311465Y470740D01*
X311366Y470719D01*
X311268Y470693D01*
X311171Y470664D01*
X311075Y470632D01*
X310981Y470595D01*
X310888Y470555D01*
X310796Y470511D01*
X310707Y470464D01*
X310619Y470413D01*
X310533Y470359D01*
X310450Y470302D01*
X310368Y470242D01*
X310290Y470178D01*
X310213Y470112D01*
X310140Y470042D01*
X310069Y469970D01*
X310001Y469895D01*
X309936Y469817D01*
X309874Y469737D01*
X309815Y469655D01*
X309759Y469570D01*
X309707Y469484D01*
X309658Y469395D01*
X309612Y469304D01*
X309571Y469212D01*
X309532Y469118D01*
X309498Y469023D01*
X309467Y468927D01*
X309440Y468829D01*
X309416Y468731D01*
X309397Y468631D01*
X309381Y468531D01*
X309369Y468431D01*
X309361Y468330D01*
X309357Y468229D01*
X309357Y468127D01*
X309361Y468026D01*
X309369Y467925D01*
X309381Y467825D01*
X309397Y467725D01*
X309416Y467625D01*
X309440Y467527D01*
X309467Y467429D01*
X309498Y467333D01*
X309532Y467238D01*
X309571Y467144D01*
X309612Y467052D01*
X309658Y466961D01*
X309707Y466873D01*
X309759Y466786D01*
X309815Y466701D01*
X309874Y466619D01*
X309936Y466539D01*
X310001Y466461D01*
X310069Y466386D01*
X310140Y466314D01*
X310213Y466244D01*
X310290Y466178D01*
X310368Y466114D01*
X310450Y466054D01*
X310533Y465997D01*
X310619Y465943D01*
X310707Y465892D01*
X310796Y465845D01*
X310888Y465801D01*
X310981Y465761D01*
X311075Y465724D01*
X311171Y465692D01*
X311268Y465663D01*
X311366Y465637D01*
X311465Y465616D01*
X311565Y465598D01*
X311665Y465585D01*
X311766Y465575D01*
X311867Y465569D01*
X311968Y465567D01*
X311968Y465568D02*
X314579Y465568D01*
X311446Y465568D02*
X309358Y461391D01*
X305492Y468701D02*
X302882Y470789D01*
X302882Y461391D01*
X305492Y461391D02*
X300271Y461391D01*
X392049Y461391D02*
X392049Y470789D01*
X389438Y470789D01*
X389337Y470787D01*
X389236Y470781D01*
X389135Y470771D01*
X389035Y470758D01*
X388935Y470740D01*
X388836Y470719D01*
X388738Y470693D01*
X388641Y470664D01*
X388545Y470632D01*
X388451Y470595D01*
X388358Y470555D01*
X388266Y470511D01*
X388177Y470464D01*
X388089Y470413D01*
X388003Y470359D01*
X387920Y470302D01*
X387838Y470242D01*
X387760Y470178D01*
X387683Y470112D01*
X387610Y470042D01*
X387539Y469970D01*
X387471Y469895D01*
X387406Y469817D01*
X387344Y469737D01*
X387285Y469655D01*
X387229Y469570D01*
X387177Y469484D01*
X387128Y469395D01*
X387082Y469304D01*
X387041Y469212D01*
X387002Y469118D01*
X386968Y469023D01*
X386937Y468927D01*
X386910Y468829D01*
X386886Y468731D01*
X386867Y468631D01*
X386851Y468531D01*
X386839Y468431D01*
X386831Y468330D01*
X386827Y468229D01*
X386827Y468127D01*
X386831Y468026D01*
X386839Y467925D01*
X386851Y467825D01*
X386867Y467725D01*
X386886Y467625D01*
X386910Y467527D01*
X386937Y467429D01*
X386968Y467333D01*
X387002Y467238D01*
X387041Y467144D01*
X387082Y467052D01*
X387128Y466961D01*
X387177Y466873D01*
X387229Y466786D01*
X387285Y466701D01*
X387344Y466619D01*
X387406Y466539D01*
X387471Y466461D01*
X387539Y466386D01*
X387610Y466314D01*
X387683Y466244D01*
X387760Y466178D01*
X387838Y466114D01*
X387920Y466054D01*
X388003Y465997D01*
X388089Y465943D01*
X388177Y465892D01*
X388266Y465845D01*
X388358Y465801D01*
X388451Y465761D01*
X388545Y465724D01*
X388641Y465692D01*
X388738Y465663D01*
X388836Y465637D01*
X388935Y465616D01*
X389035Y465598D01*
X389135Y465585D01*
X389236Y465575D01*
X389337Y465569D01*
X389438Y465567D01*
X389438Y465568D02*
X392049Y465568D01*
X388916Y465568D02*
X386828Y461391D01*
X377741Y468440D02*
X377743Y468535D01*
X377749Y468629D01*
X377758Y468723D01*
X377771Y468817D01*
X377788Y468910D01*
X377809Y469002D01*
X377834Y469094D01*
X377862Y469184D01*
X377894Y469273D01*
X377929Y469361D01*
X377968Y469447D01*
X378010Y469532D01*
X378056Y469615D01*
X378105Y469696D01*
X378157Y469775D01*
X378212Y469852D01*
X378271Y469926D01*
X378332Y469998D01*
X378396Y470068D01*
X378463Y470135D01*
X378533Y470199D01*
X378605Y470260D01*
X378679Y470319D01*
X378756Y470374D01*
X378835Y470426D01*
X378916Y470475D01*
X378999Y470521D01*
X379084Y470563D01*
X379170Y470602D01*
X379258Y470637D01*
X379347Y470669D01*
X379437Y470697D01*
X379529Y470722D01*
X379621Y470743D01*
X379714Y470760D01*
X379808Y470773D01*
X379902Y470782D01*
X379996Y470788D01*
X380091Y470790D01*
X380091Y470789D02*
X380199Y470787D01*
X380308Y470781D01*
X380416Y470771D01*
X380523Y470758D01*
X380630Y470740D01*
X380737Y470719D01*
X380842Y470694D01*
X380947Y470665D01*
X381050Y470633D01*
X381152Y470596D01*
X381253Y470556D01*
X381352Y470513D01*
X381450Y470466D01*
X381546Y470415D01*
X381640Y470361D01*
X381732Y470304D01*
X381822Y470243D01*
X381910Y470179D01*
X381995Y470113D01*
X382078Y470043D01*
X382158Y469970D01*
X382236Y469894D01*
X382311Y469816D01*
X382383Y469735D01*
X382452Y469651D01*
X382518Y469565D01*
X382581Y469477D01*
X382640Y469386D01*
X382697Y469294D01*
X382750Y469199D01*
X382799Y469102D01*
X382845Y469004D01*
X382888Y468905D01*
X382927Y468803D01*
X382962Y468701D01*
X378524Y466612D02*
X378455Y466681D01*
X378389Y466752D01*
X378325Y466825D01*
X378264Y466901D01*
X378206Y466980D01*
X378152Y467060D01*
X378100Y467143D01*
X378052Y467227D01*
X378006Y467313D01*
X377965Y467401D01*
X377926Y467491D01*
X377891Y467582D01*
X377860Y467674D01*
X377832Y467767D01*
X377808Y467861D01*
X377788Y467956D01*
X377771Y468052D01*
X377758Y468149D01*
X377749Y468246D01*
X377743Y468343D01*
X377741Y468440D01*
X378524Y466612D02*
X382962Y461391D01*
X377741Y461391D01*
D12*
X364490Y422910D02*
X392430Y422910D01*
X364490Y443230D02*
X364390Y443228D01*
X364291Y443222D01*
X364191Y443212D01*
X364093Y443199D01*
X363994Y443181D01*
X363897Y443160D01*
X363801Y443135D01*
X363705Y443106D01*
X363611Y443073D01*
X363518Y443037D01*
X363427Y442997D01*
X363337Y442953D01*
X363249Y442906D01*
X363163Y442856D01*
X363079Y442802D01*
X362997Y442745D01*
X362918Y442685D01*
X362840Y442621D01*
X362766Y442555D01*
X362694Y442486D01*
X362625Y442414D01*
X362559Y442340D01*
X362495Y442262D01*
X362435Y442183D01*
X362378Y442101D01*
X362324Y442017D01*
X362274Y441931D01*
X362227Y441843D01*
X362183Y441753D01*
X362143Y441662D01*
X362107Y441569D01*
X362074Y441475D01*
X362045Y441379D01*
X362020Y441283D01*
X361999Y441186D01*
X361981Y441087D01*
X361968Y440989D01*
X361958Y440889D01*
X361952Y440790D01*
X361950Y440690D01*
X392430Y443230D02*
X392530Y443228D01*
X392629Y443222D01*
X392729Y443212D01*
X392827Y443199D01*
X392926Y443181D01*
X393023Y443160D01*
X393119Y443135D01*
X393215Y443106D01*
X393309Y443073D01*
X393402Y443037D01*
X393493Y442997D01*
X393583Y442953D01*
X393671Y442906D01*
X393757Y442856D01*
X393841Y442802D01*
X393923Y442745D01*
X394002Y442685D01*
X394080Y442621D01*
X394154Y442555D01*
X394226Y442486D01*
X394295Y442414D01*
X394361Y442340D01*
X394425Y442262D01*
X394485Y442183D01*
X394542Y442101D01*
X394596Y442017D01*
X394646Y441931D01*
X394693Y441843D01*
X394737Y441753D01*
X394777Y441662D01*
X394813Y441569D01*
X394846Y441475D01*
X394875Y441379D01*
X394900Y441283D01*
X394921Y441186D01*
X394939Y441087D01*
X394952Y440989D01*
X394962Y440889D01*
X394968Y440790D01*
X394970Y440690D01*
X394970Y425450D02*
X394968Y425350D01*
X394962Y425251D01*
X394952Y425151D01*
X394939Y425053D01*
X394921Y424954D01*
X394900Y424857D01*
X394875Y424761D01*
X394846Y424665D01*
X394813Y424571D01*
X394777Y424478D01*
X394737Y424387D01*
X394693Y424297D01*
X394646Y424209D01*
X394596Y424123D01*
X394542Y424039D01*
X394485Y423957D01*
X394425Y423878D01*
X394361Y423800D01*
X394295Y423726D01*
X394226Y423654D01*
X394154Y423585D01*
X394080Y423519D01*
X394002Y423455D01*
X393923Y423395D01*
X393841Y423338D01*
X393757Y423284D01*
X393671Y423234D01*
X393583Y423187D01*
X393493Y423143D01*
X393402Y423103D01*
X393309Y423067D01*
X393215Y423034D01*
X393119Y423005D01*
X393023Y422980D01*
X392926Y422959D01*
X392827Y422941D01*
X392729Y422928D01*
X392629Y422918D01*
X392530Y422912D01*
X392430Y422910D01*
X364490Y422910D02*
X364390Y422912D01*
X364291Y422918D01*
X364191Y422928D01*
X364093Y422941D01*
X363994Y422959D01*
X363897Y422980D01*
X363801Y423005D01*
X363705Y423034D01*
X363611Y423067D01*
X363518Y423103D01*
X363427Y423143D01*
X363337Y423187D01*
X363249Y423234D01*
X363163Y423284D01*
X363079Y423338D01*
X362997Y423395D01*
X362918Y423455D01*
X362840Y423519D01*
X362766Y423585D01*
X362694Y423654D01*
X362625Y423726D01*
X362559Y423800D01*
X362495Y423878D01*
X362435Y423957D01*
X362378Y424039D01*
X362324Y424123D01*
X362274Y424209D01*
X362227Y424297D01*
X362183Y424387D01*
X362143Y424478D01*
X362107Y424571D01*
X362074Y424665D01*
X362045Y424761D01*
X362020Y424857D01*
X361999Y424954D01*
X361981Y425053D01*
X361968Y425151D01*
X361958Y425251D01*
X361952Y425350D01*
X361950Y425450D01*
X361950Y440690D01*
X394970Y440690D02*
X394970Y425450D01*
X392430Y443230D02*
X364490Y443230D01*
D11*
X391414Y445008D02*
X394462Y454152D01*
X388366Y454152D02*
X391414Y445008D01*
X382880Y445008D02*
X382880Y454152D01*
X385420Y454152D02*
X380340Y454152D01*
X371297Y454152D02*
X377393Y445008D01*
X371297Y445008D02*
X377393Y454152D01*
X367741Y452120D02*
X365201Y454152D01*
X365201Y445008D01*
X367741Y445008D02*
X362661Y445008D01*
D12*
X364490Y294640D02*
X392430Y294640D01*
X364490Y314960D02*
X364390Y314958D01*
X364291Y314952D01*
X364191Y314942D01*
X364093Y314929D01*
X363994Y314911D01*
X363897Y314890D01*
X363801Y314865D01*
X363705Y314836D01*
X363611Y314803D01*
X363518Y314767D01*
X363427Y314727D01*
X363337Y314683D01*
X363249Y314636D01*
X363163Y314586D01*
X363079Y314532D01*
X362997Y314475D01*
X362918Y314415D01*
X362840Y314351D01*
X362766Y314285D01*
X362694Y314216D01*
X362625Y314144D01*
X362559Y314070D01*
X362495Y313992D01*
X362435Y313913D01*
X362378Y313831D01*
X362324Y313747D01*
X362274Y313661D01*
X362227Y313573D01*
X362183Y313483D01*
X362143Y313392D01*
X362107Y313299D01*
X362074Y313205D01*
X362045Y313109D01*
X362020Y313013D01*
X361999Y312916D01*
X361981Y312817D01*
X361968Y312719D01*
X361958Y312619D01*
X361952Y312520D01*
X361950Y312420D01*
X392430Y314960D02*
X392530Y314958D01*
X392629Y314952D01*
X392729Y314942D01*
X392827Y314929D01*
X392926Y314911D01*
X393023Y314890D01*
X393119Y314865D01*
X393215Y314836D01*
X393309Y314803D01*
X393402Y314767D01*
X393493Y314727D01*
X393583Y314683D01*
X393671Y314636D01*
X393757Y314586D01*
X393841Y314532D01*
X393923Y314475D01*
X394002Y314415D01*
X394080Y314351D01*
X394154Y314285D01*
X394226Y314216D01*
X394295Y314144D01*
X394361Y314070D01*
X394425Y313992D01*
X394485Y313913D01*
X394542Y313831D01*
X394596Y313747D01*
X394646Y313661D01*
X394693Y313573D01*
X394737Y313483D01*
X394777Y313392D01*
X394813Y313299D01*
X394846Y313205D01*
X394875Y313109D01*
X394900Y313013D01*
X394921Y312916D01*
X394939Y312817D01*
X394952Y312719D01*
X394962Y312619D01*
X394968Y312520D01*
X394970Y312420D01*
X394970Y297180D02*
X394968Y297080D01*
X394962Y296981D01*
X394952Y296881D01*
X394939Y296783D01*
X394921Y296684D01*
X394900Y296587D01*
X394875Y296491D01*
X394846Y296395D01*
X394813Y296301D01*
X394777Y296208D01*
X394737Y296117D01*
X394693Y296027D01*
X394646Y295939D01*
X394596Y295853D01*
X394542Y295769D01*
X394485Y295687D01*
X394425Y295608D01*
X394361Y295530D01*
X394295Y295456D01*
X394226Y295384D01*
X394154Y295315D01*
X394080Y295249D01*
X394002Y295185D01*
X393923Y295125D01*
X393841Y295068D01*
X393757Y295014D01*
X393671Y294964D01*
X393583Y294917D01*
X393493Y294873D01*
X393402Y294833D01*
X393309Y294797D01*
X393215Y294764D01*
X393119Y294735D01*
X393023Y294710D01*
X392926Y294689D01*
X392827Y294671D01*
X392729Y294658D01*
X392629Y294648D01*
X392530Y294642D01*
X392430Y294640D01*
X364490Y294640D02*
X364390Y294642D01*
X364291Y294648D01*
X364191Y294658D01*
X364093Y294671D01*
X363994Y294689D01*
X363897Y294710D01*
X363801Y294735D01*
X363705Y294764D01*
X363611Y294797D01*
X363518Y294833D01*
X363427Y294873D01*
X363337Y294917D01*
X363249Y294964D01*
X363163Y295014D01*
X363079Y295068D01*
X362997Y295125D01*
X362918Y295185D01*
X362840Y295249D01*
X362766Y295315D01*
X362694Y295384D01*
X362625Y295456D01*
X362559Y295530D01*
X362495Y295608D01*
X362435Y295687D01*
X362378Y295769D01*
X362324Y295853D01*
X362274Y295939D01*
X362227Y296027D01*
X362183Y296117D01*
X362143Y296208D01*
X362107Y296301D01*
X362074Y296395D01*
X362045Y296491D01*
X362020Y296587D01*
X361999Y296684D01*
X361981Y296783D01*
X361968Y296881D01*
X361958Y296981D01*
X361952Y297080D01*
X361950Y297180D01*
X361950Y312420D01*
X394970Y312420D02*
X394970Y297180D01*
X392430Y314960D02*
X364490Y314960D01*
D11*
X391414Y316738D02*
X394462Y325882D01*
X388366Y325882D02*
X391414Y316738D01*
X382880Y316738D02*
X382880Y325882D01*
X385420Y325882D02*
X380340Y325882D01*
X371297Y325882D02*
X377393Y316738D01*
X371297Y316738D02*
X377393Y325882D01*
X364947Y325882D02*
X364853Y325880D01*
X364758Y325874D01*
X364664Y325864D01*
X364571Y325851D01*
X364478Y325833D01*
X364386Y325812D01*
X364295Y325787D01*
X364205Y325758D01*
X364116Y325726D01*
X364029Y325689D01*
X363943Y325650D01*
X363859Y325606D01*
X363777Y325560D01*
X363697Y325510D01*
X363619Y325456D01*
X363543Y325400D01*
X363470Y325340D01*
X363399Y325278D01*
X363331Y325212D01*
X363265Y325144D01*
X363203Y325073D01*
X363143Y325000D01*
X363087Y324924D01*
X363033Y324846D01*
X362983Y324766D01*
X362937Y324684D01*
X362893Y324600D01*
X362854Y324514D01*
X362817Y324427D01*
X362785Y324338D01*
X362756Y324248D01*
X362731Y324157D01*
X362710Y324065D01*
X362692Y323972D01*
X362679Y323879D01*
X362669Y323785D01*
X362663Y323690D01*
X362661Y323596D01*
X364947Y325882D02*
X365053Y325880D01*
X365158Y325874D01*
X365263Y325865D01*
X365368Y325852D01*
X365472Y325835D01*
X365575Y325814D01*
X365678Y325790D01*
X365780Y325761D01*
X365880Y325730D01*
X365980Y325694D01*
X366078Y325656D01*
X366174Y325613D01*
X366270Y325567D01*
X366363Y325518D01*
X366454Y325466D01*
X366544Y325410D01*
X366632Y325351D01*
X366717Y325289D01*
X366800Y325224D01*
X366881Y325156D01*
X366959Y325085D01*
X367034Y325011D01*
X367107Y324935D01*
X367177Y324856D01*
X367244Y324775D01*
X367309Y324691D01*
X367370Y324605D01*
X367428Y324517D01*
X367483Y324427D01*
X367534Y324335D01*
X367583Y324241D01*
X367628Y324145D01*
X367669Y324048D01*
X367707Y323950D01*
X367741Y323850D01*
X363424Y321818D02*
X363357Y321885D01*
X363292Y321954D01*
X363230Y322026D01*
X363171Y322099D01*
X363115Y322176D01*
X363061Y322254D01*
X363011Y322334D01*
X362964Y322416D01*
X362920Y322500D01*
X362880Y322586D01*
X362842Y322673D01*
X362808Y322761D01*
X362778Y322851D01*
X362751Y322941D01*
X362727Y323033D01*
X362707Y323126D01*
X362691Y323219D01*
X362678Y323313D01*
X362669Y323407D01*
X362664Y323501D01*
X362662Y323596D01*
X363423Y321818D02*
X367741Y316738D01*
X362661Y316738D01*
D12*
X327660Y314960D02*
X299720Y314960D01*
X327660Y294640D02*
X327760Y294642D01*
X327859Y294648D01*
X327959Y294658D01*
X328057Y294671D01*
X328156Y294689D01*
X328253Y294710D01*
X328349Y294735D01*
X328445Y294764D01*
X328539Y294797D01*
X328632Y294833D01*
X328723Y294873D01*
X328813Y294917D01*
X328901Y294964D01*
X328987Y295014D01*
X329071Y295068D01*
X329153Y295125D01*
X329232Y295185D01*
X329310Y295249D01*
X329384Y295315D01*
X329456Y295384D01*
X329525Y295456D01*
X329591Y295530D01*
X329655Y295608D01*
X329715Y295687D01*
X329772Y295769D01*
X329826Y295853D01*
X329876Y295939D01*
X329923Y296027D01*
X329967Y296117D01*
X330007Y296208D01*
X330043Y296301D01*
X330076Y296395D01*
X330105Y296491D01*
X330130Y296587D01*
X330151Y296684D01*
X330169Y296783D01*
X330182Y296881D01*
X330192Y296981D01*
X330198Y297080D01*
X330200Y297180D01*
X299720Y294640D02*
X299620Y294642D01*
X299521Y294648D01*
X299421Y294658D01*
X299323Y294671D01*
X299224Y294689D01*
X299127Y294710D01*
X299031Y294735D01*
X298935Y294764D01*
X298841Y294797D01*
X298748Y294833D01*
X298657Y294873D01*
X298567Y294917D01*
X298479Y294964D01*
X298393Y295014D01*
X298309Y295068D01*
X298227Y295125D01*
X298148Y295185D01*
X298070Y295249D01*
X297996Y295315D01*
X297924Y295384D01*
X297855Y295456D01*
X297789Y295530D01*
X297725Y295608D01*
X297665Y295687D01*
X297608Y295769D01*
X297554Y295853D01*
X297504Y295939D01*
X297457Y296027D01*
X297413Y296117D01*
X297373Y296208D01*
X297337Y296301D01*
X297304Y296395D01*
X297275Y296491D01*
X297250Y296587D01*
X297229Y296684D01*
X297211Y296783D01*
X297198Y296881D01*
X297188Y296981D01*
X297182Y297080D01*
X297180Y297180D01*
X297180Y312420D02*
X297182Y312520D01*
X297188Y312619D01*
X297198Y312719D01*
X297211Y312817D01*
X297229Y312916D01*
X297250Y313013D01*
X297275Y313109D01*
X297304Y313205D01*
X297337Y313299D01*
X297373Y313392D01*
X297413Y313483D01*
X297457Y313573D01*
X297504Y313661D01*
X297554Y313747D01*
X297608Y313831D01*
X297665Y313913D01*
X297725Y313992D01*
X297789Y314070D01*
X297855Y314144D01*
X297924Y314216D01*
X297996Y314285D01*
X298070Y314351D01*
X298148Y314415D01*
X298227Y314475D01*
X298309Y314532D01*
X298393Y314586D01*
X298479Y314636D01*
X298567Y314683D01*
X298657Y314727D01*
X298748Y314767D01*
X298841Y314803D01*
X298935Y314836D01*
X299031Y314865D01*
X299127Y314890D01*
X299224Y314911D01*
X299323Y314929D01*
X299421Y314942D01*
X299521Y314952D01*
X299620Y314958D01*
X299720Y314960D01*
X327660Y314960D02*
X327760Y314958D01*
X327859Y314952D01*
X327959Y314942D01*
X328057Y314929D01*
X328156Y314911D01*
X328253Y314890D01*
X328349Y314865D01*
X328445Y314836D01*
X328539Y314803D01*
X328632Y314767D01*
X328723Y314727D01*
X328813Y314683D01*
X328901Y314636D01*
X328987Y314586D01*
X329071Y314532D01*
X329153Y314475D01*
X329232Y314415D01*
X329310Y314351D01*
X329384Y314285D01*
X329456Y314216D01*
X329525Y314144D01*
X329591Y314070D01*
X329655Y313992D01*
X329715Y313913D01*
X329772Y313831D01*
X329826Y313747D01*
X329876Y313661D01*
X329923Y313573D01*
X329967Y313483D01*
X330007Y313392D01*
X330043Y313299D01*
X330076Y313205D01*
X330105Y313109D01*
X330130Y313013D01*
X330151Y312916D01*
X330169Y312817D01*
X330182Y312719D01*
X330192Y312619D01*
X330198Y312520D01*
X330200Y312420D01*
X330200Y297180D01*
X297180Y297180D02*
X297180Y312420D01*
X299720Y294640D02*
X327660Y294640D01*
D11*
X327711Y316738D02*
X330759Y325882D01*
X324663Y325882D02*
X327711Y316738D01*
X319176Y316738D02*
X319176Y325882D01*
X321716Y325882D02*
X316636Y325882D01*
X307594Y325882D02*
X313690Y316738D01*
X307594Y316738D02*
X313690Y325882D01*
X304038Y316738D02*
X301498Y316738D01*
X301398Y316740D01*
X301299Y316746D01*
X301199Y316756D01*
X301101Y316769D01*
X301002Y316787D01*
X300905Y316808D01*
X300809Y316833D01*
X300713Y316862D01*
X300619Y316895D01*
X300526Y316931D01*
X300435Y316971D01*
X300345Y317015D01*
X300257Y317062D01*
X300171Y317112D01*
X300087Y317166D01*
X300005Y317223D01*
X299926Y317283D01*
X299848Y317347D01*
X299774Y317413D01*
X299702Y317482D01*
X299633Y317554D01*
X299567Y317628D01*
X299503Y317706D01*
X299443Y317785D01*
X299386Y317867D01*
X299332Y317951D01*
X299282Y318037D01*
X299235Y318125D01*
X299191Y318215D01*
X299151Y318306D01*
X299115Y318399D01*
X299082Y318493D01*
X299053Y318589D01*
X299028Y318685D01*
X299007Y318782D01*
X298989Y318881D01*
X298976Y318979D01*
X298966Y319079D01*
X298960Y319178D01*
X298958Y319278D01*
X298960Y319378D01*
X298966Y319477D01*
X298976Y319577D01*
X298989Y319675D01*
X299007Y319774D01*
X299028Y319871D01*
X299053Y319967D01*
X299082Y320063D01*
X299115Y320157D01*
X299151Y320250D01*
X299191Y320341D01*
X299235Y320431D01*
X299282Y320519D01*
X299332Y320605D01*
X299386Y320689D01*
X299443Y320771D01*
X299503Y320850D01*
X299567Y320928D01*
X299633Y321002D01*
X299702Y321074D01*
X299774Y321143D01*
X299848Y321209D01*
X299926Y321273D01*
X300005Y321333D01*
X300087Y321390D01*
X300171Y321444D01*
X300257Y321494D01*
X300345Y321541D01*
X300435Y321585D01*
X300526Y321625D01*
X300619Y321661D01*
X300713Y321694D01*
X300809Y321723D01*
X300905Y321748D01*
X301002Y321769D01*
X301101Y321787D01*
X301199Y321800D01*
X301299Y321810D01*
X301398Y321816D01*
X301498Y321818D01*
X300990Y325882D02*
X304038Y325882D01*
X300990Y325882D02*
X300901Y325880D01*
X300813Y325874D01*
X300725Y325865D01*
X300637Y325851D01*
X300550Y325834D01*
X300464Y325813D01*
X300379Y325788D01*
X300295Y325759D01*
X300212Y325727D01*
X300131Y325692D01*
X300052Y325652D01*
X299974Y325610D01*
X299898Y325564D01*
X299824Y325515D01*
X299753Y325462D01*
X299684Y325407D01*
X299617Y325348D01*
X299553Y325287D01*
X299492Y325223D01*
X299433Y325156D01*
X299378Y325087D01*
X299325Y325016D01*
X299276Y324942D01*
X299230Y324866D01*
X299188Y324788D01*
X299148Y324709D01*
X299113Y324628D01*
X299081Y324545D01*
X299052Y324461D01*
X299027Y324376D01*
X299006Y324290D01*
X298989Y324203D01*
X298975Y324115D01*
X298966Y324027D01*
X298960Y323939D01*
X298958Y323850D01*
X298960Y323761D01*
X298966Y323673D01*
X298975Y323585D01*
X298989Y323497D01*
X299006Y323410D01*
X299027Y323324D01*
X299052Y323239D01*
X299081Y323155D01*
X299113Y323072D01*
X299148Y322991D01*
X299188Y322912D01*
X299230Y322834D01*
X299276Y322758D01*
X299325Y322684D01*
X299378Y322613D01*
X299433Y322544D01*
X299492Y322477D01*
X299553Y322413D01*
X299617Y322352D01*
X299684Y322293D01*
X299753Y322238D01*
X299824Y322185D01*
X299898Y322136D01*
X299974Y322090D01*
X300052Y322048D01*
X300131Y322008D01*
X300212Y321973D01*
X300295Y321941D01*
X300379Y321912D01*
X300464Y321887D01*
X300550Y321866D01*
X300637Y321849D01*
X300725Y321835D01*
X300813Y321826D01*
X300901Y321820D01*
X300990Y321818D01*
X303022Y321818D01*
D12*
X299720Y443230D02*
X327660Y443230D01*
X330200Y425450D02*
X330198Y425350D01*
X330192Y425251D01*
X330182Y425151D01*
X330169Y425053D01*
X330151Y424954D01*
X330130Y424857D01*
X330105Y424761D01*
X330076Y424665D01*
X330043Y424571D01*
X330007Y424478D01*
X329967Y424387D01*
X329923Y424297D01*
X329876Y424209D01*
X329826Y424123D01*
X329772Y424039D01*
X329715Y423957D01*
X329655Y423878D01*
X329591Y423800D01*
X329525Y423726D01*
X329456Y423654D01*
X329384Y423585D01*
X329310Y423519D01*
X329232Y423455D01*
X329153Y423395D01*
X329071Y423338D01*
X328987Y423284D01*
X328901Y423234D01*
X328813Y423187D01*
X328723Y423143D01*
X328632Y423103D01*
X328539Y423067D01*
X328445Y423034D01*
X328349Y423005D01*
X328253Y422980D01*
X328156Y422959D01*
X328057Y422941D01*
X327959Y422928D01*
X327859Y422918D01*
X327760Y422912D01*
X327660Y422910D01*
X299720Y422910D02*
X299620Y422912D01*
X299521Y422918D01*
X299421Y422928D01*
X299323Y422941D01*
X299224Y422959D01*
X299127Y422980D01*
X299031Y423005D01*
X298935Y423034D01*
X298841Y423067D01*
X298748Y423103D01*
X298657Y423143D01*
X298567Y423187D01*
X298479Y423234D01*
X298393Y423284D01*
X298309Y423338D01*
X298227Y423395D01*
X298148Y423455D01*
X298070Y423519D01*
X297996Y423585D01*
X297924Y423654D01*
X297855Y423726D01*
X297789Y423800D01*
X297725Y423878D01*
X297665Y423957D01*
X297608Y424039D01*
X297554Y424123D01*
X297504Y424209D01*
X297457Y424297D01*
X297413Y424387D01*
X297373Y424478D01*
X297337Y424571D01*
X297304Y424665D01*
X297275Y424761D01*
X297250Y424857D01*
X297229Y424954D01*
X297211Y425053D01*
X297198Y425151D01*
X297188Y425251D01*
X297182Y425350D01*
X297180Y425450D01*
X297180Y440690D02*
X297182Y440790D01*
X297188Y440889D01*
X297198Y440989D01*
X297211Y441087D01*
X297229Y441186D01*
X297250Y441283D01*
X297275Y441379D01*
X297304Y441475D01*
X297337Y441569D01*
X297373Y441662D01*
X297413Y441753D01*
X297457Y441843D01*
X297504Y441931D01*
X297554Y442017D01*
X297608Y442101D01*
X297665Y442183D01*
X297725Y442262D01*
X297789Y442340D01*
X297855Y442414D01*
X297924Y442486D01*
X297996Y442555D01*
X298070Y442621D01*
X298148Y442685D01*
X298227Y442745D01*
X298309Y442802D01*
X298393Y442856D01*
X298479Y442906D01*
X298567Y442953D01*
X298657Y442997D01*
X298748Y443037D01*
X298841Y443073D01*
X298935Y443106D01*
X299031Y443135D01*
X299127Y443160D01*
X299224Y443181D01*
X299323Y443199D01*
X299421Y443212D01*
X299521Y443222D01*
X299620Y443228D01*
X299720Y443230D01*
X327660Y443230D02*
X327760Y443228D01*
X327859Y443222D01*
X327959Y443212D01*
X328057Y443199D01*
X328156Y443181D01*
X328253Y443160D01*
X328349Y443135D01*
X328445Y443106D01*
X328539Y443073D01*
X328632Y443037D01*
X328723Y442997D01*
X328813Y442953D01*
X328901Y442906D01*
X328987Y442856D01*
X329071Y442802D01*
X329153Y442745D01*
X329232Y442685D01*
X329310Y442621D01*
X329384Y442555D01*
X329456Y442486D01*
X329525Y442414D01*
X329591Y442340D01*
X329655Y442262D01*
X329715Y442183D01*
X329772Y442101D01*
X329826Y442017D01*
X329876Y441931D01*
X329923Y441843D01*
X329967Y441753D01*
X330007Y441662D01*
X330043Y441569D01*
X330076Y441475D01*
X330105Y441379D01*
X330130Y441283D01*
X330151Y441186D01*
X330169Y441087D01*
X330182Y440989D01*
X330192Y440889D01*
X330198Y440790D01*
X330200Y440690D01*
X330200Y425450D01*
X297180Y425450D02*
X297180Y440690D01*
X299720Y422910D02*
X327660Y422910D01*
D11*
X327711Y445008D02*
X330759Y454152D01*
X324663Y454152D02*
X327711Y445008D01*
X319176Y445008D02*
X319176Y454152D01*
X321716Y454152D02*
X316636Y454152D01*
X307594Y454152D02*
X313690Y445008D01*
X307594Y445008D02*
X313690Y454152D01*
X302006Y454152D02*
X304038Y447040D01*
X298958Y447040D01*
X300482Y449072D02*
X300482Y445008D01*
D12*
X364490Y384810D02*
X392430Y384810D01*
X364490Y405130D02*
X364390Y405128D01*
X364291Y405122D01*
X364191Y405112D01*
X364093Y405099D01*
X363994Y405081D01*
X363897Y405060D01*
X363801Y405035D01*
X363705Y405006D01*
X363611Y404973D01*
X363518Y404937D01*
X363427Y404897D01*
X363337Y404853D01*
X363249Y404806D01*
X363163Y404756D01*
X363079Y404702D01*
X362997Y404645D01*
X362918Y404585D01*
X362840Y404521D01*
X362766Y404455D01*
X362694Y404386D01*
X362625Y404314D01*
X362559Y404240D01*
X362495Y404162D01*
X362435Y404083D01*
X362378Y404001D01*
X362324Y403917D01*
X362274Y403831D01*
X362227Y403743D01*
X362183Y403653D01*
X362143Y403562D01*
X362107Y403469D01*
X362074Y403375D01*
X362045Y403279D01*
X362020Y403183D01*
X361999Y403086D01*
X361981Y402987D01*
X361968Y402889D01*
X361958Y402789D01*
X361952Y402690D01*
X361950Y402590D01*
X392430Y405130D02*
X392530Y405128D01*
X392629Y405122D01*
X392729Y405112D01*
X392827Y405099D01*
X392926Y405081D01*
X393023Y405060D01*
X393119Y405035D01*
X393215Y405006D01*
X393309Y404973D01*
X393402Y404937D01*
X393493Y404897D01*
X393583Y404853D01*
X393671Y404806D01*
X393757Y404756D01*
X393841Y404702D01*
X393923Y404645D01*
X394002Y404585D01*
X394080Y404521D01*
X394154Y404455D01*
X394226Y404386D01*
X394295Y404314D01*
X394361Y404240D01*
X394425Y404162D01*
X394485Y404083D01*
X394542Y404001D01*
X394596Y403917D01*
X394646Y403831D01*
X394693Y403743D01*
X394737Y403653D01*
X394777Y403562D01*
X394813Y403469D01*
X394846Y403375D01*
X394875Y403279D01*
X394900Y403183D01*
X394921Y403086D01*
X394939Y402987D01*
X394952Y402889D01*
X394962Y402789D01*
X394968Y402690D01*
X394970Y402590D01*
X394970Y387350D02*
X394968Y387250D01*
X394962Y387151D01*
X394952Y387051D01*
X394939Y386953D01*
X394921Y386854D01*
X394900Y386757D01*
X394875Y386661D01*
X394846Y386565D01*
X394813Y386471D01*
X394777Y386378D01*
X394737Y386287D01*
X394693Y386197D01*
X394646Y386109D01*
X394596Y386023D01*
X394542Y385939D01*
X394485Y385857D01*
X394425Y385778D01*
X394361Y385700D01*
X394295Y385626D01*
X394226Y385554D01*
X394154Y385485D01*
X394080Y385419D01*
X394002Y385355D01*
X393923Y385295D01*
X393841Y385238D01*
X393757Y385184D01*
X393671Y385134D01*
X393583Y385087D01*
X393493Y385043D01*
X393402Y385003D01*
X393309Y384967D01*
X393215Y384934D01*
X393119Y384905D01*
X393023Y384880D01*
X392926Y384859D01*
X392827Y384841D01*
X392729Y384828D01*
X392629Y384818D01*
X392530Y384812D01*
X392430Y384810D01*
X364490Y384810D02*
X364390Y384812D01*
X364291Y384818D01*
X364191Y384828D01*
X364093Y384841D01*
X363994Y384859D01*
X363897Y384880D01*
X363801Y384905D01*
X363705Y384934D01*
X363611Y384967D01*
X363518Y385003D01*
X363427Y385043D01*
X363337Y385087D01*
X363249Y385134D01*
X363163Y385184D01*
X363079Y385238D01*
X362997Y385295D01*
X362918Y385355D01*
X362840Y385419D01*
X362766Y385485D01*
X362694Y385554D01*
X362625Y385626D01*
X362559Y385700D01*
X362495Y385778D01*
X362435Y385857D01*
X362378Y385939D01*
X362324Y386023D01*
X362274Y386109D01*
X362227Y386197D01*
X362183Y386287D01*
X362143Y386378D01*
X362107Y386471D01*
X362074Y386565D01*
X362045Y386661D01*
X362020Y386757D01*
X361999Y386854D01*
X361981Y386953D01*
X361968Y387051D01*
X361958Y387151D01*
X361952Y387250D01*
X361950Y387350D01*
X361950Y402590D01*
X394970Y402590D02*
X394970Y387350D01*
X392430Y405130D02*
X364490Y405130D01*
D11*
X391414Y406908D02*
X394462Y416052D01*
X388366Y416052D02*
X391414Y406908D01*
X384439Y406908D02*
X384439Y416052D01*
X381899Y416052D01*
X381799Y416050D01*
X381700Y416044D01*
X381600Y416034D01*
X381502Y416021D01*
X381403Y416003D01*
X381306Y415982D01*
X381210Y415957D01*
X381114Y415928D01*
X381020Y415895D01*
X380927Y415859D01*
X380836Y415819D01*
X380746Y415775D01*
X380658Y415728D01*
X380572Y415678D01*
X380488Y415624D01*
X380406Y415567D01*
X380327Y415507D01*
X380249Y415443D01*
X380175Y415377D01*
X380103Y415308D01*
X380034Y415236D01*
X379968Y415162D01*
X379904Y415084D01*
X379844Y415005D01*
X379787Y414923D01*
X379733Y414839D01*
X379683Y414753D01*
X379636Y414665D01*
X379592Y414575D01*
X379552Y414484D01*
X379516Y414391D01*
X379483Y414297D01*
X379454Y414201D01*
X379429Y414105D01*
X379408Y414008D01*
X379390Y413909D01*
X379377Y413811D01*
X379367Y413711D01*
X379361Y413612D01*
X379359Y413512D01*
X379361Y413412D01*
X379367Y413313D01*
X379377Y413213D01*
X379390Y413115D01*
X379408Y413016D01*
X379429Y412919D01*
X379454Y412823D01*
X379483Y412727D01*
X379516Y412633D01*
X379552Y412540D01*
X379592Y412449D01*
X379636Y412359D01*
X379683Y412271D01*
X379733Y412185D01*
X379787Y412101D01*
X379844Y412019D01*
X379904Y411940D01*
X379968Y411862D01*
X380034Y411788D01*
X380103Y411716D01*
X380175Y411647D01*
X380249Y411581D01*
X380327Y411517D01*
X380406Y411457D01*
X380488Y411400D01*
X380572Y411346D01*
X380658Y411296D01*
X380746Y411249D01*
X380836Y411205D01*
X380927Y411165D01*
X381020Y411129D01*
X381114Y411096D01*
X381210Y411067D01*
X381306Y411042D01*
X381403Y411021D01*
X381502Y411003D01*
X381600Y410990D01*
X381700Y410980D01*
X381799Y410974D01*
X381899Y410972D01*
X384439Y410972D01*
X381391Y410972D02*
X379359Y406908D01*
X375869Y406908D02*
X369773Y416052D01*
X375869Y416052D02*
X369773Y406908D01*
X366217Y414020D02*
X363677Y416052D01*
X363677Y406908D01*
X366217Y406908D02*
X361137Y406908D01*
D12*
X364490Y257810D02*
X392430Y257810D01*
X364490Y278130D02*
X364390Y278128D01*
X364291Y278122D01*
X364191Y278112D01*
X364093Y278099D01*
X363994Y278081D01*
X363897Y278060D01*
X363801Y278035D01*
X363705Y278006D01*
X363611Y277973D01*
X363518Y277937D01*
X363427Y277897D01*
X363337Y277853D01*
X363249Y277806D01*
X363163Y277756D01*
X363079Y277702D01*
X362997Y277645D01*
X362918Y277585D01*
X362840Y277521D01*
X362766Y277455D01*
X362694Y277386D01*
X362625Y277314D01*
X362559Y277240D01*
X362495Y277162D01*
X362435Y277083D01*
X362378Y277001D01*
X362324Y276917D01*
X362274Y276831D01*
X362227Y276743D01*
X362183Y276653D01*
X362143Y276562D01*
X362107Y276469D01*
X362074Y276375D01*
X362045Y276279D01*
X362020Y276183D01*
X361999Y276086D01*
X361981Y275987D01*
X361968Y275889D01*
X361958Y275789D01*
X361952Y275690D01*
X361950Y275590D01*
X392430Y278130D02*
X392530Y278128D01*
X392629Y278122D01*
X392729Y278112D01*
X392827Y278099D01*
X392926Y278081D01*
X393023Y278060D01*
X393119Y278035D01*
X393215Y278006D01*
X393309Y277973D01*
X393402Y277937D01*
X393493Y277897D01*
X393583Y277853D01*
X393671Y277806D01*
X393757Y277756D01*
X393841Y277702D01*
X393923Y277645D01*
X394002Y277585D01*
X394080Y277521D01*
X394154Y277455D01*
X394226Y277386D01*
X394295Y277314D01*
X394361Y277240D01*
X394425Y277162D01*
X394485Y277083D01*
X394542Y277001D01*
X394596Y276917D01*
X394646Y276831D01*
X394693Y276743D01*
X394737Y276653D01*
X394777Y276562D01*
X394813Y276469D01*
X394846Y276375D01*
X394875Y276279D01*
X394900Y276183D01*
X394921Y276086D01*
X394939Y275987D01*
X394952Y275889D01*
X394962Y275789D01*
X394968Y275690D01*
X394970Y275590D01*
X394970Y260350D02*
X394968Y260250D01*
X394962Y260151D01*
X394952Y260051D01*
X394939Y259953D01*
X394921Y259854D01*
X394900Y259757D01*
X394875Y259661D01*
X394846Y259565D01*
X394813Y259471D01*
X394777Y259378D01*
X394737Y259287D01*
X394693Y259197D01*
X394646Y259109D01*
X394596Y259023D01*
X394542Y258939D01*
X394485Y258857D01*
X394425Y258778D01*
X394361Y258700D01*
X394295Y258626D01*
X394226Y258554D01*
X394154Y258485D01*
X394080Y258419D01*
X394002Y258355D01*
X393923Y258295D01*
X393841Y258238D01*
X393757Y258184D01*
X393671Y258134D01*
X393583Y258087D01*
X393493Y258043D01*
X393402Y258003D01*
X393309Y257967D01*
X393215Y257934D01*
X393119Y257905D01*
X393023Y257880D01*
X392926Y257859D01*
X392827Y257841D01*
X392729Y257828D01*
X392629Y257818D01*
X392530Y257812D01*
X392430Y257810D01*
X364490Y257810D02*
X364390Y257812D01*
X364291Y257818D01*
X364191Y257828D01*
X364093Y257841D01*
X363994Y257859D01*
X363897Y257880D01*
X363801Y257905D01*
X363705Y257934D01*
X363611Y257967D01*
X363518Y258003D01*
X363427Y258043D01*
X363337Y258087D01*
X363249Y258134D01*
X363163Y258184D01*
X363079Y258238D01*
X362997Y258295D01*
X362918Y258355D01*
X362840Y258419D01*
X362766Y258485D01*
X362694Y258554D01*
X362625Y258626D01*
X362559Y258700D01*
X362495Y258778D01*
X362435Y258857D01*
X362378Y258939D01*
X362324Y259023D01*
X362274Y259109D01*
X362227Y259197D01*
X362183Y259287D01*
X362143Y259378D01*
X362107Y259471D01*
X362074Y259565D01*
X362045Y259661D01*
X362020Y259757D01*
X361999Y259854D01*
X361981Y259953D01*
X361968Y260051D01*
X361958Y260151D01*
X361952Y260250D01*
X361950Y260350D01*
X361950Y275590D01*
X394970Y275590D02*
X394970Y260350D01*
X392430Y278130D02*
X364490Y278130D01*
D11*
X391414Y279908D02*
X394462Y289052D01*
X388366Y289052D02*
X391414Y279908D01*
X384439Y279908D02*
X384439Y289052D01*
X381899Y289052D01*
X381799Y289050D01*
X381700Y289044D01*
X381600Y289034D01*
X381502Y289021D01*
X381403Y289003D01*
X381306Y288982D01*
X381210Y288957D01*
X381114Y288928D01*
X381020Y288895D01*
X380927Y288859D01*
X380836Y288819D01*
X380746Y288775D01*
X380658Y288728D01*
X380572Y288678D01*
X380488Y288624D01*
X380406Y288567D01*
X380327Y288507D01*
X380249Y288443D01*
X380175Y288377D01*
X380103Y288308D01*
X380034Y288236D01*
X379968Y288162D01*
X379904Y288084D01*
X379844Y288005D01*
X379787Y287923D01*
X379733Y287839D01*
X379683Y287753D01*
X379636Y287665D01*
X379592Y287575D01*
X379552Y287484D01*
X379516Y287391D01*
X379483Y287297D01*
X379454Y287201D01*
X379429Y287105D01*
X379408Y287008D01*
X379390Y286909D01*
X379377Y286811D01*
X379367Y286711D01*
X379361Y286612D01*
X379359Y286512D01*
X379361Y286412D01*
X379367Y286313D01*
X379377Y286213D01*
X379390Y286115D01*
X379408Y286016D01*
X379429Y285919D01*
X379454Y285823D01*
X379483Y285727D01*
X379516Y285633D01*
X379552Y285540D01*
X379592Y285449D01*
X379636Y285359D01*
X379683Y285271D01*
X379733Y285185D01*
X379787Y285101D01*
X379844Y285019D01*
X379904Y284940D01*
X379968Y284862D01*
X380034Y284788D01*
X380103Y284716D01*
X380175Y284647D01*
X380249Y284581D01*
X380327Y284517D01*
X380406Y284457D01*
X380488Y284400D01*
X380572Y284346D01*
X380658Y284296D01*
X380746Y284249D01*
X380836Y284205D01*
X380927Y284165D01*
X381020Y284129D01*
X381114Y284096D01*
X381210Y284067D01*
X381306Y284042D01*
X381403Y284021D01*
X381502Y284003D01*
X381600Y283990D01*
X381700Y283980D01*
X381799Y283974D01*
X381899Y283972D01*
X384439Y283972D01*
X381391Y283972D02*
X379359Y279908D01*
X375869Y279908D02*
X369773Y289052D01*
X375869Y289052D02*
X369773Y279908D01*
X361137Y286766D02*
X361139Y286860D01*
X361145Y286955D01*
X361155Y287049D01*
X361168Y287142D01*
X361186Y287235D01*
X361207Y287327D01*
X361232Y287418D01*
X361261Y287508D01*
X361293Y287597D01*
X361330Y287684D01*
X361369Y287770D01*
X361413Y287854D01*
X361459Y287936D01*
X361509Y288016D01*
X361563Y288094D01*
X361619Y288170D01*
X361679Y288243D01*
X361741Y288314D01*
X361807Y288382D01*
X361875Y288448D01*
X361946Y288510D01*
X362019Y288570D01*
X362095Y288626D01*
X362173Y288680D01*
X362253Y288730D01*
X362335Y288776D01*
X362419Y288820D01*
X362505Y288859D01*
X362592Y288896D01*
X362681Y288928D01*
X362771Y288957D01*
X362862Y288982D01*
X362954Y289003D01*
X363047Y289021D01*
X363140Y289034D01*
X363234Y289044D01*
X363329Y289050D01*
X363423Y289052D01*
X363529Y289050D01*
X363634Y289044D01*
X363739Y289035D01*
X363844Y289022D01*
X363948Y289005D01*
X364051Y288984D01*
X364154Y288960D01*
X364256Y288931D01*
X364356Y288900D01*
X364456Y288864D01*
X364554Y288826D01*
X364650Y288783D01*
X364746Y288737D01*
X364839Y288688D01*
X364930Y288636D01*
X365020Y288580D01*
X365108Y288521D01*
X365193Y288459D01*
X365276Y288394D01*
X365357Y288326D01*
X365435Y288255D01*
X365510Y288181D01*
X365583Y288105D01*
X365653Y288026D01*
X365720Y287945D01*
X365785Y287861D01*
X365846Y287775D01*
X365904Y287687D01*
X365959Y287597D01*
X366010Y287505D01*
X366059Y287411D01*
X366104Y287315D01*
X366145Y287218D01*
X366183Y287120D01*
X366217Y287020D01*
X361900Y284988D02*
X361833Y285055D01*
X361768Y285124D01*
X361706Y285196D01*
X361647Y285269D01*
X361591Y285346D01*
X361537Y285424D01*
X361487Y285504D01*
X361440Y285586D01*
X361396Y285670D01*
X361356Y285756D01*
X361318Y285843D01*
X361284Y285931D01*
X361254Y286021D01*
X361227Y286111D01*
X361203Y286203D01*
X361183Y286296D01*
X361167Y286389D01*
X361154Y286483D01*
X361145Y286577D01*
X361140Y286671D01*
X361138Y286766D01*
X361899Y284988D02*
X366217Y279908D01*
X361137Y279908D01*
D12*
X327660Y278130D02*
X299720Y278130D01*
X327660Y257810D02*
X327760Y257812D01*
X327859Y257818D01*
X327959Y257828D01*
X328057Y257841D01*
X328156Y257859D01*
X328253Y257880D01*
X328349Y257905D01*
X328445Y257934D01*
X328539Y257967D01*
X328632Y258003D01*
X328723Y258043D01*
X328813Y258087D01*
X328901Y258134D01*
X328987Y258184D01*
X329071Y258238D01*
X329153Y258295D01*
X329232Y258355D01*
X329310Y258419D01*
X329384Y258485D01*
X329456Y258554D01*
X329525Y258626D01*
X329591Y258700D01*
X329655Y258778D01*
X329715Y258857D01*
X329772Y258939D01*
X329826Y259023D01*
X329876Y259109D01*
X329923Y259197D01*
X329967Y259287D01*
X330007Y259378D01*
X330043Y259471D01*
X330076Y259565D01*
X330105Y259661D01*
X330130Y259757D01*
X330151Y259854D01*
X330169Y259953D01*
X330182Y260051D01*
X330192Y260151D01*
X330198Y260250D01*
X330200Y260350D01*
X299720Y257810D02*
X299620Y257812D01*
X299521Y257818D01*
X299421Y257828D01*
X299323Y257841D01*
X299224Y257859D01*
X299127Y257880D01*
X299031Y257905D01*
X298935Y257934D01*
X298841Y257967D01*
X298748Y258003D01*
X298657Y258043D01*
X298567Y258087D01*
X298479Y258134D01*
X298393Y258184D01*
X298309Y258238D01*
X298227Y258295D01*
X298148Y258355D01*
X298070Y258419D01*
X297996Y258485D01*
X297924Y258554D01*
X297855Y258626D01*
X297789Y258700D01*
X297725Y258778D01*
X297665Y258857D01*
X297608Y258939D01*
X297554Y259023D01*
X297504Y259109D01*
X297457Y259197D01*
X297413Y259287D01*
X297373Y259378D01*
X297337Y259471D01*
X297304Y259565D01*
X297275Y259661D01*
X297250Y259757D01*
X297229Y259854D01*
X297211Y259953D01*
X297198Y260051D01*
X297188Y260151D01*
X297182Y260250D01*
X297180Y260350D01*
X297180Y275590D02*
X297182Y275690D01*
X297188Y275789D01*
X297198Y275889D01*
X297211Y275987D01*
X297229Y276086D01*
X297250Y276183D01*
X297275Y276279D01*
X297304Y276375D01*
X297337Y276469D01*
X297373Y276562D01*
X297413Y276653D01*
X297457Y276743D01*
X297504Y276831D01*
X297554Y276917D01*
X297608Y277001D01*
X297665Y277083D01*
X297725Y277162D01*
X297789Y277240D01*
X297855Y277314D01*
X297924Y277386D01*
X297996Y277455D01*
X298070Y277521D01*
X298148Y277585D01*
X298227Y277645D01*
X298309Y277702D01*
X298393Y277756D01*
X298479Y277806D01*
X298567Y277853D01*
X298657Y277897D01*
X298748Y277937D01*
X298841Y277973D01*
X298935Y278006D01*
X299031Y278035D01*
X299127Y278060D01*
X299224Y278081D01*
X299323Y278099D01*
X299421Y278112D01*
X299521Y278122D01*
X299620Y278128D01*
X299720Y278130D01*
X327660Y278130D02*
X327760Y278128D01*
X327859Y278122D01*
X327959Y278112D01*
X328057Y278099D01*
X328156Y278081D01*
X328253Y278060D01*
X328349Y278035D01*
X328445Y278006D01*
X328539Y277973D01*
X328632Y277937D01*
X328723Y277897D01*
X328813Y277853D01*
X328901Y277806D01*
X328987Y277756D01*
X329071Y277702D01*
X329153Y277645D01*
X329232Y277585D01*
X329310Y277521D01*
X329384Y277455D01*
X329456Y277386D01*
X329525Y277314D01*
X329591Y277240D01*
X329655Y277162D01*
X329715Y277083D01*
X329772Y277001D01*
X329826Y276917D01*
X329876Y276831D01*
X329923Y276743D01*
X329967Y276653D01*
X330007Y276562D01*
X330043Y276469D01*
X330076Y276375D01*
X330105Y276279D01*
X330130Y276183D01*
X330151Y276086D01*
X330169Y275987D01*
X330182Y275889D01*
X330192Y275789D01*
X330198Y275690D01*
X330200Y275590D01*
X330200Y260350D01*
X297180Y260350D02*
X297180Y275590D01*
X299720Y257810D02*
X327660Y257810D01*
D11*
X327965Y279908D02*
X331013Y289052D01*
X324917Y289052D02*
X327965Y279908D01*
X320990Y279908D02*
X320990Y289052D01*
X318450Y289052D01*
X318350Y289050D01*
X318251Y289044D01*
X318151Y289034D01*
X318053Y289021D01*
X317954Y289003D01*
X317857Y288982D01*
X317761Y288957D01*
X317665Y288928D01*
X317571Y288895D01*
X317478Y288859D01*
X317387Y288819D01*
X317297Y288775D01*
X317209Y288728D01*
X317123Y288678D01*
X317039Y288624D01*
X316957Y288567D01*
X316878Y288507D01*
X316800Y288443D01*
X316726Y288377D01*
X316654Y288308D01*
X316585Y288236D01*
X316519Y288162D01*
X316455Y288084D01*
X316395Y288005D01*
X316338Y287923D01*
X316284Y287839D01*
X316234Y287753D01*
X316187Y287665D01*
X316143Y287575D01*
X316103Y287484D01*
X316067Y287391D01*
X316034Y287297D01*
X316005Y287201D01*
X315980Y287105D01*
X315959Y287008D01*
X315941Y286909D01*
X315928Y286811D01*
X315918Y286711D01*
X315912Y286612D01*
X315910Y286512D01*
X315912Y286412D01*
X315918Y286313D01*
X315928Y286213D01*
X315941Y286115D01*
X315959Y286016D01*
X315980Y285919D01*
X316005Y285823D01*
X316034Y285727D01*
X316067Y285633D01*
X316103Y285540D01*
X316143Y285449D01*
X316187Y285359D01*
X316234Y285271D01*
X316284Y285185D01*
X316338Y285101D01*
X316395Y285019D01*
X316455Y284940D01*
X316519Y284862D01*
X316585Y284788D01*
X316654Y284716D01*
X316726Y284647D01*
X316800Y284581D01*
X316878Y284517D01*
X316957Y284457D01*
X317039Y284400D01*
X317123Y284346D01*
X317209Y284296D01*
X317297Y284249D01*
X317387Y284205D01*
X317478Y284165D01*
X317571Y284129D01*
X317665Y284096D01*
X317761Y284067D01*
X317857Y284042D01*
X317954Y284021D01*
X318053Y284003D01*
X318151Y283990D01*
X318251Y283980D01*
X318350Y283974D01*
X318450Y283972D01*
X320990Y283972D01*
X317942Y283972D02*
X315910Y279908D01*
X312420Y279908D02*
X306324Y289052D01*
X312420Y289052D02*
X306324Y279908D01*
X302768Y279908D02*
X300228Y279908D01*
X300128Y279910D01*
X300029Y279916D01*
X299929Y279926D01*
X299831Y279939D01*
X299732Y279957D01*
X299635Y279978D01*
X299539Y280003D01*
X299443Y280032D01*
X299349Y280065D01*
X299256Y280101D01*
X299165Y280141D01*
X299075Y280185D01*
X298987Y280232D01*
X298901Y280282D01*
X298817Y280336D01*
X298735Y280393D01*
X298656Y280453D01*
X298578Y280517D01*
X298504Y280583D01*
X298432Y280652D01*
X298363Y280724D01*
X298297Y280798D01*
X298233Y280876D01*
X298173Y280955D01*
X298116Y281037D01*
X298062Y281121D01*
X298012Y281207D01*
X297965Y281295D01*
X297921Y281385D01*
X297881Y281476D01*
X297845Y281569D01*
X297812Y281663D01*
X297783Y281759D01*
X297758Y281855D01*
X297737Y281952D01*
X297719Y282051D01*
X297706Y282149D01*
X297696Y282249D01*
X297690Y282348D01*
X297688Y282448D01*
X297690Y282548D01*
X297696Y282647D01*
X297706Y282747D01*
X297719Y282845D01*
X297737Y282944D01*
X297758Y283041D01*
X297783Y283137D01*
X297812Y283233D01*
X297845Y283327D01*
X297881Y283420D01*
X297921Y283511D01*
X297965Y283601D01*
X298012Y283689D01*
X298062Y283775D01*
X298116Y283859D01*
X298173Y283941D01*
X298233Y284020D01*
X298297Y284098D01*
X298363Y284172D01*
X298432Y284244D01*
X298504Y284313D01*
X298578Y284379D01*
X298656Y284443D01*
X298735Y284503D01*
X298817Y284560D01*
X298901Y284614D01*
X298987Y284664D01*
X299075Y284711D01*
X299165Y284755D01*
X299256Y284795D01*
X299349Y284831D01*
X299443Y284864D01*
X299539Y284893D01*
X299635Y284918D01*
X299732Y284939D01*
X299831Y284957D01*
X299929Y284970D01*
X300029Y284980D01*
X300128Y284986D01*
X300228Y284988D01*
X299720Y289052D02*
X302768Y289052D01*
X299720Y289052D02*
X299631Y289050D01*
X299543Y289044D01*
X299455Y289035D01*
X299367Y289021D01*
X299280Y289004D01*
X299194Y288983D01*
X299109Y288958D01*
X299025Y288929D01*
X298942Y288897D01*
X298861Y288862D01*
X298782Y288822D01*
X298704Y288780D01*
X298628Y288734D01*
X298554Y288685D01*
X298483Y288632D01*
X298414Y288577D01*
X298347Y288518D01*
X298283Y288457D01*
X298222Y288393D01*
X298163Y288326D01*
X298108Y288257D01*
X298055Y288186D01*
X298006Y288112D01*
X297960Y288036D01*
X297918Y287958D01*
X297878Y287879D01*
X297843Y287798D01*
X297811Y287715D01*
X297782Y287631D01*
X297757Y287546D01*
X297736Y287460D01*
X297719Y287373D01*
X297705Y287285D01*
X297696Y287197D01*
X297690Y287109D01*
X297688Y287020D01*
X297690Y286931D01*
X297696Y286843D01*
X297705Y286755D01*
X297719Y286667D01*
X297736Y286580D01*
X297757Y286494D01*
X297782Y286409D01*
X297811Y286325D01*
X297843Y286242D01*
X297878Y286161D01*
X297918Y286082D01*
X297960Y286004D01*
X298006Y285928D01*
X298055Y285854D01*
X298108Y285783D01*
X298163Y285714D01*
X298222Y285647D01*
X298283Y285583D01*
X298347Y285522D01*
X298414Y285463D01*
X298483Y285408D01*
X298554Y285355D01*
X298628Y285306D01*
X298704Y285260D01*
X298782Y285218D01*
X298861Y285178D01*
X298942Y285143D01*
X299025Y285111D01*
X299109Y285082D01*
X299194Y285057D01*
X299280Y285036D01*
X299367Y285019D01*
X299455Y285005D01*
X299543Y284996D01*
X299631Y284990D01*
X299720Y284988D01*
X301752Y284988D01*
D12*
X299720Y405130D02*
X327660Y405130D01*
X330200Y387350D02*
X330198Y387250D01*
X330192Y387151D01*
X330182Y387051D01*
X330169Y386953D01*
X330151Y386854D01*
X330130Y386757D01*
X330105Y386661D01*
X330076Y386565D01*
X330043Y386471D01*
X330007Y386378D01*
X329967Y386287D01*
X329923Y386197D01*
X329876Y386109D01*
X329826Y386023D01*
X329772Y385939D01*
X329715Y385857D01*
X329655Y385778D01*
X329591Y385700D01*
X329525Y385626D01*
X329456Y385554D01*
X329384Y385485D01*
X329310Y385419D01*
X329232Y385355D01*
X329153Y385295D01*
X329071Y385238D01*
X328987Y385184D01*
X328901Y385134D01*
X328813Y385087D01*
X328723Y385043D01*
X328632Y385003D01*
X328539Y384967D01*
X328445Y384934D01*
X328349Y384905D01*
X328253Y384880D01*
X328156Y384859D01*
X328057Y384841D01*
X327959Y384828D01*
X327859Y384818D01*
X327760Y384812D01*
X327660Y384810D01*
X299720Y384810D02*
X299620Y384812D01*
X299521Y384818D01*
X299421Y384828D01*
X299323Y384841D01*
X299224Y384859D01*
X299127Y384880D01*
X299031Y384905D01*
X298935Y384934D01*
X298841Y384967D01*
X298748Y385003D01*
X298657Y385043D01*
X298567Y385087D01*
X298479Y385134D01*
X298393Y385184D01*
X298309Y385238D01*
X298227Y385295D01*
X298148Y385355D01*
X298070Y385419D01*
X297996Y385485D01*
X297924Y385554D01*
X297855Y385626D01*
X297789Y385700D01*
X297725Y385778D01*
X297665Y385857D01*
X297608Y385939D01*
X297554Y386023D01*
X297504Y386109D01*
X297457Y386197D01*
X297413Y386287D01*
X297373Y386378D01*
X297337Y386471D01*
X297304Y386565D01*
X297275Y386661D01*
X297250Y386757D01*
X297229Y386854D01*
X297211Y386953D01*
X297198Y387051D01*
X297188Y387151D01*
X297182Y387250D01*
X297180Y387350D01*
X297180Y402590D02*
X297182Y402690D01*
X297188Y402789D01*
X297198Y402889D01*
X297211Y402987D01*
X297229Y403086D01*
X297250Y403183D01*
X297275Y403279D01*
X297304Y403375D01*
X297337Y403469D01*
X297373Y403562D01*
X297413Y403653D01*
X297457Y403743D01*
X297504Y403831D01*
X297554Y403917D01*
X297608Y404001D01*
X297665Y404083D01*
X297725Y404162D01*
X297789Y404240D01*
X297855Y404314D01*
X297924Y404386D01*
X297996Y404455D01*
X298070Y404521D01*
X298148Y404585D01*
X298227Y404645D01*
X298309Y404702D01*
X298393Y404756D01*
X298479Y404806D01*
X298567Y404853D01*
X298657Y404897D01*
X298748Y404937D01*
X298841Y404973D01*
X298935Y405006D01*
X299031Y405035D01*
X299127Y405060D01*
X299224Y405081D01*
X299323Y405099D01*
X299421Y405112D01*
X299521Y405122D01*
X299620Y405128D01*
X299720Y405130D01*
X327660Y405130D02*
X327760Y405128D01*
X327859Y405122D01*
X327959Y405112D01*
X328057Y405099D01*
X328156Y405081D01*
X328253Y405060D01*
X328349Y405035D01*
X328445Y405006D01*
X328539Y404973D01*
X328632Y404937D01*
X328723Y404897D01*
X328813Y404853D01*
X328901Y404806D01*
X328987Y404756D01*
X329071Y404702D01*
X329153Y404645D01*
X329232Y404585D01*
X329310Y404521D01*
X329384Y404455D01*
X329456Y404386D01*
X329525Y404314D01*
X329591Y404240D01*
X329655Y404162D01*
X329715Y404083D01*
X329772Y404001D01*
X329826Y403917D01*
X329876Y403831D01*
X329923Y403743D01*
X329967Y403653D01*
X330007Y403562D01*
X330043Y403469D01*
X330076Y403375D01*
X330105Y403279D01*
X330130Y403183D01*
X330151Y403086D01*
X330169Y402987D01*
X330182Y402889D01*
X330192Y402789D01*
X330198Y402690D01*
X330200Y402590D01*
X330200Y387350D01*
X297180Y387350D02*
X297180Y402590D01*
X299720Y384810D02*
X327660Y384810D01*
D11*
X327965Y406908D02*
X331013Y416052D01*
X324917Y416052D02*
X327965Y406908D01*
X320990Y406908D02*
X320990Y416052D01*
X318450Y416052D01*
X318350Y416050D01*
X318251Y416044D01*
X318151Y416034D01*
X318053Y416021D01*
X317954Y416003D01*
X317857Y415982D01*
X317761Y415957D01*
X317665Y415928D01*
X317571Y415895D01*
X317478Y415859D01*
X317387Y415819D01*
X317297Y415775D01*
X317209Y415728D01*
X317123Y415678D01*
X317039Y415624D01*
X316957Y415567D01*
X316878Y415507D01*
X316800Y415443D01*
X316726Y415377D01*
X316654Y415308D01*
X316585Y415236D01*
X316519Y415162D01*
X316455Y415084D01*
X316395Y415005D01*
X316338Y414923D01*
X316284Y414839D01*
X316234Y414753D01*
X316187Y414665D01*
X316143Y414575D01*
X316103Y414484D01*
X316067Y414391D01*
X316034Y414297D01*
X316005Y414201D01*
X315980Y414105D01*
X315959Y414008D01*
X315941Y413909D01*
X315928Y413811D01*
X315918Y413711D01*
X315912Y413612D01*
X315910Y413512D01*
X315912Y413412D01*
X315918Y413313D01*
X315928Y413213D01*
X315941Y413115D01*
X315959Y413016D01*
X315980Y412919D01*
X316005Y412823D01*
X316034Y412727D01*
X316067Y412633D01*
X316103Y412540D01*
X316143Y412449D01*
X316187Y412359D01*
X316234Y412271D01*
X316284Y412185D01*
X316338Y412101D01*
X316395Y412019D01*
X316455Y411940D01*
X316519Y411862D01*
X316585Y411788D01*
X316654Y411716D01*
X316726Y411647D01*
X316800Y411581D01*
X316878Y411517D01*
X316957Y411457D01*
X317039Y411400D01*
X317123Y411346D01*
X317209Y411296D01*
X317297Y411249D01*
X317387Y411205D01*
X317478Y411165D01*
X317571Y411129D01*
X317665Y411096D01*
X317761Y411067D01*
X317857Y411042D01*
X317954Y411021D01*
X318053Y411003D01*
X318151Y410990D01*
X318251Y410980D01*
X318350Y410974D01*
X318450Y410972D01*
X320990Y410972D01*
X317942Y410972D02*
X315910Y406908D01*
X312420Y406908D02*
X306324Y416052D01*
X312420Y416052D02*
X306324Y406908D01*
X302768Y408940D02*
X300736Y416052D01*
X302768Y408940D02*
X297688Y408940D01*
X299212Y410972D02*
X299212Y406908D01*
M02*
